DBRep_DrawableShape

CASCADE Topology V3, (c) Open Cascade
Locations 0
Curve2ds 254
1 0 0 1 0 
2 0 0 1 0 -0 1 41
2 -37 15.5 1 0 -0 1 41
1 -4.7123889803846897 0 1 0 
2 2 2 0 -1 1 0 2
2 39 -13.5 0 -1 1 0 2
1 0 0 0 1 
1 0 0 0 -1 
1 37 -15.5 0 1 
1 -1.5707963267948966 0 1 0 
2 2 29 0 -1 -1 -0 2
2 39 13.5 0 -1 -1 -0 2
2 -37 15.5 1 0 -0 1 41
1 0 31 1 0 
1 0 0 0 1 
1 -1.5707963267948966 0 1 0 
2 35.980000000000004 29 0 -1 1 0 2
1 37.980000000000004 0 0 1 
1 -4.7123889803846897 0 1 0 
2 35.980000000000004 2 0 -1 -1 -0 2
1 0 0 1 0 
1 0 0 0 1 
2 28.991378028648441 -28.991378028648455 0.70710678118654735 -0.70710678118654768 0.70710678118654768 0.70710678118654735 2
1 0 0.20000000000000001 1 0 
1 -1.5707963267948966 0 1 0 
2 1.9999999999999936 29 0 -1 -1 -0 2
2 13.499999999999991 -39 -1 2.2204460492503131e-16 2.2204460492503131e-16 1 2
1 0 0 0 -1 
1 0 0 0 1 
1 -15.500000000000009 -37 1 -2.2204460492503131e-16 
1 -4.7123889803846897 0 1 0 
2 1.9999999999999996 2.0000000000000004 0 -1 1 0 2
2 -13.500000000000009 -39 -1 2.2204460492503131e-16 -2.2204460492503131e-16 -1 2
2 -28.991378028648455 -28.991378028648445 -0.70710678118654768 -0.70710678118654746 0.70710678118654746 -0.70710678118654768 2
1 0 0.20000000000000001 1 0 
1 -1.5707963267948966 0 1 0 
2 1.9999999999999964 29 0 -1 -1 -0 2
2 -39 -13.499999999999995 1.2246467991473532e-16 1 1 -1.2246467991473532e-16 2
1 0 0 0 -1 
1 0 0 0 1 
1 -37 15.500000000000005 -1.2246467991473532e-16 -1 
1 -4.7123889803846897 0 1 0 
2 1.9999999999999998 2.0000000000000004 0 -1 1 0 2
2 -39 13.500000000000005 1.2246467991473532e-16 1 -1 1.2246467991473532e-16 2
2 -28.991378028648445 28.991378028648452 -0.70710678118654746 0.70710678118654757 -0.70710678118654757 -0.70710678118654746 2
1 0 0.20000000000000001 1 0 
1 -1.5707963267948966 0 1 0 
2 1.9999999999999969 29 0 -1 -1 -0 2
2 -13.499999999999996 39 1 -1.1102230246251565e-16 -1.1102230246251565e-16 -1 2
1 0 0 0 -1 
1 0 0 0 1 
1 15.500000000000004 37 -1 1.1102230246251565e-16 
1 -4.7123889803846897 0 1 0 
2 1.9999999999999998 2 0 -1 1 0 2
2 13.500000000000004 39 1 -1.1102230246251565e-16 1.1102230246251565e-16 1 2
2 28.991378028648452 28.991378028648452 0.70710678118654757 0.70710678118654757 -0.70710678118654757 0.70710678118654757 2
1 0 0.20000000000000001 1 0 
1 0 0 1 0 
2 0 0 1 0 -0 1 20
2 0 0 1 0 -0 1 20
8 -5.9999999999999997e-07 12.0000006
1 0.38142277327891227 0 0 1 
8 -5.9999999999999997e-07 12.0000006
1 1.0778621055399005 0 0 1 
1 -1.5707963267948966 12 1 0 
2 2 29 0 -1 -1 -0 2
1 1.5707963267948966 0 0 1 
1 0 2 1 0 
1 1.5707963267948966 0 0 1 
1 0 35.980000000000004 1 0 
1 0 31 1 0 
1 12 0 0 1 
1 0 0 0 1 
1 -1.5707963267948966 12 1 0 
2 35.980000000000004 29 0 -1 1 0 2
1 37.980000000000004 0 0 1 
1 0 0 0 1 
1 1.5707963267948966 0 0 1 
1 0 35.980000000000004 1 0 
1 -4.7123889803846897 12 1 0 
2 35.980000000000004 2 0 -1 -1 -0 2
1 1.5707963267948966 0 0 1 
1 0 2 1 0 
1 0 0 1 0 
1 12 0 0 1 
8 -5.9999999999999997e-07 12.0000006
1 5.9017625339006736 0 0 1 
8 -5.9999999999999997e-07 12.0000006
1 1.0778621055399005 0 0 1 
1 -4.7123889803846897 12 1 0 
2 2 2 0 -1 1 0 2
1 0 12 1 0 
2 0 0 1 0 -0 1 41
8 -5.9999999999999997e-07 12.0000006
1 5.5465724693374483 0 0 1 
8 -5.9999999999999997e-07 12.0000006
1 1.5951889895725522 0.20000000000000001 0 1 
2 28.991378028648441 -28.991378028648455 0.70710678118654735 -0.70710678118654768 0.70710678118654768 0.70710678118654735 2
1 0 12.199999999999999 1 0 
8 -5.9999999999999997e-07 12.0000006
1 5.4490018182268267 0 0 1 
8 -5.9999999999999997e-07 12.0000006
1 4.6879963176070341 0.20000000000000001 0 1 
8 -5.9999999999999997e-07 12.0000006
1 5.0938117536636014 0 0 1 
8 -5.9999999999999997e-07 12.0000006
1 1.0778621055399038 0 0 1 
2 -37 15.5 -2.2204460492503131e-16 1 -1 -2.2204460492503131e-16 41
8 -5.9999999999999997e-07 12.0000006
1 4.3309662071057771 0 0 1 
8 -5.9999999999999997e-07 12.0000006
1 1.0778621055399007 0 0 1 
8 -5.9999999999999997e-07 12.0000006
1 3.9757761425425522 0 0 1 
8 -5.9999999999999997e-07 12.0000006
1 1.5951889895725508 0.20000000000000001 0 1 
2 -28.991378028648455 -28.991378028648445 -0.70710678118654768 -0.70710678118654746 0.70710678118654746 -0.70710678118654768 2
1 0 12.199999999999999 1 0 
8 -5.9999999999999997e-07 12.0000006
1 3.8782054914319302 0 0 1 
8 -5.9999999999999997e-07 12.0000006
1 4.6879963176070341 0.20000000000000001 0 1 
8 -5.9999999999999997e-07 12.0000006
1 3.5230154268687053 0 0 1 
8 -5.9999999999999997e-07 12.0000006
1 1.0778621055399038 0 0 1 
2 -37 15.5 -1 -1.2246467991473532e-16 1.2246467991473532e-16 -1 41
8 -5.9999999999999997e-07 12.0000006
1 2.760169880310881 0 0 1 
8 -5.9999999999999997e-07 12.0000006
1 1.0778621055399005 0 0 1 
8 -5.9999999999999997e-07 12.0000006
1 2.4049798157476561 0 0 1 
8 -5.9999999999999997e-07 12.0000006
1 1.595188989572552 0.20000000000000001 0 1 
2 -28.991378028648445 28.991378028648452 -0.70710678118654746 0.70710678118654757 -0.70710678118654757 -0.70710678118654746 2
1 0 12.199999999999999 1 0 
8 -5.9999999999999997e-07 12.0000006
1 2.3074091646370336 0 0 1 
8 -5.9999999999999997e-07 12.0000006
1 4.6879963176070341 0.20000000000000001 0 1 
8 -5.9999999999999997e-07 12.0000006
1 1.9522191000738087 0 0 1 
8 -5.9999999999999997e-07 12.0000006
1 1.0778621055399003 0 0 1 
2 -37 15.5 1.1102230246251565e-16 -1 1 1.1102230246251565e-16 41
8 -5.9999999999999997e-07 12.0000006
1 1.1893735535159844 0 0 1 
8 -5.9999999999999997e-07 12.0000006
1 1.0778621055399 0 0 1 
8 -5.9999999999999997e-07 12.0000006
1 0.83418348895275729 0 0 1 
8 -5.9999999999999997e-07 12.0000006
1 1.5951889895725542 0.20000000000000001 0 1 
2 28.991378028648452 28.991378028648452 0.70710678118654757 0.70710678118654757 -0.70710678118654757 0.70710678118654757 2
1 0 12.199999999999999 1 0 
8 -5.9999999999999997e-07 12.0000006
1 0.73661283784213938 0 0 1 
8 -5.9999999999999997e-07 12.0000006
1 4.6879963176070323 0.20000000000000001 0 1 
1 0 12 1 0 
2 0 0 1 0 -0 1 20
2 0 0 1 0 -0 1 20
1 6.2831853071795862 -0 0 1 
1 0 -0 0 1 
2 -37 15.5 1 0 -0 1 41
2 -37 15.5 1 0 -0 1 41
2 39 -13.5 0 -1 1 0 2
1 -1.5707963267948966 12 1 0 
2 1.9999999999999936 29 0 -1 -1 -0 2
2 13.499999999999991 -39 -1 2.2204460492503131e-16 2.2204460492503131e-16 1 2
1 12 0 0 -1 
1 0 0 0 1 
1 -15.500000000000009 -37 1 -2.2204460492503131e-16 
1 -4.7123889803846897 12 1 0 
2 1.9999999999999996 2.0000000000000004 0 -1 1 0 2
2 -13.500000000000009 -39 -1 2.2204460492503131e-16 -2.2204460492503131e-16 -1 2
1 -1.5707963267948966 12 1 0 
2 1.9999999999999964 29 0 -1 -1 -0 2
2 -39 -13.499999999999995 1.2246467991473532e-16 1 1 -1.2246467991473532e-16 2
1 12 0 0 -1 
1 0 0 0 1 
1 -37 15.500000000000005 -1.2246467991473532e-16 -1 
1 -4.7123889803846897 12 1 0 
2 1.9999999999999998 2.0000000000000004 0 -1 1 0 2
2 -39 13.500000000000005 1.2246467991473532e-16 1 -1 1.2246467991473532e-16 2
1 -1.5707963267948966 12 1 0 
2 1.9999999999999969 29 0 -1 -1 -0 2
2 -13.499999999999996 39 1 -1.1102230246251565e-16 -1.1102230246251565e-16 -1 2
1 12 0 0 -1 
1 0 0 0 1 
1 15.500000000000004 37 -1 1.1102230246251565e-16 
1 -4.7123889803846897 12 1 0 
2 1.9999999999999998 2 0 -1 1 0 2
2 13.500000000000004 39 1 -1.1102230246251565e-16 1.1102230246251565e-16 1 2
2 39 13.5 0 -1 -1 -0 2
1 0 0 0 1 
1 12 0 0 -1 
1 37 -15.5 0 1 
1 1.5707963267948966 0 0 1 
1 0 2 1 0 
1 -6.8833827526759706e-15 31 1 0 
1 0 0 0 1 
1 -1.5707963267948966 0 1 0 
2 35.979999999999997 29 0 -1 1 0 2
1 37.980000000000004 1.3278267374516881e-15 0 1 
1 -4.7123889803846897 0 1 0 
2 35.980000000000004 2.0000000000000009 0 -1 -1 -0 2
1 0 0 1 0 
1 0 0 0 1 
1 1.5707963267948966 0 0 1 
1 0 2 1 0 
1 1.5707963267948966 0 0 1 
1 0 2 1 0 
1 -3.7964050773567951e-15 31 1 0 
1 0 0 0 1 
1 -1.5707963267948966 0 1 0 
2 35.980000000000004 29 0 -1 1 0 2
1 37.980000000000004 1.0984948643611467e-15 0 1 
1 -4.7123889803846897 0 1 0 
2 35.980000000000004 2.0000000000000009 0 -1 -1 -0 2
1 0 0 1 0 
1 0 0 0 1 
1 1.5707963267948966 0 0 1 
1 0 2 1 0 
1 1.5707963267948966 0 0 1 
1 0 2 1 0 
1 -3.4416913763379853e-15 31 1 0 
1 0 0 0 1 
1 -1.5707963267948966 0 1 0 
2 35.980000000000004 28.999999999999996 0 -1 1 0 2
1 37.980000000000004 -1.1124434706744064e-15 0 1 
1 -4.7123889803846897 0 1 0 
2 35.980000000000004 1.9999999999999987 0 -1 -1 -0 2
1 0 0 1 0 
1 0 0 0 1 
1 1.5707963267948966 0 0 1 
1 0 2 1 0 
2 -37 15.5 -2.2204460492503131e-16 1 -1 -2.2204460492503131e-16 41
2 -37 15.5 -1 -1.2246467991473532e-16 1.2246467991473532e-16 -1 41
2 -37 15.5 1.1102230246251565e-16 -1 1 1.1102230246251565e-16 41
1 12 0 0 1 
1 -6.8833827526759706e-15 31 1 0 
1 -1.5707963267948966 12 1 0 
2 35.979999999999997 29 0 -1 1 0 2
1 37.980000000000004 1.3278267374516881e-15 0 1 
1 -4.7123889803846897 12 1 0 
2 35.980000000000004 2.0000000000000009 0 -1 -1 -0 2
1 12 0 0 1 
1 0 0 1 0 
1 1.5707963267948966 0 0 1 
1 0 35.980000000000004 1 0 
1 0 0 0 1 
1 0 0 0 1 
1 1.5707963267948966 0 0 1 
1 0 35.980000000000004 1 0 
1 12 0 0 1 
1 -3.7964050773567951e-15 31 1 0 
1 -1.5707963267948966 12 1 0 
2 35.980000000000004 29 0 -1 1 0 2
1 37.980000000000004 1.0984948643611467e-15 0 1 
1 -4.7123889803846897 12 1 0 
2 35.980000000000004 2.0000000000000009 0 -1 -1 -0 2
1 12 0 0 1 
1 0 0 1 0 
1 1.5707963267948966 0 0 1 
1 0 35.980000000000004 1 0 
1 0 0 0 1 
1 0 0 0 1 
1 1.5707963267948966 0 0 1 
1 0 35.980000000000004 1 0 
1 12 0 0 1 
1 -3.4416913763379853e-15 31 1 0 
1 -1.5707963267948966 12 1 0 
2 35.980000000000004 28.999999999999996 0 -1 1 0 2
1 37.980000000000004 -1.1124434706744064e-15 0 1 
1 -4.7123889803846897 12 1 0 
2 35.980000000000004 1.9999999999999987 0 -1 -1 -0 2
1 12 0 0 1 
1 0 0 1 0 
1 1.5707963267948966 0 0 1 
1 0 35.980000000000004 1 0 
1 0 0 0 1 
1 0 0 0 1 
1 1.5707963267948966 0 0 1 
1 0 35.980000000000004 1 0 
Curves 117
2 0 0 0 0 0 1 1 0 -0 -0 1 0 41
8 4.7123889803846897 6.2831853071795862
2 39 -13.5 0 -0 0 1 0 -1 0 1 0 0 2
1 37 -15.5 0 0 1 0 
8 1.5707963267948966 3.1415926535897931
2 39 13.5 0 -0 -0 -1 0 -1 0 -1 0 0 2
1 37 15.5 0 1 0 0 
8 1.5707963267948966 3.1415926535897931
2 72.980000000000004 13.5 0 -0 0 1 0 -1 0 1 0 0 2
1 74.980000000000004 -15.5 0 0 1 0 
8 4.7123889803846897 6.2831853071795862
2 72.980000000000004 -13.5 0 -0 -0 -1 0 -1 0 -1 0 0 2
1 37 -15.5 0 1 0 0 
2 28.991378028648441 -28.991378028648455 0 0 0 1 0.70710678118654735 -0.70710678118654768 0 0.70710678118654768 0.70710678118654735 -0 2
8 1.5707963267948966 3.1415926535897931
2 13.499999999999991 -39 0 0 0 -1 -1 2.2204460492503131e-16 0 2.2204460492503131e-16 1 0 2
1 -15.500000000000009 -37 0 1 -2.2204460492503131e-16 0 
8 4.7123889803846897 6.2831853071795862
2 -13.500000000000009 -39 0 0 0 1 -1 2.2204460492503131e-16 0 -2.2204460492503131e-16 -1 0 2
2 -28.991378028648455 -28.991378028648445 0 0 0 1 -0.70710678118654768 -0.70710678118654746 0 0.70710678118654746 -0.70710678118654768 0 2
8 1.5707963267948966 3.1415926535897931
2 -39 -13.499999999999995 0 0 0 -1 1.2246467991473532e-16 1 0 1 -1.2246467991473532e-16 0 2
1 -37 15.500000000000005 0 -1.2246467991473532e-16 -1 0 
8 4.7123889803846897 6.2831853071795862
2 -39 13.500000000000005 0 0 -0 1 1.2246467991473532e-16 1 0 -1 1.2246467991473532e-16 0 2
2 -28.991378028648445 28.991378028648452 0 0 0 1 -0.70710678118654746 0.70710678118654757 0 -0.70710678118654757 -0.70710678118654746 0 2
8 1.5707963267948966 3.1415926535897931
2 -13.499999999999996 39 0 0 -0 -1 1 -1.1102230246251565e-16 0 -1.1102230246251565e-16 -1 0 2
1 15.500000000000004 37 0 -1 1.1102230246251565e-16 0 
8 4.7123889803846897 6.2831853071795862
2 13.500000000000004 39 0 -0 0 1 1 -1.1102230246251565e-16 0 1.1102230246251565e-16 1 0 2
2 28.991378028648452 28.991378028648452 0 0 0 1 0.70710678118654757 0.70710678118654757 -0 -0.70710678118654757 0.70710678118654757 0 2
2 0 0 0 0 0 1 1 0 -0 -0 1 0 20
1 38.053574363355601 15.261896283639363 0 0 0 1 
8 1.5707963267948966 3.1415926535897931
2 39 13.5 12 -0 -0 -1 0 -1 0 -1 0 0 2
1 39 15.5 0 0 0 1 
1 72.980000000000004 15.5 0 0 0 1 
1 37 15.5 12 1 0 0 
1 74.980000000000004 13.5 0 0 0 1 
8 1.5707963267948966 3.1415926535897931
2 72.980000000000004 13.5 12 -0 0 1 0 -1 0 1 0 0 2
1 74.980000000000004 -15.5 12 0 1 0 
1 74.980000000000004 -13.5 0 0 0 1 
1 72.980000000000004 -15.5 0 0 0 1 
8 4.7123889803846897 6.2831853071795862
2 72.980000000000004 -13.5 12 -0 -0 -1 0 -1 0 -1 0 0 2
1 39 -15.5 0 0 0 1 
1 37 -15.5 12 1 0 0 
1 38.053574363355601 -15.261896283639363 0 0 0 1 
8 4.7123889803846897 6.2831853071795862
2 39 -13.5 12 -0 0 1 0 -1 0 1 0 0 2
2 0 0 12 0 0 1 1 0 -0 -0 1 0 41
1 30.37067786821882 -27.543092161645241 0 0 0 1 
2 28.991378028648441 -28.991378028648455 12 0 0 1 0.70710678118654735 -0.70710678118654768 0 0.70710678118654768 0.70710678118654735 -0 2
1 27.543092161645227 -30.370677868218834 0 0 0 1 
1 15.261896283639356 -38.053574363355608 0 0 0 1 
1 -15.261896283639372 -38.053574363355601 0 0 0 1 
1 -27.543092161645241 -30.370677868218827 0 0 0 1 
2 -28.991378028648455 -28.991378028648445 12 0 0 1 -0.70710678118654768 -0.70710678118654746 0 0.70710678118654746 -0.70710678118654768 0 2
1 -30.370677868218834 -27.54309216164523 0 0 0 1 
1 -38.053574363355608 -15.261896283639359 0 0 0 1 
1 -38.053574363355601 15.261896283639368 0 0 0 1 
1 -30.370677868218827 27.543092161645234 0 0 0 1 
2 -28.991378028648445 28.991378028648452 12 0 0 1 -0.70710678118654746 0.70710678118654757 0 -0.70710678118654757 -0.70710678118654746 0 2
1 -27.54309216164523 30.370677868218831 0 0 0 1 
1 -15.261896283639359 38.053574363355601 0 0 0 1 
1 15.261896283639365 38.053574363355601 0 0 0 1 
1 27.543092161645298 30.370677868218767 0 0 0 1 
2 28.991378028648452 28.991378028648452 12 0 0 1 0.70710678118654757 0.70710678118654757 -0 -0.70710678118654757 0.70710678118654757 0 2
1 30.370677868218767 27.543092161645298 0 0 0 1 
2 0 0 12 0 0 1 1 0 -0 -0 1 0 20
1 20 -4.898587196589413e-15 0 0 0 1 
8 1.5707963267948966 3.1415926535897931
2 13.499999999999991 -39 12 0 0 -1 -1 2.2204460492503131e-16 0 2.2204460492503131e-16 1 0 2
1 -15.500000000000009 -37 12 1 -2.2204460492503131e-16 0 
8 4.7123889803846897 6.2831853071795862
2 -13.500000000000009 -39 12 0 0 1 -1 2.2204460492503131e-16 0 -2.2204460492503131e-16 -1 0 2
8 1.5707963267948966 3.1415926535897931
2 -39 -13.499999999999995 12 0 0 -1 1.2246467991473532e-16 1 0 1 -1.2246467991473532e-16 0 2
1 -37 15.500000000000005 12 -1.2246467991473532e-16 -1 0 
8 4.7123889803846897 6.2831853071795862
2 -39 13.500000000000005 12 0 -0 1 1.2246467991473532e-16 1 0 -1 1.2246467991473532e-16 0 2
8 1.5707963267948966 3.1415926535897931
2 -13.499999999999996 39 12 0 -0 -1 1 -1.1102230246251565e-16 0 -1.1102230246251565e-16 -1 0 2
1 15.500000000000004 37 12 -1 1.1102230246251565e-16 0 
8 4.7123889803846897 6.2831853071795862
2 13.500000000000004 39 12 -0 0 1 1 -1.1102230246251565e-16 0 1.1102230246251565e-16 1 0 2
1 37 -15.5 12 0 1 0 
1 15.499999999999991 -39 0 0 0 1 
1 15.499999999999991 -37 0 -2.2204460492503131e-16 -1 0 
8 1.5707963267948966 3.1415926535897931
2 13.499999999999984 -72.980000000000004 0 0 0 1 -1 2.2204460492503131e-16 0 -2.2204460492503131e-16 -1 0 2
1 -15.500000000000016 -74.980000000000004 0 1 -2.2204460492503131e-16 0 
8 4.7123889803846897 6.2831853071795862
2 -13.500000000000016 -72.980000000000004 0 0 0 -1 -1 2.2204460492503131e-16 0 2.2204460492503131e-16 1 0 2
1 -15.500000000000009 -37 0 -2.2204460492503131e-16 -1 0 
1 -15.500000000000009 -39 0 0 0 1 
1 -39 -15.499999999999995 0 0 0 1 
1 -37 -15.499999999999995 0 -1 1.2246467991473532e-16 0 
8 1.5707963267948966 3.1415926535897931
2 -72.980000000000004 -13.499999999999991 0 0 -0 1 1.2246467991473532e-16 1 0 -1 1.2246467991473532e-16 0 2
1 -74.980000000000004 15.500000000000009 0 -1.2246467991473532e-16 -1 0 
8 4.7123889803846897 6.2831853071795862
2 -72.980000000000004 13.500000000000009 0 0 0 -1 1.2246467991473532e-16 1 0 1 -1.2246467991473532e-16 0 2
1 -37 15.500000000000005 0 -1 1.2246467991473532e-16 0 
1 -39 15.500000000000005 0 0 0 1 
1 -15.499999999999996 39 0 0 0 1 
1 -15.499999999999996 37 0 1.1102230246251565e-16 1 0 
8 1.5707963267948966 3.1415926535897931
2 -13.499999999999991 72.980000000000004 0 -0 0 1 1 -1.1102230246251565e-16 0 1.1102230246251565e-16 1 0 2
1 15.500000000000009 74.980000000000004 0 -1 1.1102230246251565e-16 0 
8 4.7123889803846897 6.2831853071795862
2 13.500000000000009 72.980000000000004 0 0 -0 -1 1 -1.1102230246251565e-16 0 -1.1102230246251565e-16 -1 0 2
1 15.500000000000004 37 0 1.1102230246251565e-16 1 0 
1 15.500000000000004 39 0 0 0 1 
1 15.499999999999991 -37 12 -2.2204460492503131e-16 -1 0 
8 1.5707963267948966 3.1415926535897931
2 13.499999999999984 -72.980000000000004 12 0 0 1 -1 2.2204460492503131e-16 0 -2.2204460492503131e-16 -1 0 2
1 -15.500000000000016 -74.980000000000004 12 1 -2.2204460492503131e-16 0 
8 4.7123889803846897 6.2831853071795862
2 -13.500000000000016 -72.980000000000004 12 0 0 -1 -1 2.2204460492503131e-16 0 2.2204460492503131e-16 1 0 2
1 -15.500000000000009 -37 12 -2.2204460492503131e-16 -1 0 
1 15.499999999999984 -72.980000000000004 0 0 0 1 
1 13.499999999999984 -74.980000000000004 0 0 0 1 
1 -13.500000000000016 -74.980000000000004 0 0 0 1 
1 -15.500000000000016 -72.980000000000004 0 0 0 1 
1 -37 -15.499999999999995 12 -1 1.2246467991473532e-16 0 
8 1.5707963267948966 3.1415926535897931
2 -72.980000000000004 -13.499999999999991 12 0 -0 1 1.2246467991473532e-16 1 0 -1 1.2246467991473532e-16 0 2
1 -74.980000000000004 15.500000000000009 12 -1.2246467991473532e-16 -1 0 
8 4.7123889803846897 6.2831853071795862
2 -72.980000000000004 13.500000000000009 12 0 0 -1 1.2246467991473532e-16 1 0 1 -1.2246467991473532e-16 0 2
1 -37 15.500000000000005 12 -1 1.2246467991473532e-16 0 
1 -72.980000000000004 -15.499999999999991 0 0 0 1 
1 -74.980000000000004 -13.499999999999991 0 0 0 1 
1 -74.980000000000004 13.500000000000009 0 0 0 1 
1 -72.980000000000004 15.500000000000009 0 0 0 1 
1 -15.499999999999996 37 12 1.1102230246251565e-16 1 0 
8 1.5707963267948966 3.1415926535897931
2 -13.499999999999991 72.980000000000004 12 -0 0 1 1 -1.1102230246251565e-16 0 1.1102230246251565e-16 1 0 2
1 15.500000000000009 74.980000000000004 12 -1 1.1102230246251565e-16 0 
8 4.7123889803846897 6.2831853071795862
2 13.500000000000009 72.980000000000004 12 0 -0 -1 1 -1.1102230246251565e-16 0 -1.1102230246251565e-16 -1 0 2
1 15.500000000000004 37 12 1.1102230246251565e-16 1 0 
1 -15.499999999999991 72.980000000000004 0 0 0 1 
1 -13.499999999999991 74.980000000000004 0 0 0 1 
1 13.500000000000009 74.980000000000004 0 0 0 1 
1 15.500000000000009 72.980000000000004 0 0 0 1 
Polygon3D 0
PolygonOnTriangulations 0
Surfaces 50
1 0 0 0 0 0 1 1 0 -0 -0 1 0 
2 0 0 0 0 0 1 1 0 -0 -0 1 0 41
1 37 -15.5 0 0 0 1 1 0 0 0 1 0 
2 39 -13.5 0 0 0 1 -1 0 0 0 -1 0 2
1 37 -15.5 0 1 0 0 0 0 1 0 -1 0 
2 39 13.5 0 0 0 1 -1 0 0 0 1 0 2
1 37 15.5 0 0 1 0 0 0 1 1 0 0 
2 72.980000000000004 13.5 0 0 0 1 1 0 0 0 1 0 2
2 72.980000000000004 -13.5 0 0 0 1 1 0 0 0 -1 0 2
1 37 -15.5 0 0 1 0 0 0 1 1 0 0 
2 28.991378028648441 -28.991378028648455 -0.20000000000000001 0 0 1 0.70710678118654735 -0.70710678118654768 0 0.70710678118654768 0.70710678118654735 0 2
2 13.499999999999991 -39 0 0 0 1 2.2204460492503131e-16 1 0 1 -2.2204460492503131e-16 0 2
1 -15.500000000000009 -37 0 0 0 1 -2.2204460492503131e-16 -1 0 1 -2.2204460492503131e-16 0 
1 -15.500000000000009 -37 0 -2.2204460492503131e-16 -1 0 0 0 1 -1 2.2204460492503131e-16 0 
2 -13.500000000000009 -39 0 0 0 1 2.2204460492503131e-16 1 0 -1 2.2204460492503131e-16 0 2
2 -28.991378028648455 -28.991378028648445 -0.20000000000000001 0 0 1 -0.70710678118654768 -0.70710678118654746 0 0.70710678118654746 -0.70710678118654768 0 2
2 -39 -13.499999999999995 0 0 0 1 1 -1.2246467991473532e-16 0 -1.2246467991473532e-16 -1 0 2
1 -37 15.500000000000005 0 0 0 1 -1 1.2246467991473532e-16 0 -1.2246467991473532e-16 -1 0 
1 -37 15.500000000000005 0 -1 1.2246467991473532e-16 0 0 0 1 1.2246467991473532e-16 1 0 
2 -39 13.500000000000005 0 0 0 1 1 -1.2246467991473532e-16 0 1.2246467991473532e-16 1 0 2
2 -28.991378028648445 28.991378028648452 -0.20000000000000001 0 0 1 -0.70710678118654746 0.70710678118654757 0 -0.70710678118654757 -0.70710678118654746 0 2
2 -13.499999999999996 39 0 0 0 1 -1.1102230246251565e-16 -1 0 -1 1.1102230246251565e-16 0 2
1 15.500000000000004 37 0 0 0 1 1.1102230246251565e-16 1 0 -1 1.1102230246251565e-16 0 
1 15.500000000000004 37 0 1.1102230246251565e-16 1 0 0 0 1 1 -1.1102230246251565e-16 0 
2 13.500000000000004 39 0 0 0 1 -1.1102230246251565e-16 -1 0 1 -1.1102230246251565e-16 0 2
2 28.991378028648452 28.991378028648452 -0.20000000000000001 0 0 1 0.70710678118654757 0.70710678118654757 0 -0.70710678118654757 0.70710678118654757 0 2
2 0 0 0 0 0 1 1 0 -0 -0 1 0 20
1 0 0 0 0 0 1 1 0 -0 -0 1 0 
1 37 -15.5 12 0 0 1 1 0 0 0 1 0 
1 74.980000000000004 -15.5 0 1 0 0 0 0 1 0 -1 0 
1 0 0 12 0 0 1 1 0 -0 -0 1 0 
1 0 0 12 0 0 1 1 0 -0 -0 1 0 
1 -15.500000000000009 -37 12 0 0 1 -2.2204460492503131e-16 -1 0 1 -2.2204460492503131e-16 0 
1 -37 15.500000000000005 12 0 0 1 -1 1.2246467991473532e-16 0 -1.2246467991473532e-16 -1 0 
1 15.500000000000004 37 12 0 0 1 1.1102230246251565e-16 1 0 -1 1.1102230246251565e-16 0 
1 15.499999999999991 -37 0 1 -2.2204460492503131e-16 0 0 0 1 -2.2204460492503131e-16 -1 0 
2 13.499999999999984 -72.980000000000004 0 0 0 1 -2.2204460492503131e-16 -1 0 1 -2.2204460492503131e-16 0 2
2 -13.500000000000016 -72.980000000000004 0 0 0 1 -2.2204460492503131e-16 -1 0 -1 2.2204460492503131e-16 0 2
1 -15.500000000000009 -37 0 1 -2.2204460492503131e-16 0 0 0 1 -2.2204460492503131e-16 -1 0 
1 -37 -15.499999999999995 0 -1.2246467991473532e-16 -1 0 0 0 1 -1 1.2246467991473532e-16 0 
2 -72.980000000000004 -13.499999999999991 0 0 0 1 -1 1.2246467991473532e-16 0 -1.2246467991473532e-16 -1 0 2
2 -72.980000000000004 13.500000000000009 0 0 0 1 -1 1.2246467991473532e-16 0 1.2246467991473532e-16 1 0 2
1 -37 15.500000000000005 0 -1.2246467991473532e-16 -1 0 0 0 1 -1 1.2246467991473532e-16 0 
1 -15.499999999999996 37 0 -1 1.1102230246251565e-16 0 0 0 1 1.1102230246251565e-16 1 0 
2 -13.499999999999991 72.980000000000004 0 0 0 1 1.1102230246251565e-16 1 0 -1 1.1102230246251565e-16 0 2
2 13.500000000000009 72.980000000000004 0 0 0 1 1.1102230246251565e-16 1 0 1 -1.1102230246251565e-16 0 2
1 15.500000000000004 37 0 -1 1.1102230246251565e-16 0 0 0 1 1.1102230246251565e-16 1 0 
1 -15.500000000000016 -74.980000000000004 0 -2.2204460492503131e-16 -1 0 0 0 1 -1 2.2204460492503131e-16 0 
1 -74.980000000000004 15.500000000000009 0 -1 1.2246467991473532e-16 0 0 0 1 1.2246467991473532e-16 1 0 
1 15.500000000000009 74.980000000000004 0 1.1102230246251565e-16 1 0 0 0 1 1 -1.1102230246251565e-16 0 
Triangulations 0

TShapes 380
Ve
1.00000484590667e-07
38.0535743633555 -15.2618962836398 0
0 0

0101101
*
Ve
1e-07
41 -1.00421037530083e-14 0
0 0

0101101
*
Ed
 1e-07 1 1 0
1  1 0 5.90176253390066 6.28318530717959
2  1 2 0 5.90176253390066 6.28318530717959
2  2 1 0 5.90176253390066 6.28318530717959
2  3 3 0 5.90176253390066 6.28318530717959
0

0101000
+380 0 -379 0 *
Ve
1e-07
37 -13.5 0
0 0

0101101
*
Ed
 1e-07 1 1 0
1  2 0 4.71238898038469 5.79025108592464
2  4 4 0 4.71238898038469 5.79025108592464
2  5 3 0 4.71238898038469 5.79025108592464
2  6 1 0 4.71238898038469 5.79025108592464
0

0101000
+377 0 -380 0 *
Ve
1e-07
37 13.5 0
0 0

0101101
*
Ed
 1e-07 1 1 0
1  3 0 2 29
2  7 3 0 2 29
2  8 5 0 2 29
2  9 1 0 2 29
0

0101000
+377 0 -375 0 *
Ve
1.00000501527544e-07
38.0535743633555 15.2618962836398 0
0 0

0101101
*
Ed
 1e-07 1 1 0
1  4 0 1.5707963267949 2.64865843233486
2  10 6 0 1.5707963267949 2.64865843233486
2  11 3 0 1.5707963267949 2.64865843233486
2  12 1 0 1.5707963267949 2.64865843233486
0

0101000
+375 0 -373 0 *
Ed
 1e-07 1 1 0
1  1 0 0 0.381422773278924
2  1 2 0 0 0.381422773278924
2  2 1 0 0 0.381422773278924
2  13 3 0 0 0.381422773278924
0

0101000
+379 0 -373 0 *
Wi

0101100
+378 0 +376 0 -374 0 -372 0 +371 0 *
Fa
0  1e-07 1 0

0101000
+370 0 *
Ve
1e-07
39 15.5 0
0 0

0101101
*
Ed
 1e-07 1 1 0
1  4 0 2.64865843233486 3.14159265358979
2  10 6 0 2.64865843233486 3.14159265358979
2  11 3 0 2.64865843233486 3.14159265358979
0

0101000
+373 0 -368 0 *
Ve
1e-07
72.98 15.5 0
0 0

0101101
*
Ed
 1e-07 1 1 0
1  5 0 2 35.98
2  14 3 0 2 35.98
2  15 7 0 2 35.98
0

0101000
+368 0 -366 0 *
Ve
1e-07
74.98 13.5 0
0 0

0101101
*
Ed
 1e-07 1 1 0
1  6 0 1.5707963267949 3.14159265358979
2  16 8 0 1.5707963267949 3.14159265358979
2  17 3 0 1.5707963267949 3.14159265358979
0

0101000
+364 0 -366 0 *
Ve
1e-07
74.98 -13.5 0
0 0

0101101
*
Ed
 1e-07 1 1 0
1  7 0 2 29
2  18 3 0 2 29
0

0101000
+362 0 -364 0 *
Ve
1e-07
72.98 -15.5 0
0 0

0101101
*
Ed
 1e-07 1 1 0
1  8 0 4.71238898038469 6.28318530717959
2  19 9 0 4.71238898038469 6.28318530717959
2  20 3 0 4.71238898038469 6.28318530717959
0

0101000
+362 0 -360 0 *
Ve
1e-07
39 -15.5 0
0 0

0101101
*
Ed
 1e-07 1 1 0
1  9 0 2 35.98
2  21 3 0 2 35.98
2  22 10 0 2 35.98
0

0101000
+358 0 -360 0 *
Ed
 1e-07 1 1 0
1  2 0 5.79025108592464 6.28318530717959
2  4 4 0 5.79025108592464 6.28318530717959
2  5 3 0 5.79025108592464 6.28318530717959
0

0101000
+380 0 -358 0 *
Wi

0101100
-378 0 -371 0 -367 0 -365 0 +363 0 +361 0 -359 0 +357 0 +356 0 *
Fa
0  1e-07 3 0

0101000
+355 0 *
Ve
1.00000065508803e-07
30.3706778682188 -27.5430921616453 0
0 0

0101101
*
Ed
 1e-07 1 1 0
1  1 0 5.54657246933745 5.90176253390066
2  1 2 0 5.54657246933745 5.90176253390066
2  2 1 0 5.54657246933745 5.90176253390066
0

0101000
+353 0 -380 0 *
Ve
1.00000065508803e-07
27.5430921616453 -30.3706778682188 0
0 0

0101101
*
Ed
 1e-07 1 1 0
1  10 0 1.59518898957255 4.68799631760704
2  23 1 0 1.59518898957255 4.68799631760704
2  24 11 0 1.59518898957255 4.68799631760704
0

0101000
+353 0 -351 0 *
Ve
1.00000460223856e-07
15.2618962836398 -38.0535743633555 0
0 0

0101101
*
Ed
 1e-07 1 1 0
1  1 0 5.09381175366361 5.44900181822683
2  1 2 0 5.09381175366361 5.44900181822683
2  2 1 0 5.09381175366361 5.44900181822683
0

0101000
+349 0 -351 0 *
Ve
1e-07
13.5 -37 0
0 0

0101101
*
Ed
 1e-07 1 1 0
1  11 0 1.5707963267949 2.64865843233485
2  25 12 0 1.5707963267949 2.64865843233485
2  26 13 0 1.5707963267949 2.64865843233485
2  27 1 0 1.5707963267949 2.64865843233485
0

0101000
+347 0 -349 0 *
Ve
1e-07
-13.5 -37 0
0 0

0101101
*
Ed
 1e-07 1 1 0
1  12 0 2 29
2  28 14 0 2 29
2  29 13 0 2 29
2  30 1 0 2 29
0

0101000
+345 0 -347 0 *
Ve
1.00000477770647e-07
-15.2618962836398 -38.0535743633555 0
0 0

0101101
*
Ed
 1e-07 1 1 0
1  13 0 4.71238898038469 5.79025108592464
2  31 15 0 4.71238898038469 5.79025108592464
2  32 13 0 4.71238898038469 5.79025108592464
2  33 1 0 4.71238898038469 5.79025108592464
0

0101000
+345 0 -343 0 *
Ve
1.00000032754402e-07
-27.5430921616453 -30.3706778682188 0
0 0

0101101
*
Ed
 1e-07 1 1 0
1  1 0 3.97577614254255 4.33096620710577
2  1 2 0 3.97577614254255 4.33096620710577
2  2 1 0 3.97577614254255 4.33096620710577
0

0101000
+341 0 -343 0 *
Ve
1.00000032754402e-07
-30.3706778682188 -27.5430921616453 0
0 0

0101101
*
Ed
 1e-07 1 1 0
1  14 0 1.59518898957255 4.68799631760703
2  34 1 0 1.59518898957255 4.68799631760703
2  35 16 0 1.59518898957255 4.68799631760703
0

0101000
+341 0 -339 0 *
Ve
1.00000496821318e-07
-38.0535743633555 -15.2618962836398 0
0 0

0101101
*
Ed
 1e-07 1 1 0
1  1 0 3.52301542686872 3.87820549143193
2  1 2 0 3.52301542686872 3.87820549143193
2  2 1 0 3.52301542686872 3.87820549143193
0

0101000
+337 0 -339 0 *
Ve
1e-07
-37 -13.5 0
0 0

0101101
*
Ed
 1e-07 1 1 0
1  15 0 1.5707963267949 2.64865843233485
2  36 17 0 1.5707963267949 2.64865843233485
2  37 18 0 1.5707963267949 2.64865843233485
2  38 1 0 1.5707963267949 2.64865843233485
0

0101000
+335 0 -337 0 *
Ve
1e-07
-37 13.5 0
0 0

0101101
*
Ed
 1e-07 1 1 0
1  16 0 2 29
2  39 19 0 2 29
2  40 18 0 2 29
2  41 1 0 2 29
0

0101000
+333 0 -335 0 *
Ve
1.00000503386432e-07
-38.0535743633555 15.2618962836399 0
0 0

0101101
*
Ed
 1e-07 1 1 0
1  17 0 4.71238898038469 5.79025108592465
2  42 20 0 4.71238898038469 5.79025108592465
2  43 18 0 4.71238898038469 5.79025108592465
2  44 1 0 4.71238898038469 5.79025108592465
0

0101000
+333 0 -331 0 *
Ve
1.00000040194367e-07
-30.3706778682188 27.5430921616452 0
0 0

0101101
*
Ed
 1e-07 1 1 0
1  1 0 2.40497981574766 2.76016988031087
2  1 2 0 2.40497981574766 2.76016988031087
2  2 1 0 2.40497981574766 2.76016988031087
0

0101000
+329 0 -331 0 *
Ve
1.00000035170071e-07
-27.5430921616452 30.3706778682188 0
0 0

0101101
*
Ed
 1e-07 1 1 0
1  18 0 1.59518898957255 4.68799631760703
2  45 1 0 1.59518898957255 4.68799631760703
2  46 21 0 1.59518898957255 4.68799631760703
0

0101000
+329 0 -327 0 *
Ve
1.00000504963606e-07
-15.2618962836398 38.0535743633555 0
0 0

0101101
*
Ed
 1e-07 1 1 0
1  1 0 1.95221910007382 2.30740916463703
2  1 2 0 1.95221910007382 2.30740916463703
2  2 1 0 1.95221910007382 2.30740916463703
0

0101000
+325 0 -327 0 *
Ve
1e-07
-13.5 37 0
0 0

0101101
*
Ed
 1e-07 1 1 0
1  19 0 1.5707963267949 2.64865843233486
2  47 22 0 1.5707963267949 2.64865843233486
2  48 23 0 1.5707963267949 2.64865843233486
2  49 1 0 1.5707963267949 2.64865843233486
0

0101000
+323 0 -325 0 *
Ve
1e-07
13.5 37 0
0 0

0101101
*
Ed
 1e-07 1 1 0
1  20 0 2 29
2  50 24 0 2 29
2  51 23 0 2 29
2  52 1 0 2 29
0

0101000
+321 0 -323 0 *
Ve
1.00000503386432e-07
15.2618962836398 38.0535743633555 0
0 0

0101101
*
Ed
 1e-07 1 1 0
1  21 0 4.71238898038469 5.79025108592464
2  53 25 0 4.71238898038469 5.79025108592464
2  54 23 0 4.71238898038469 5.79025108592464
2  55 1 0 4.71238898038469 5.79025108592464
0

0101000
+321 0 -319 0 *
Ve
1.00000128144171e-07
27.5430921616454 30.3706778682187 0
0 0

0101101
*
Ed
 1e-07 1 1 0
1  1 0 0.834183488952756 1.18937355351597
2  1 2 0 0.834183488952756 1.18937355351597
2  2 1 0 0.834183488952756 1.18937355351597
0

0101000
+317 0 -319 0 *
Ve
1.00000125707842e-07
30.3706778682187 27.5430921616453 0
0 0

0101101
*
Ed
 1e-07 1 1 0
1  22 0 1.59518898957255 4.68799631760703
2  56 1 0 1.59518898957255 4.68799631760703
2  57 26 0 1.59518898957255 4.68799631760703
0

0101000
+317 0 -315 0 *
Ed
 1e-07 1 1 0
1  1 0 0.381422773278924 0.736612837842141
2  1 2 0 0.381422773278924 0.736612837842141
2  2 1 0 0.381422773278924 0.736612837842141
0

0101000
+373 0 -315 0 *
Wi

0101100
-376 0 +352 0 -350 0 +348 0 +346 0 +344 0 -342 0 +340 0 -338 0 +336 0 
+334 0 +332 0 -330 0 +328 0 -326 0 +324 0 +322 0 +320 0 -318 0 +316 0 
-314 0 +313 0 +372 0 +374 0 *
Ve
1e-07
20 -4.89858719658941e-15 0
0 0

0101101
*
Ed
 1e-07 1 1 0
1  23 0 0 6.28318530717959
2  58 27 0 0 6.28318530717959
2  59 28 0 0 6.28318530717959
2  60 1 0 0 6.28318530717959
0

0101000
+311 0 -311 0 *
Wi

0101100
-310 0 *
Fa
0  1e-07 1 0

0101000
+312 0 +309 0 *
Ve
1.00000501527544e-07
38.0535743633555 15.2618962836398 12
0 0

0101101
*
Ed
 1e-07 1 1 0
1  24 0 0 12
2  61 2 0 0 12
2  62 6 0 0 12
0

0101000
+373 0 -307 0 *
Ve
1e-07
39 15.5 12
0 0

0101101
*
Ed
 1e-07 1 1 0
1  25 0 2.64865843233486 3.14159265358979
2  63 6 0 2.64865843233486 3.14159265358979
2  64 29 0 2.64865843233486 3.14159265358979
0

0101000
+307 0 -305 0 *
Ed
 1e-07 1 1 0
1  26 0 0 12
2  65 6 0 0 12
4 G1 6 0 7 0
2  66 7 0 0 12
0

0101000
+368 0 -305 0 *
Wi

0101100
-306 0 -304 0 +303 0 +367 0 *
Fa
0  1e-07 6 0

0101000
+302 0 *
Ve
1e-07
72.98 15.5 12
0 0

0101101
*
Ed
 1e-07 1 1 0
1  27 0 0 12
2  67 8 0 0 12
4 G1 7 0 8 0
2  68 7 0 0 12
0

0101000
+366 0 -300 0 *
Ed
 1e-07 1 1 0
1  28 0 2 35.98
2  69 29 0 2 35.98
2  70 7 0 2 35.98
0

0101000
+305 0 -300 0 *
Wi

0101100
-365 0 +303 0 -299 0 +298 0 *
Fa
0  1e-07 7 0

0101000
+297 0 *
Ve
1e-07
74.98 13.5 12
0 0

0101101
*
Ed
 1e-07 1 1 0
1  29 0 0 12
2  71 8 0 0 12
4 G1 8 0 30 0
0

0101000
+364 0 -295 0 *
Ed
 1e-07 1 1 0
1  30 0 1.5707963267949 3.14159265358979
2  72 8 0 1.5707963267949 3.14159265358979
2  73 29 0 1.5707963267949 3.14159265358979
0

0101000
+295 0 -300 0 *
Wi

0101100
+363 0 -294 0 +299 0 -293 0 *
Fa
0  1e-07 8 0

0101000
+292 0 *
Ve
1e-07
74.98 -13.5 12
0 0

0101101
*
Ed
 1e-07 1 1 0
1  31 0 2 29
2  74 29 0 2 29
0

0101000
+290 0 -295 0 *
Ed
 1e-07 1 1 0
1  32 0 0 12
2  75 9 0 0 12
4 G1 9 0 30 0
0

0101000
+362 0 -290 0 *
Wi

0101100
-289 0 -288 0 +294 0 +361 0 *
Fa
0  1e-07 30 0

0101000
+287 0 *
Ve
1e-07
72.98 -15.5 12
0 0

0101101
*
Ed
 1e-07 1 1 0
1  33 0 0 12
2  76 9 0 0 12
4 G1 10 0 9 0
2  77 10 0 0 12
0

0101000
+360 0 -285 0 *
Ed
 1e-07 1 1 0
1  34 0 4.71238898038469 6.28318530717959
2  78 9 0 4.71238898038469 6.28318530717959
2  79 29 0 4.71238898038469 6.28318530717959
0

0101000
+290 0 -285 0 *
Wi

0101100
+359 0 -288 0 +284 0 -283 0 *
Fa
0  1e-07 9 0

0101000
+282 0 *
Ve
1e-07
39 -15.5 12
0 0

0101101
*
Ed
 1e-07 1 1 0
1  35 0 0 12
2  80 4 0 0 12
4 G1 4 0 10 0
2  81 10 0 0 12
0

0101000
+358 0 -280 0 *
Ed
 1e-07 1 1 0
1  36 0 2 35.98
2  82 29 0 2 35.98
2  83 10 0 2 35.98
0

0101000
+280 0 -285 0 *
Wi

0101100
-357 0 +279 0 -284 0 +278 0 *
Fa
0  1e-07 10 0

0101000
+277 0 *
Ve
1.00000484590667e-07
38.0535743633555 -15.2618962836398 12
0 0

0101101
*
Ed
 1e-07 1 1 0
1  37 0 0 12
2  84 2 0 0 12
2  85 4 0 0 12
0

0101000
+380 0 -275 0 *
Ed
 1e-07 1 1 0
1  38 0 5.79025108592464 6.28318530717959
2  86 4 0 5.79025108592464 6.28318530717959
2  87 29 0 5.79025108592464 6.28318530717959
0

0101000
+275 0 -280 0 *
Wi

0101100
-274 0 -273 0 +279 0 +356 0 *
Fa
0  1e-07 4 0

0101000
+272 0 *
Ve
1.00000065508803e-07
30.3706778682188 -27.5430921616453 12
0 0

0101101
*
Ed
 1e-07 1 1 0
1  39 0 5.54657246933745 5.90176253390066
2  88 2 0 5.54657246933745 5.90176253390066
2  89 31 0 5.54657246933745 5.90176253390066
0

0101000
+270 0 -275 0 *
Ed
 1e-07 1 1 0
1  40 0 0 12
2  90 2 0 0 12
2  91 11 0 0 12
0

0101000
+353 0 -270 0 *
Wi

0101100
-269 0 +274 0 +352 0 -268 0 *
Fa
0  1e-07 2 0

0101000
+267 0 *
Ve
1.00000065508803e-07
27.5430921616453 -30.3706778682188 12
0 0

0101101
*
Ed
 1e-07 1 1 0
1  41 0 1.59518898957255 4.68799631760704
2  92 31 0 1.59518898957255 4.68799631760704
2  93 11 0 1.59518898957255 4.68799631760704
0

0101000
+270 0 -265 0 *
Ed
 1e-07 1 1 0
1  42 0 0 12
2  94 2 0 0 12
2  95 11 0 0 12
0

0101000
+351 0 -265 0 *
Wi

0101100
-268 0 -264 0 +263 0 +350 0 *
Fa
0  1e-07 11 0

0101000
+262 0 *
Ve
1.00000460223856e-07
15.2618962836398 -38.0535743633555 12
0 0

0101101
*
Ed
 1e-07 1 1 0
1  39 0 5.09381175366361 5.44900181822683
2  88 2 0 5.09381175366361 5.44900181822683
2  89 31 0 5.09381175366361 5.44900181822683
0

0101000
+260 0 -265 0 *
Ed
 1e-07 1 1 0
1  43 0 0 12
2  96 2 0 0 12
2  97 12 0 0 12
0

0101000
+349 0 -260 0 *
Wi

0101100
-259 0 +263 0 +348 0 -258 0 *
Fa
0  1e-07 2 0

0101000
+257 0 *
Ed
 1e-07 1 1 0
1  1 0 4.33096620710577 5.09381175366361
2  1 2 0 4.33096620710577 5.09381175366361
2  2 1 0 4.33096620710577 5.09381175366361
2  98 13 0 4.33096620710577 5.09381175366361
0

0101000
+343 0 -349 0 *
Wi

0101100
+255 0 +342 0 -344 0 -346 0 *
Fa
0  1e-07 1 0

0101000
+254 0 *
Ve
1.00000032754402e-07
-27.5430921616453 -30.3706778682188 12
0 0

0101101
*
Ve
1.00000477770647e-07
-15.2618962836398 -38.0535743633555 12
0 0

0101101
*
Ed
 1e-07 1 1 0
1  39 0 3.97577614254255 4.33096620710577
2  88 2 0 3.97577614254255 4.33096620710577
2  89 31 0 3.97577614254255 4.33096620710577
0

0101000
+252 0 -251 0 *
Ed
 1e-07 1 1 0
1  44 0 0 12
2  99 2 0 0 12
2  100 15 0 0 12
0

0101000
+343 0 -251 0 *
Ed
 1e-07 1 1 0
1  45 0 0 12
2  101 2 0 0 12
2  102 16 0 0 12
0

0101000
+341 0 -252 0 *
Wi

0101100
-250 0 +249 0 +340 0 -248 0 *
Fa
0  1e-07 2 0

0101000
+247 0 *
Ve
1.00000032754402e-07
-30.3706778682188 -27.5430921616453 12
0 0

0101101
*
Ed
 1e-07 1 1 0
1  46 0 1.59518898957255 4.68799631760703
2  103 31 0 1.59518898957255 4.68799631760703
2  104 16 0 1.59518898957255 4.68799631760703
0

0101000
+252 0 -245 0 *
Ed
 1e-07 1 1 0
1  47 0 0 12
2  105 2 0 0 12
2  106 16 0 0 12
0

0101000
+339 0 -245 0 *
Wi

0101100
-248 0 -244 0 +243 0 +338 0 *
Fa
0  1e-07 16 0

0101000
+242 0 *
Ve
1.00000496821318e-07
-38.0535743633555 -15.2618962836398 12
0 0

0101101
*
Ed
 1e-07 1 1 0
1  39 0 3.52301542686872 3.87820549143193
2  88 2 0 3.52301542686872 3.87820549143193
2  89 31 0 3.52301542686872 3.87820549143193
0

0101000
+240 0 -245 0 *
Ed
 1e-07 1 1 0
1  48 0 0 12
2  107 2 0 0 12
2  108 17 0 0 12
0

0101000
+337 0 -240 0 *
Wi

0101100
-239 0 +243 0 +336 0 -238 0 *
Fa
0  1e-07 2 0

0101000
+237 0 *
Ed
 1e-07 1 1 0
1  1 0 2.76016988031087 3.52301542686872
2  1 2 0 2.76016988031087 3.52301542686872
2  2 1 0 2.76016988031087 3.52301542686872
2  109 18 0 2.76016988031087 3.52301542686872
0

0101000
+331 0 -337 0 *
Wi

0101100
+235 0 +330 0 -332 0 -334 0 *
Fa
0  1e-07 1 0

0101000
+234 0 *
Ve
1.00000040194367e-07
-30.3706778682188 27.5430921616452 12
0 0

0101101
*
Ve
1.00000503386432e-07
-38.0535743633555 15.2618962836399 12
0 0

0101101
*
Ed
 1e-07 1 1 0
1  39 0 2.40497981574766 2.76016988031087
2  88 2 0 2.40497981574766 2.76016988031087
2  89 31 0 2.40497981574766 2.76016988031087
0

0101000
+232 0 -231 0 *
Ed
 1e-07 1 1 0
1  49 0 0 12
2  110 2 0 0 12
2  111 20 0 0 12
0

0101000
+331 0 -231 0 *
Ed
 1e-07 1 1 0
1  50 0 0 12
2  112 2 0 0 12
2  113 21 0 0 12
0

0101000
+329 0 -232 0 *
Wi

0101100
-230 0 +229 0 +328 0 -228 0 *
Fa
0  1e-07 2 0

0101000
+227 0 *
Ve
1.00000035170071e-07
-27.5430921616452 30.3706778682188 12
0 0

0101101
*
Ed
 1e-07 1 1 0
1  51 0 1.59518898957255 4.68799631760703
2  114 31 0 1.59518898957255 4.68799631760703
2  115 21 0 1.59518898957255 4.68799631760703
0

0101000
+232 0 -225 0 *
Ed
 1e-07 1 1 0
1  52 0 0 12
2  116 2 0 0 12
2  117 21 0 0 12
0

0101000
+327 0 -225 0 *
Wi

0101100
-228 0 -224 0 +223 0 +326 0 *
Fa
0  1e-07 21 0

0101000
+222 0 *
Ve
1.00000504963606e-07
-15.2618962836398 38.0535743633555 12
0 0

0101101
*
Ed
 1e-07 1 1 0
1  39 0 1.95221910007382 2.30740916463703
2  88 2 0 1.95221910007382 2.30740916463703
2  89 31 0 1.95221910007382 2.30740916463703
0

0101000
+220 0 -225 0 *
Ed
 1e-07 1 1 0
1  53 0 0 12
2  118 2 0 0 12
2  119 22 0 0 12
0

0101000
+325 0 -220 0 *
Wi

0101100
-219 0 +223 0 +324 0 -218 0 *
Fa
0  1e-07 2 0

0101000
+217 0 *
Ed
 1e-07 1 1 0
1  1 0 1.18937355351597 1.95221910007382
2  1 2 0 1.18937355351597 1.95221910007382
2  2 1 0 1.18937355351597 1.95221910007382
2  120 23 0 1.18937355351597 1.95221910007382
0

0101000
+319 0 -325 0 *
Wi

0101100
+318 0 -320 0 -322 0 +215 0 *
Fa
0  1e-07 1 0

0101000
+214 0 *
Ve
1.00000128144171e-07
27.5430921616454 30.3706778682187 12
0 0

0101101
*
Ve
1.00000503386432e-07
15.2618962836398 38.0535743633555 12
0 0

0101101
*
Ed
 1e-07 1 1 0
1  39 0 0.834183488952756 1.18937355351597
2  88 2 0 0.834183488952756 1.18937355351597
2  89 31 0 0.834183488952756 1.18937355351597
0

0101000
+212 0 -211 0 *
Ed
 1e-07 1 1 0
1  54 0 0 12
2  121 2 0 0 12
2  122 25 0 0 12
0

0101000
+319 0 -211 0 *
Ed
 1e-07 1 1 0
1  55 0 0 12
2  123 2 0 0 12
2  124 26 0 0 12
0

0101000
+317 0 -212 0 *
Wi

0101100
-210 0 +209 0 +316 0 -208 0 *
Fa
0  1e-07 2 0

0101000
+207 0 *
Ve
1.00000125707842e-07
30.3706778682187 27.5430921616453 12
0 0

0101101
*
Ed
 1e-07 1 1 0
1  56 0 1.59518898957255 4.68799631760703
2  125 31 0 1.59518898957255 4.68799631760703
2  126 26 0 1.59518898957255 4.68799631760703
0

0101000
+212 0 -205 0 *
Ed
 1e-07 1 1 0
1  57 0 0 12
2  127 2 0 0 12
2  128 26 0 0 12
0

0101000
+315 0 -205 0 *
Wi

0101100
-208 0 -204 0 +203 0 +314 0 *
Fa
0  1e-07 26 0

0101000
+202 0 *
Ed
 1e-07 1 1 0
1  39 0 0.381422773278924 0.736612837842141
2  88 2 0 0.381422773278924 0.736612837842141
2  89 31 0 0.381422773278924 0.736612837842141
0

0101000
+307 0 -205 0 *
Wi

0101100
-200 0 +203 0 +313 0 -306 0 *
Fa
0  1e-07 2 0

0101000
+199 0 *
Ve
1e-07
20 -4.89858719658941e-15 12
0 0

0101101
*
Ed
 1e-07 1 1 0
1  58 0 0 6.28318530717959
2  129 27 0 0 6.28318530717959
2  130 32 0 0 6.28318530717959
2  131 31 0 0 6.28318530717959
0

0101000
+197 0 -197 0 *
Ed
 1e-07 1 1 0
1  59 0 0 12
3  132 133CN 27 0 0 12
0

0101000
-197 0 +311 0 *
Wi

0101100
-196 0 +195 0 +310 0 -195 0 *
Fa
0  1e-07 27 0

0101000
+194 0 *
Ve
1e-07
41 -1.00421037530083e-14 12
0 0

0101101
*
Ed
 1e-07 1 1 0
1  39 0 5.90176253390066 6.28318530717959
2  88 2 0 5.90176253390066 6.28318530717959
2  89 31 0 5.90176253390066 6.28318530717959
2  134 29 0 5.90176253390066 6.28318530717959
0

0101000
+275 0 -192 0 *
Ed
 1e-07 1 1 0
1  39 0 0 0.381422773278924
2  88 2 0 0 0.381422773278924
2  89 31 0 0 0.381422773278924
2  135 29 0 0 0.381422773278924
0

0101000
+192 0 -307 0 *
Wi

0101100
-191 0 -190 0 -304 0 -298 0 +293 0 +289 0 -283 0 +278 0 +273 0 *
Fa
0  1e-07 29 0

0101000
+189 0 *
Ve
1e-07
37 -13.5 12
0 0

0101101
*
Ed
 1e-07 1 1 0
1  38 0 4.71238898038469 5.79025108592464
2  86 4 0 4.71238898038469 5.79025108592464
2  87 29 0 4.71238898038469 5.79025108592464
2  136 31 0 4.71238898038469 5.79025108592464
0

0101000
+187 0 -275 0 *
Ve
1e-07
13.5 -37 12
0 0

0101101
*
Ed
 1e-07 1 1 0
1  60 0 1.5707963267949 2.64865843233485
2  137 12 0 1.5707963267949 2.64865843233485
2  138 33 0 1.5707963267949 2.64865843233485
2  139 31 0 1.5707963267949 2.64865843233485
0

0101000
+185 0 -260 0 *
Ve
1e-07
-13.5 -37 12
0 0

0101101
*
Ed
 1e-07 1 1 0
1  61 0 2 29
2  140 14 0 2 29
2  141 33 0 2 29
2  142 31 0 2 29
0

0101000
+183 0 -185 0 *
Ed
 1e-07 1 1 0
1  62 0 4.71238898038469 5.79025108592464
2  143 15 0 4.71238898038469 5.79025108592464
2  144 33 0 4.71238898038469 5.79025108592464
2  145 31 0 4.71238898038469 5.79025108592464
0

0101000
+183 0 -251 0 *
Ve
1e-07
-37 -13.5 12
0 0

0101101
*
Ed
 1e-07 1 1 0
1  63 0 1.5707963267949 2.64865843233485
2  146 17 0 1.5707963267949 2.64865843233485
2  147 34 0 1.5707963267949 2.64865843233485
2  148 31 0 1.5707963267949 2.64865843233485
0

0101000
+180 0 -240 0 *
Ve
1e-07
-37 13.5 12
0 0

0101101
*
Ed
 1e-07 1 1 0
1  64 0 2 29
2  149 19 0 2 29
2  150 34 0 2 29
2  151 31 0 2 29
0

0101000
+178 0 -180 0 *
Ed
 1e-07 1 1 0
1  65 0 4.71238898038469 5.79025108592465
2  152 20 0 4.71238898038469 5.79025108592465
2  153 34 0 4.71238898038469 5.79025108592465
2  154 31 0 4.71238898038469 5.79025108592465
0

0101000
+178 0 -231 0 *
Ve
1e-07
-13.5 37 12
0 0

0101101
*
Ed
 1e-07 1 1 0
1  66 0 1.5707963267949 2.64865843233486
2  155 22 0 1.5707963267949 2.64865843233486
2  156 35 0 1.5707963267949 2.64865843233486
2  157 31 0 1.5707963267949 2.64865843233486
0

0101000
+175 0 -220 0 *
Ve
1e-07
13.5 37 12
0 0

0101101
*
Ed
 1e-07 1 1 0
1  67 0 2 29
2  158 24 0 2 29
2  159 35 0 2 29
2  160 31 0 2 29
0

0101000
+173 0 -175 0 *
Ed
 1e-07 1 1 0
1  68 0 4.71238898038469 5.79025108592464
2  161 25 0 4.71238898038469 5.79025108592464
2  162 35 0 4.71238898038469 5.79025108592464
2  163 31 0 4.71238898038469 5.79025108592464
0

0101000
+173 0 -211 0 *
Ve
1e-07
37 13.5 12
0 0

0101101
*
Ed
 1e-07 1 1 0
1  25 0 1.5707963267949 2.64865843233486
2  63 6 0 1.5707963267949 2.64865843233486
2  64 29 0 1.5707963267949 2.64865843233486
2  164 31 0 1.5707963267949 2.64865843233486
0

0101000
+170 0 -307 0 *
Ed
 1e-07 1 1 0
1  69 0 2 29
2  165 29 0 2 29
2  166 5 0 2 29
2  167 31 0 2 29
0

0101000
+187 0 -170 0 *
Wi

0101100
-186 0 +269 0 -264 0 +259 0 +184 0 +182 0 -181 0 +250 0 -244 0 +239 0 
+179 0 +177 0 -176 0 +230 0 -224 0 +219 0 +174 0 +172 0 -171 0 +210 0 
-204 0 +200 0 +169 0 +168 0 *
Wi

0101100
-196 0 *
Fa
0  1e-07 31 0

0101000
+167 0 +166 0 *
Ve
1e-07
15.5 -39 12
0 0

0101101
*
Ed
 1e-07 1 1 0
1  60 0 2.64865843233485 3.14159265358979
2  137 12 0 2.64865843233485 3.14159265358979
2  138 33 0 2.64865843233485 3.14159265358979
0

0101000
+260 0 -164 0 *
Ve
1e-07
15.5 -39 0
0 0

0101101
*
Ed
 1e-07 1 1 0
1  70 0 0 12
2  168 12 0 0 12
4 G1 12 0 36 0
2  169 36 0 0 12
0

0101000
+162 0 -164 0 *
Ed
 1e-07 1 1 0
1  11 0 2.64865843233485 3.14159265358979
2  25 12 0 2.64865843233485 3.14159265358979
2  26 13 0 2.64865843233485 3.14159265358979
0

0101000
+349 0 -162 0 *
Wi

0101100
-258 0 -163 0 +161 0 +160 0 *
Fa
0  1e-07 12 0

0101000
+159 0 *
Ve
1e-07
15.5 -72.98 0
0 0

0101101
*
Ed
 1e-07 1 1 0
1  71 0 2 35.98
2  170 13 0 2 35.98
2  171 36 0 2 35.98
0

0101000
+162 0 -157 0 *
Ve
1e-07
13.5 -74.98 0
0 0

0101101
*
Ed
 1e-07 1 1 0
1  72 0 1.5707963267949 3.14159265358979
2  172 37 0 1.5707963267949 3.14159265358979
2  173 13 0 1.5707963267949 3.14159265358979
0

0101000
+155 0 -157 0 *
Ve
1e-07
-13.5 -74.98 0
0 0

0101101
*
Ed
 1e-07 1 1 0
1  73 0 2 29
2  174 13 0 2 29
0

0101000
+153 0 -155 0 *
Ve
1e-07
-15.5 -72.98 0
0 0

0101101
*
Ed
 1e-07 1 1 0
1  74 0 4.71238898038469 6.28318530717959
2  175 38 0 4.71238898038469 6.28318530717959
2  176 13 0 4.71238898038469 6.28318530717959
0

0101000
+153 0 -151 0 *
Ve
1e-07
-15.5 -39 0
0 0

0101101
*
Ed
 1e-07 1 1 0
1  75 0 2 35.98
2  177 13 0 2 35.98
2  178 39 0 2 35.98
0

0101000
+149 0 -151 0 *
Ed
 1e-07 1 1 0
1  13 0 5.79025108592464 6.28318530717959
2  31 15 0 5.79025108592464 6.28318530717959
2  32 13 0 5.79025108592464 6.28318530717959
0

0101000
+343 0 -149 0 *
Wi

0101100
-255 0 -160 0 -156 0 +154 0 +152 0 -150 0 +148 0 +147 0 *
Fa
0  1e-07 13 0

0101000
+146 0 *
Ve
1e-07
-15.5 -39 12
0 0

0101101
*
Ed
 1e-07 1 1 0
1  62 0 5.79025108592464 6.28318530717959
2  143 15 0 5.79025108592464 6.28318530717959
2  144 33 0 5.79025108592464 6.28318530717959
0

0101000
+251 0 -144 0 *
Ed
 1e-07 1 1 0
1  76 0 0 12
2  179 15 0 0 12
4 G1 15 0 39 0
2  180 39 0 0 12
0

0101000
+149 0 -144 0 *
Wi

0101100
-249 0 -143 0 +142 0 +147 0 *
Fa
0  1e-07 15 0

0101000
+141 0 *
Ve
1e-07
-39 -15.5 12
0 0

0101101
*
Ed
 1e-07 1 1 0
1  63 0 2.64865843233485 3.14159265358979
2  146 17 0 2.64865843233485 3.14159265358979
2  147 34 0 2.64865843233485 3.14159265358979
0

0101000
+240 0 -139 0 *
Ve
1e-07
-39 -15.5 0
0 0

0101101
*
Ed
 1e-07 1 1 0
1  77 0 0 12
2  181 17 0 0 12
4 G1 17 0 40 0
2  182 40 0 0 12
0

0101000
+137 0 -139 0 *
Ed
 1e-07 1 1 0
1  15 0 2.64865843233485 3.14159265358979
2  36 17 0 2.64865843233485 3.14159265358979
2  37 18 0 2.64865843233485 3.14159265358979
0

0101000
+337 0 -137 0 *
Wi

0101100
-238 0 -138 0 +136 0 +135 0 *
Fa
0  1e-07 17 0

0101000
+134 0 *
Ve
1e-07
-72.98 -15.5 0
0 0

0101101
*
Ed
 1e-07 1 1 0
1  78 0 2 35.98
2  183 18 0 2 35.98
2  184 40 0 2 35.98
0

0101000
+137 0 -132 0 *
Ve
1e-07
-74.98 -13.5 0
0 0

0101101
*
Ed
 1e-07 1 1 0
1  79 0 1.5707963267949 3.14159265358979
2  185 41 0 1.5707963267949 3.14159265358979
2  186 18 0 1.5707963267949 3.14159265358979
0

0101000
+130 0 -132 0 *
Ve
1e-07
-74.98 13.5 0
0 0

0101101
*
Ed
 1e-07 1 1 0
1  80 0 2 29
2  187 18 0 2 29
0

0101000
+128 0 -130 0 *
Ve
1e-07
-72.98 15.5 0
0 0

0101101
*
Ed
 1e-07 1 1 0
1  81 0 4.71238898038469 6.28318530717959
2  188 42 0 4.71238898038469 6.28318530717959
2  189 18 0 4.71238898038469 6.28318530717959
0

0101000
+128 0 -126 0 *
Ve
1e-07
-39 15.5 0
0 0

0101101
*
Ed
 1e-07 1 1 0
1  82 0 2 35.98
2  190 18 0 2 35.98
2  191 43 0 2 35.98
0

0101000
+124 0 -126 0 *
Ed
 1e-07 1 1 0
1  17 0 5.79025108592465 6.28318530717959
2  42 20 0 5.79025108592465 6.28318530717959
2  43 18 0 5.79025108592465 6.28318530717959
0

0101000
+331 0 -124 0 *
Wi

0101100
-235 0 -135 0 -131 0 +129 0 +127 0 -125 0 +123 0 +122 0 *
Fa
0  1e-07 18 0

0101000
+121 0 *
Ve
1e-07
-39 15.5 12
0 0

0101101
*
Ed
 1e-07 1 1 0
1  65 0 5.79025108592465 6.28318530717959
2  152 20 0 5.79025108592465 6.28318530717959
2  153 34 0 5.79025108592465 6.28318530717959
0

0101000
+231 0 -119 0 *
Ed
 1e-07 1 1 0
1  83 0 0 12
2  192 20 0 0 12
4 G1 20 0 43 0
2  193 43 0 0 12
0

0101000
+124 0 -119 0 *
Wi

0101100
-229 0 -118 0 +117 0 +122 0 *
Fa
0  1e-07 20 0

0101000
+116 0 *
Ve
1e-07
-15.5 39 12
0 0

0101101
*
Ed
 1e-07 1 1 0
1  66 0 2.64865843233486 3.14159265358979
2  155 22 0 2.64865843233486 3.14159265358979
2  156 35 0 2.64865843233486 3.14159265358979
0

0101000
+220 0 -114 0 *
Ve
1e-07
-15.5 39 0
0 0

0101101
*
Ed
 1e-07 1 1 0
1  84 0 0 12
2  194 22 0 0 12
4 G1 22 0 44 0
2  195 44 0 0 12
0

0101000
+112 0 -114 0 *
Ed
 1e-07 1 1 0
1  19 0 2.64865843233486 3.14159265358979
2  47 22 0 2.64865843233486 3.14159265358979
2  48 23 0 2.64865843233486 3.14159265358979
0

0101000
+325 0 -112 0 *
Wi

0101100
-218 0 -113 0 +111 0 +110 0 *
Fa
0  1e-07 22 0

0101000
+109 0 *
Ve
1e-07
-15.5 72.98 0
0 0

0101101
*
Ed
 1e-07 1 1 0
1  85 0 2 35.98
2  196 23 0 2 35.98
2  197 44 0 2 35.98
0

0101000
+112 0 -107 0 *
Ve
1e-07
-13.5 74.98 0
0 0

0101101
*
Ed
 1e-07 1 1 0
1  86 0 1.5707963267949 3.14159265358979
2  198 45 0 1.5707963267949 3.14159265358979
2  199 23 0 1.5707963267949 3.14159265358979
0

0101000
+105 0 -107 0 *
Ve
1e-07
13.5 74.98 0
0 0

0101101
*
Ed
 1e-07 1 1 0
1  87 0 2 29
2  200 23 0 2 29
0

0101000
+103 0 -105 0 *
Ve
1e-07
15.5 72.98 0
0 0

0101101
*
Ed
 1e-07 1 1 0
1  88 0 4.71238898038469 6.28318530717959
2  201 46 0 4.71238898038469 6.28318530717959
2  202 23 0 4.71238898038469 6.28318530717959
0

0101000
+103 0 -101 0 *
Ve
1e-07
15.5 39 0
0 0

0101101
*
Ed
 1e-07 1 1 0
1  89 0 2 35.98
2  203 23 0 2 35.98
2  204 47 0 2 35.98
0

0101000
+99 0 -101 0 *
Ed
 1e-07 1 1 0
1  21 0 5.79025108592464 6.28318530717959
2  53 25 0 5.79025108592464 6.28318530717959
2  54 23 0 5.79025108592464 6.28318530717959
0

0101000
+319 0 -99 0 *
Wi

0101100
-215 0 -110 0 -106 0 +104 0 +102 0 -100 0 +98 0 +97 0 *
Fa
0  1e-07 23 0

0101000
+96 0 *
Ve
1e-07
15.5 39 12
0 0

0101101
*
Ed
 1e-07 1 1 0
1  68 0 5.79025108592464 6.28318530717959
2  161 25 0 5.79025108592464 6.28318530717959
2  162 35 0 5.79025108592464 6.28318530717959
0

0101000
+211 0 -94 0 *
Ed
 1e-07 1 1 0
1  90 0 0 12
2  205 25 0 0 12
4 G1 25 0 47 0
2  206 47 0 0 12
0

0101000
+99 0 -94 0 *
Wi

0101100
-209 0 -93 0 +92 0 +97 0 *
Fa
0  1e-07 25 0

0101000
+91 0 *
Wi

0101100
+191 0 +186 0 -168 0 -169 0 +190 0 *
Fa
0  1e-07 31 0

0101000
+89 0 *
Ed
 1e-07 1 1 0
1  39 0 4.33096620710577 5.09381175366361
2  88 2 0 4.33096620710577 5.09381175366361
2  89 31 0 4.33096620710577 5.09381175366361
2  207 33 0 4.33096620710577 5.09381175366361
0

0101000
+251 0 -260 0 *
Wi

0101100
+87 0 +181 0 -182 0 -184 0 *
Fa
0  1e-07 31 0

0101000
+86 0 *
Ed
 1e-07 1 1 0
1  39 0 2.76016988031087 3.52301542686872
2  88 2 0 2.76016988031087 3.52301542686872
2  89 31 0 2.76016988031087 3.52301542686872
2  208 34 0 2.76016988031087 3.52301542686872
0

0101000
+231 0 -240 0 *
Wi

0101100
+84 0 +176 0 -177 0 -179 0 *
Fa
0  1e-07 31 0

0101000
+83 0 *
Ed
 1e-07 1 1 0
1  39 0 1.18937355351597 1.95221910007382
2  88 2 0 1.18937355351597 1.95221910007382
2  89 31 0 1.18937355351597 1.95221910007382
2  209 35 0 1.18937355351597 1.95221910007382
0

0101000
+211 0 -220 0 *
Wi

0101100
+171 0 -172 0 -174 0 +81 0 *
Fa
0  1e-07 31 0

0101000
+80 0 *
Ve
1e-07
15.5 -72.98 12
0 0

0101101
*
Ed
 1e-07 1 1 0
1  91 0 2 35.98
2  210 36 0 2 35.98
2  211 33 0 2 35.98
0

0101000
+164 0 -78 0 *
Ve
1e-07
13.5 -74.98 12
0 0

0101101
*
Ed
 1e-07 1 1 0
1  92 0 1.5707963267949 3.14159265358979
2  212 37 0 1.5707963267949 3.14159265358979
2  213 33 0 1.5707963267949 3.14159265358979
0

0101000
+76 0 -78 0 *
Ve
1e-07
-13.5 -74.98 12
0 0

0101101
*
Ed
 1e-07 1 1 0
1  93 0 2 29
2  214 33 0 2 29
0

0101000
+74 0 -76 0 *
Ve
1e-07
-15.5 -72.98 12
0 0

0101101
*
Ed
 1e-07 1 1 0
1  94 0 4.71238898038469 6.28318530717959
2  215 38 0 4.71238898038469 6.28318530717959
2  216 33 0 4.71238898038469 6.28318530717959
0

0101000
+74 0 -72 0 *
Ed
 1e-07 1 1 0
1  95 0 2 35.98
2  217 39 0 2 35.98
2  218 33 0 2 35.98
0

0101000
+144 0 -72 0 *
Wi

0101100
-87 0 -163 0 -77 0 +75 0 +73 0 -71 0 +70 0 +143 0 *
Fa
0  1e-07 33 0

0101000
+69 0 *
Ed
 1e-07 1 1 0
1  96 0 0 12
2  219 37 0 0 12
4 G1 36 0 37 0
2  220 36 0 0 12
0

0101000
+157 0 -78 0 *
Wi

0101100
-156 0 +161 0 -67 0 +77 0 *
Fa
0  1e-07 36 0

0101000
+66 0 *
Ed
 1e-07 1 1 0
1  97 0 0 12
2  221 37 0 0 12
4 G1 37 0 48 0
0

0101000
+155 0 -76 0 *
Wi

0101100
+154 0 -64 0 +67 0 -75 0 *
Fa
0  1e-07 37 0

0101000
+63 0 *
Ed
 1e-07 1 1 0
1  98 0 0 12
2  222 38 0 0 12
4 G1 38 0 48 0
0

0101000
+153 0 -74 0 *
Wi

0101100
-73 0 -61 0 +64 0 +152 0 *
Fa
0  1e-07 48 0

0101000
+60 0 *
Ed
 1e-07 1 1 0
1  99 0 0 12
2  223 38 0 0 12
4 G1 39 0 38 0
2  224 39 0 0 12
0

0101000
+151 0 -72 0 *
Wi

0101100
+150 0 -61 0 +58 0 -71 0 *
Fa
0  1e-07 38 0

0101000
+57 0 *
Wi

0101100
-148 0 +142 0 -58 0 +70 0 *
Fa
0  1e-07 39 0

0101000
+55 0 *
Ve
1e-07
-72.98 -15.5 12
0 0

0101101
*
Ed
 1e-07 1 1 0
1  100 0 2 35.98
2  225 40 0 2 35.98
2  226 34 0 2 35.98
0

0101000
+139 0 -53 0 *
Ve
1e-07
-74.98 -13.5 12
0 0

0101101
*
Ed
 1e-07 1 1 0
1  101 0 1.5707963267949 3.14159265358979
2  227 41 0 1.5707963267949 3.14159265358979
2  228 34 0 1.5707963267949 3.14159265358979
0

0101000
+51 0 -53 0 *
Ve
1e-07
-74.98 13.5 12
0 0

0101101
*
Ed
 1e-07 1 1 0
1  102 0 2 29
2  229 34 0 2 29
0

0101000
+49 0 -51 0 *
Ve
1e-07
-72.98 15.5 12
0 0

0101101
*
Ed
 1e-07 1 1 0
1  103 0 4.71238898038469 6.28318530717959
2  230 42 0 4.71238898038469 6.28318530717959
2  231 34 0 4.71238898038469 6.28318530717959
0

0101000
+49 0 -47 0 *
Ed
 1e-07 1 1 0
1  104 0 2 35.98
2  232 43 0 2 35.98
2  233 34 0 2 35.98
0

0101000
+119 0 -47 0 *
Wi

0101100
-84 0 -138 0 -52 0 +50 0 +48 0 -46 0 +45 0 +118 0 *
Fa
0  1e-07 34 0

0101000
+44 0 *
Ed
 1e-07 1 1 0
1  105 0 0 12
2  234 41 0 0 12
4 G1 40 0 41 0
2  235 40 0 0 12
0

0101000
+132 0 -53 0 *
Wi

0101100
-131 0 +136 0 -42 0 +52 0 *
Fa
0  1e-07 40 0

0101000
+41 0 *
Ed
 1e-07 1 1 0
1  106 0 0 12
2  236 41 0 0 12
4 G1 41 0 49 0
0

0101000
+130 0 -51 0 *
Wi

0101100
+129 0 -39 0 +42 0 -50 0 *
Fa
0  1e-07 41 0

0101000
+38 0 *
Ed
 1e-07 1 1 0
1  107 0 0 12
2  237 42 0 0 12
4 G1 42 0 49 0
0

0101000
+128 0 -49 0 *
Wi

0101100
-48 0 -36 0 +39 0 +127 0 *
Fa
0  1e-07 49 0

0101000
+35 0 *
Ed
 1e-07 1 1 0
1  108 0 0 12
2  238 42 0 0 12
4 G1 43 0 42 0
2  239 43 0 0 12
0

0101000
+126 0 -47 0 *
Wi

0101100
+125 0 -36 0 +33 0 -46 0 *
Fa
0  1e-07 42 0

0101000
+32 0 *
Wi

0101100
-123 0 +117 0 -33 0 +45 0 *
Fa
0  1e-07 43 0

0101000
+30 0 *
Ve
1e-07
-15.5 72.98 12
0 0

0101101
*
Ed
 1e-07 1 1 0
1  109 0 2 35.98
2  240 44 0 2 35.98
2  241 35 0 2 35.98
0

0101000
+114 0 -28 0 *
Ve
1e-07
-13.5 74.98 12
0 0

0101101
*
Ed
 1e-07 1 1 0
1  110 0 1.5707963267949 3.14159265358979
2  242 45 0 1.5707963267949 3.14159265358979
2  243 35 0 1.5707963267949 3.14159265358979
0

0101000
+26 0 -28 0 *
Ve
1e-07
13.5 74.98 12
0 0

0101101
*
Ed
 1e-07 1 1 0
1  111 0 2 29
2  244 35 0 2 29
0

0101000
+24 0 -26 0 *
Ve
1e-07
15.5 72.98 12
0 0

0101101
*
Ed
 1e-07 1 1 0
1  112 0 4.71238898038469 6.28318530717959
2  245 46 0 4.71238898038469 6.28318530717959
2  246 35 0 4.71238898038469 6.28318530717959
0

0101000
+24 0 -22 0 *
Ed
 1e-07 1 1 0
1  113 0 2 35.98
2  247 47 0 2 35.98
2  248 35 0 2 35.98
0

0101000
+94 0 -22 0 *
Wi

0101100
-81 0 -113 0 -27 0 +25 0 +23 0 -21 0 +20 0 +93 0 *
Fa
0  1e-07 35 0

0101000
+19 0 *
Ed
 1e-07 1 1 0
1  114 0 0 12
2  249 45 0 0 12
4 G1 44 0 45 0
2  250 44 0 0 12
0

0101000
+107 0 -28 0 *
Wi

0101100
-106 0 +111 0 -17 0 +27 0 *
Fa
0  1e-07 44 0

0101000
+16 0 *
Ed
 1e-07 1 1 0
1  115 0 0 12
2  251 45 0 0 12
4 G1 45 0 50 0
0

0101000
+105 0 -26 0 *
Wi

0101100
+104 0 -14 0 +17 0 -25 0 *
Fa
0  1e-07 45 0

0101000
+13 0 *
Ed
 1e-07 1 1 0
1  116 0 0 12
2  252 46 0 0 12
4 G1 46 0 50 0
0

0101000
+103 0 -24 0 *
Wi

0101100
-23 0 -11 0 +14 0 +102 0 *
Fa
0  1e-07 50 0

0101000
+10 0 *
Ed
 1e-07 1 1 0
1  117 0 0 12
2  253 46 0 0 12
4 G1 47 0 46 0
2  254 47 0 0 12
0

0101000
+101 0 -22 0 *
Wi

0101100
+100 0 -11 0 +8 0 -21 0 *
Fa
0  1e-07 46 0

0101000
+7 0 *
Wi

0101100
-98 0 +92 0 -8 0 +20 0 *
Fa
0  1e-07 47 0

0101000
+5 0 *
Sh

0101100
-369 0 -354 0 -308 0 -301 0 +296 0 +291 0 +286 0 -281 0 -276 0 +271 0 
+266 0 -261 0 +256 0 -253 0 +246 0 -241 0 +236 0 -233 0 +226 0 -221 0 
+216 0 -213 0 +206 0 -201 0 +198 0 -193 0 +188 0 +165 0 -158 0 -145 0 
+140 0 -133 0 -120 0 +115 0 -108 0 -95 0 +90 0 +88 0 +85 0 +82 0 
+79 0 +68 0 +65 0 +62 0 +59 0 -56 0 -54 0 +43 0 +40 0 +37 0 
+34 0 -31 0 -29 0 +18 0 +15 0 +12 0 +9 0 -6 0 -4 0 *
So

0100000
+3 0 *
Co

1100000
+2 0 *

+1 0 