DBRep_DrawableShape

CASCADE Topology V3, (c) Open Cascade
Locations 0
Curve2ds 374
1 0 0 1 0 
2 0 0 1 0 -0 1 41
2 -37 11 1 0 -0 1 41
1 0 0 1 0 
1 0 0 0 1 
1 37 -11 1 0 
1 -4.7123889803846897 0 1 0 
2 2 2 0 -1 1 0 2
2 39 -9 0 -1 1 0 2
1 0 0 0 1 
1 0 0 0 -1 
1 37 -11 0 1 
1 -1.5707963267948966 0 1 0 
2 2 20 0 -1 -1 -0 2
2 39 9 0 -1 -1 -0 2
1 0 22 1 0 
1 0 0 0 1 
1 37 11 1 0 
2 -37 11 1 0 -0 1 41
1 -1.5707963267948966 0 1 0 
2 35.980000000000004 20 0 -1 1 0 2
1 37.980000000000004 0 0 1 
1 -4.7123889803846897 0 1 0 
2 35.980000000000004 2 0 -1 -1 -0 2
2 35.507041555161976 -20.500000000000018 0.86602540378443837 -0.50000000000000044 0.50000000000000044 0.86602540378443837 2
1 0 0.20000000000000001 1 0 
1 3.5527136788005009e-15 22 1 0 
1 0 0 0 1 
1 28.02627944162883 -26.542939940024226 0.50000000000000011 -0.8660254037844386 
1 -1.5707963267948966 0 1 0 
2 2.0000000000000053 19.999999999999996 0 -1 -1 -0 2.0000000000000009
2 27.294228634059952 -29.274990747593108 -0.8660254037844386 -0.50000000000000011 -0.50000000000000011 0.8660254037844386 2.0000000000000009
1 0 0 0 -1 
1 0 0 0 1 
1 8.9737205583711788 -37.542939940024226 0.8660254037844386 0.50000000000000011 
1 -4.7123889803846897 0 1 0 
2 2.000000000000004 1.9999999999999969 0 -1 1 0 1.9999999999999996
2 11.705771365940056 -38.274990747593108 -0.8660254037844386 -0.50000000000000011 0.50000000000000011 -0.8660254037844386 1.9999999999999996
1 0 0 1 0 
1 0 0 0 1 
1 8.9737205583711788 -37.542939940024226 0.50000000000000011 -0.8660254037844386 
2 -9.1038288019262836e-15 -41 -2.2204460492503131e-16 -1 1 -2.2204460492503131e-16 2
1 0 0.20000000000000001 1 0 
1 3.5527136788005009e-15 22.000000000000007 1 0 
1 0 0 0 1 
1 -8.9737205583711948 -37.542939940024233 -0.50000000000000044 -0.86602540378443849 
1 -1.5707963267948966 0 1 0 
2 2.0000000000000018 20.000000000000007 0 -1 -1 -0 1.9999999999999996
2 -11.705771365940072 -38.274990747593108 -0.86602540378443849 0.50000000000000044 0.50000000000000044 0.86602540378443849 1.9999999999999996
1 0 0 0 -1 
1 0 0 0 1 
1 -28.026279441628841 -26.542939940024219 0.86602540378443849 -0.50000000000000044 
1 -4.7123889803846897 0 1 0 
2 1.9999999999999996 2.0000000000000027 0 -1 1 0 2.0000000000000009
2 -27.294228634059962 -29.274990747593097 -0.86602540378443849 0.50000000000000044 -0.50000000000000044 -0.86602540378443849 2.0000000000000009
1 0 0 1 0 
1 0 0 0 1 
1 -28.026279441628841 -26.542939940024219 -0.50000000000000044 -0.86602540378443849 
2 -35.507041555161983 -20.500000000000004 -0.8660254037844386 -0.50000000000000011 0.50000000000000011 -0.8660254037844386 2
1 0 0.20000000000000001 1 0 
1 -2.6942229581241772e-15 22 1 0 
1 0 0 0 1 
1 -37 -10.999999999999995 -1 1.2246467991473532e-16 
1 -1.5707963267948966 0 1 0 
2 1.9999999999999976 20 0 -1 -1 -0 2
2 -39 -8.9999999999999947 1.2246467991473532e-16 1 1 -1.2246467991473532e-16 2
1 0 0 0 -1 
1 0 0 0 1 
1 -37 11.000000000000005 -1.2246467991473532e-16 -1 
1 -4.7123889803846897 0 1 0 
2 1.9999999999999998 2.0000000000000004 0 -1 1 0 2
2 -39 9.0000000000000053 1.2246467991473532e-16 1 -1 1.2246467991473532e-16 2
1 0 0 1 0 
1 0 0 0 1 
1 -37 11.000000000000005 -1 1.2246467991473532e-16 
2 -35.50704155516199 20.499999999999996 -0.86602540378443882 0.49999999999999994 -0.49999999999999994 -0.86602540378443882 2
1 0 0.20000000000000001 1 0 
1 -1.7763568394002505e-15 22.000000000000004 1 0 
1 0 0 0 1 
1 -28.026279441628819 26.542939940024237 -0.49999999999999983 0.86602540378443882 
1 -1.5707963267948966 0 1 0 
2 1.9999999999999938 20.000000000000004 0 -1 -1 -0 2.0000000000000009
2 -27.294228634059941 29.274990747593108 0.86602540378443882 0.49999999999999983 0.49999999999999983 -0.86602540378443882 2.0000000000000009
1 0 0 0 -1 
1 0 0 0 1 
1 -8.9737205583711663 37.542939940024233 -0.86602540378443882 -0.49999999999999983 
1 -4.7123889803846897 0 1 0 
2 1.9999999999999982 2.0000000000000027 0 -1 1 0 2.0000000000000009
2 -11.705771365940045 38.274990747593108 0.86602540378443882 0.49999999999999983 -0.49999999999999983 0.86602540378443882 2.0000000000000009
1 0 0 1 0 
1 0 0 0 1 
1 -8.9737205583711663 37.542939940024233 -0.49999999999999983 0.86602540378443882 
2 4.5519144009631418e-15 41 1.1102230246251565e-16 1 -1 1.1102230246251565e-16 2
1 0 0.20000000000000001 1 0 
1 -3.5527136788005009e-15 22 1 0 
1 0 0 0 1 
1 8.9737205583711788 37.542939940024226 0.50000000000000011 0.8660254037844386 
1 -1.5707963267948966 0 1 0 
2 2.0000000000000018 20.000000000000004 0 -1 -1 -0 1.9999999999999996
2 11.705771365940056 38.274990747593108 0.8660254037844386 -0.50000000000000011 -0.50000000000000011 -0.8660254037844386 1.9999999999999996
1 0 0 0 -1 
1 0 0 0 1 
1 28.02627944162883 26.542939940024226 -0.8660254037844386 0.50000000000000011 
1 -4.7123889803846897 0 1 0 
2 2.0000000000000036 2.0000000000000036 0 -1 1 0 2.0000000000000009
2 27.294228634059952 29.274990747593108 0.8660254037844386 -0.50000000000000011 0.50000000000000011 0.8660254037844386 2.0000000000000009
1 0 0 1 0 
1 0 0 0 1 
1 28.02627944162883 26.542939940024226 0.50000000000000011 0.8660254037844386 
2 35.50704155516199 20.499999999999996 0.86602540378443871 0.49999999999999994 -0.49999999999999994 0.86602540378443871 2
1 0 0.20000000000000001 1 0 
1 0 0 1 0 
2 0 0 1 0 -0 1 20
2 0 0 1 0 -0 1 20
1 1.5707963267948966 0 0 1 
1 0 35.980000000000004 1 0 
1 0 22 1 0 
1 12 0 0 1 
8 -5.9999999999999997e-07 12.0000006
1 0.27162029903717072 0 0 1 
8 -5.9999999999999997e-07 12.0000006
1 0 2.4968353162629953 1 0 
1 0 0 0 1 
1 -1.5707963267948966 12 1 0 
2 35.980000000000004 20 0 -1 1 0 2
1 37.980000000000004 0 0 1 
1 0 0 0 1 
1 1.5707963267948966 0 0 1 
1 0 35.980000000000004 1 0 
1 -4.7123889803846897 12 1 0 
2 35.980000000000004 2 0 -1 -1 -0 2
1 0 0 1 0 
1 12 0 0 1 
8 -5.9999999999999997e-07 12.0000006
1 6.0115650081424157 0 0 1 
8 -5.9999999999999997e-07 12.0000006
1 0 2.4968353162629953 1 0 
1 0 12 1 0 
2 0 0 1 0 -0 1 41
8 -5.9999999999999997e-07 12.0000006
1 5.8083718571365983 0 0 1 
8 -5.9999999999999997e-07 12.0000006
1 1.5951889895725522 0.20000000000000001 0 1 
2 35.507041555161976 -20.500000000000018 0.86602540378443837 -0.50000000000000044 0.50000000000000044 0.86602540378443837 2
1 0 12.199999999999999 1 0 
8 -5.9999999999999997e-07 12.0000006
1 5.7108012060259759 0 0 1 
8 -5.9999999999999997e-07 12.0000006
1 4.6879963176070358 0.20000000000000001 0 1 
8 -5.9999999999999997e-07 12.0000006
1 5.5076080550201594 0 0 1 
8 -5.9999999999999997e-07 12.0000006
1 0 2.4968353162629957 1 0 
2 -37 11 0.50000000000000011 0.8660254037844386 -0.8660254037844386 0.50000000000000011 41
8 -5.9999999999999997e-07 12.0000006
1 4.9643674569458174 0 0 1 
8 -5.9999999999999997e-07 12.0000006
1 0 2.4968353162629975 1 0 
8 -5.9999999999999997e-07 12.0000006
1 4.7611743059400009 0 0 1 
8 -5.9999999999999997e-07 12.0000006
1 1.5951889895725506 0.20000000000000001 0 1 
2 -9.1038288019262836e-15 -41 -2.2204460492503131e-16 -1 1 -2.2204460492503131e-16 2
1 0 12.199999999999999 1 0 
8 -5.9999999999999997e-07 12.0000006
1 4.6636036548293784 0 0 1 
8 -5.9999999999999997e-07 12.0000006
1 4.6879963176070358 0.20000000000000001 0 1 
8 -5.9999999999999997e-07 12.0000006
1 4.4604105038235611 0 0 1 
8 -5.9999999999999997e-07 12.0000006
1 0 2.4968353162629899 1 0 
2 -37.000000000000007 11.000000000000002 -0.50000000000000044 0.86602540378443849 -0.86602540378443849 -0.50000000000000044 41
8 -5.9999999999999997e-07 12.0000006
1 3.9171699057492195 0 0 1 
8 -5.9999999999999997e-07 12.0000006
1 0 2.4968353162629917 1 0 
8 -5.9999999999999997e-07 12.0000006
1 3.7139767547434031 0 0 1 
8 -5.9999999999999997e-07 12.0000006
1 1.59518898957255 0.20000000000000001 0 1 
2 -35.507041555161983 -20.500000000000004 -0.8660254037844386 -0.50000000000000011 0.50000000000000011 -0.8660254037844386 2
1 0 12.199999999999999 1 0 
8 -5.9999999999999997e-07 12.0000006
1 3.6164061036327806 0 0 1 
8 -5.9999999999999997e-07 12.0000006
1 4.6879963176070341 0.20000000000000001 0 1 
8 -5.9999999999999997e-07 12.0000006
1 3.4132129526269637 0 0 1 
8 -5.9999999999999997e-07 12.0000006
1 0 2.4968353162629953 1 0 
2 -37 11 -1 -1.2246467991473532e-16 1.2246467991473532e-16 -1 41
8 -5.9999999999999997e-07 12.0000006
1 2.8699723545526226 0 0 1 
8 -5.9999999999999997e-07 12.0000006
1 0 2.4968353162629953 1 0 
8 -5.9999999999999997e-07 12.0000006
1 2.6667792035468056 0 0 1 
8 -5.9999999999999997e-07 12.0000006
1 1.5951889895725515 0.20000000000000001 0 1 
2 -35.50704155516199 20.499999999999996 -0.86602540378443882 0.49999999999999994 -0.49999999999999994 -0.86602540378443882 2
1 0 12.199999999999999 1 0 
8 -5.9999999999999997e-07 12.0000006
1 2.5692085524361832 0 0 1 
8 -5.9999999999999997e-07 12.0000006
1 4.6879963176070349 0.20000000000000001 0 1 
8 -5.9999999999999997e-07 12.0000006
1 2.3660154014303658 0 0 1 
8 -5.9999999999999997e-07 12.0000006
1 0 2.4968353162629944 1 0 
2 -37 11 -0.49999999999999983 -0.86602540378443882 0.86602540378443882 -0.49999999999999983 41
8 -5.9999999999999997e-07 12.0000006
1 1.8227748033560245 0 0 1 
8 -5.9999999999999997e-07 12.0000006
1 0 2.4968353162629979 1 0 
8 -5.9999999999999997e-07 12.0000006
1 1.6195816523502078 0 0 1 
8 -5.9999999999999997e-07 12.0000006
1 1.5951889895725506 0.20000000000000001 0 1 
2 4.5519144009631418e-15 41 1.1102230246251565e-16 1 -1 1.1102230246251565e-16 2
1 0 12.199999999999999 1 0 
8 -5.9999999999999997e-07 12.0000006
1 1.5220110012395853 0 0 1 
8 -5.9999999999999997e-07 12.0000006
1 4.6879963176070358 0.20000000000000001 0 1 
8 -5.9999999999999997e-07 12.0000006
1 1.3188178502337684 0 0 1 
8 -5.9999999999999997e-07 12.0000006
1 0 2.4968353162629975 1 0 
2 -37 11 0.50000000000000011 -0.8660254037844386 0.8660254037844386 0.50000000000000011 41
8 -5.9999999999999997e-07 12.0000006
1 0.77557725215942697 0 0 1 
8 -5.9999999999999997e-07 12.0000006
1 0 2.4968353162629957 1 0 
8 -5.9999999999999997e-07 12.0000006
1 0.57238410115360983 0 0 1 
8 -5.9999999999999997e-07 12.0000006
1 1.5951889895725511 0.20000000000000001 0 1 
2 35.50704155516199 20.499999999999996 0.86602540378443871 0.49999999999999994 -0.49999999999999994 0.86602540378443871 2
1 0 12.199999999999999 1 0 
8 -5.9999999999999997e-07 12.0000006
1 0.47481345004298753 0 0 1 
8 -5.9999999999999997e-07 12.0000006
1 4.6879963176070349 0.20000000000000001 0 1 
1 0 12 1 0 
2 0 0 1 0 -0 1 20
2 0 0 1 0 -0 1 20
1 6.2831853071795862 -0 0 1 
1 0 -0 0 1 
2 -37 11 1 0 -0 1 41
2 -37 11 1 0 -0 1 41
1 -4.7123889803846897 12 1 0 
2 2 2 0 -1 1 0 2
2 39 -9 0 -1 1 0 2
1 37 -11 1 0 
1 12 0 0 1 
1 3.5527136788005009e-15 22 1 0 
1 28.02627944162883 -26.542939940024226 0.50000000000000011 -0.8660254037844386 
1 -1.5707963267948966 12 1 0 
2 2.0000000000000053 19.999999999999996 0 -1 -1 -0 2.0000000000000009
2 27.294228634059952 -29.274990747593108 -0.8660254037844386 -0.50000000000000011 -0.50000000000000011 0.8660254037844386 2.0000000000000009
1 12 0 0 -1 
1 0 0 0 1 
1 8.9737205583711788 -37.542939940024226 0.8660254037844386 0.50000000000000011 
1 -4.7123889803846897 12 1 0 
2 2.000000000000004 1.9999999999999969 0 -1 1 0 1.9999999999999996
2 11.705771365940056 -38.274990747593108 -0.8660254037844386 -0.50000000000000011 0.50000000000000011 -0.8660254037844386 1.9999999999999996
1 12 0 0 1 
1 0 0 1 0 
1 8.9737205583711788 -37.542939940024226 0.50000000000000011 -0.8660254037844386 
1 12 0 0 1 
1 3.5527136788005009e-15 22.000000000000007 1 0 
1 -8.9737205583711948 -37.542939940024233 -0.50000000000000044 -0.86602540378443849 
1 -1.5707963267948966 12 1 0 
2 2.0000000000000018 20.000000000000007 0 -1 -1 -0 1.9999999999999996
2 -11.705771365940072 -38.274990747593108 -0.86602540378443849 0.50000000000000044 0.50000000000000044 0.86602540378443849 1.9999999999999996
1 12 0 0 -1 
1 0 0 0 1 
1 -28.026279441628841 -26.542939940024219 0.86602540378443849 -0.50000000000000044 
1 -4.7123889803846897 12 1 0 
2 1.9999999999999996 2.0000000000000027 0 -1 1 0 2.0000000000000009
2 -27.294228634059962 -29.274990747593097 -0.86602540378443849 0.50000000000000044 -0.50000000000000044 -0.86602540378443849 2.0000000000000009
1 12 0 0 1 
1 0 0 1 0 
1 -28.026279441628841 -26.542939940024219 -0.50000000000000044 -0.86602540378443849 
1 12 0 0 1 
1 -2.6942229581241772e-15 22 1 0 
1 -37 -10.999999999999995 -1 1.2246467991473532e-16 
1 -1.5707963267948966 12 1 0 
2 1.9999999999999976 20 0 -1 -1 -0 2
2 -39 -8.9999999999999947 1.2246467991473532e-16 1 1 -1.2246467991473532e-16 2
1 12 0 0 -1 
1 0 0 0 1 
1 -37 11.000000000000005 -1.2246467991473532e-16 -1 
1 -4.7123889803846897 12 1 0 
2 1.9999999999999998 2.0000000000000004 0 -1 1 0 2
2 -39 9.0000000000000053 1.2246467991473532e-16 1 -1 1.2246467991473532e-16 2
1 12 0 0 1 
1 0 0 1 0 
1 -37 11.000000000000005 -1 1.2246467991473532e-16 
1 12 0 0 1 
1 -1.7763568394002505e-15 22.000000000000004 1 0 
1 -28.026279441628819 26.542939940024237 -0.49999999999999983 0.86602540378443882 
1 -1.5707963267948966 12 1 0 
2 1.9999999999999938 20.000000000000004 0 -1 -1 -0 2.0000000000000009
2 -27.294228634059941 29.274990747593108 0.86602540378443882 0.49999999999999983 0.49999999999999983 -0.86602540378443882 2.0000000000000009
1 12 0 0 -1 
1 0 0 0 1 
1 -8.9737205583711663 37.542939940024233 -0.86602540378443882 -0.49999999999999983 
1 -4.7123889803846897 12 1 0 
2 1.9999999999999982 2.0000000000000027 0 -1 1 0 2.0000000000000009
2 -11.705771365940045 38.274990747593108 0.86602540378443882 0.49999999999999983 -0.49999999999999983 0.86602540378443882 2.0000000000000009
1 12 0 0 1 
1 0 0 1 0 
1 -8.9737205583711663 37.542939940024233 -0.49999999999999983 0.86602540378443882 
1 12 0 0 1 
1 -3.5527136788005009e-15 22 1 0 
1 8.9737205583711788 37.542939940024226 0.50000000000000011 0.8660254037844386 
1 -1.5707963267948966 12 1 0 
2 2.0000000000000018 20.000000000000004 0 -1 -1 -0 1.9999999999999996
2 11.705771365940056 38.274990747593108 0.8660254037844386 -0.50000000000000011 -0.50000000000000011 -0.8660254037844386 1.9999999999999996
1 12 0 0 -1 
1 0 0 0 1 
1 28.02627944162883 26.542939940024226 -0.8660254037844386 0.50000000000000011 
1 -4.7123889803846897 12 1 0 
2 2.0000000000000036 2.0000000000000036 0 -1 1 0 2.0000000000000009
2 27.294228634059952 29.274990747593108 0.8660254037844386 -0.50000000000000011 0.50000000000000011 0.8660254037844386 2.0000000000000009
1 12 0 0 1 
1 0 0 1 0 
1 28.02627944162883 26.542939940024226 0.50000000000000011 0.8660254037844386 
1 37 11 1 0 
1 -1.5707963267948966 12 1 0 
2 2 20 0 -1 -1 -0 2
2 39 9 0 -1 -1 -0 2
1 0 0 0 1 
1 12 0 0 -1 
1 37 -11 0 1 
1 1.5707963267948966 0 0 1 
1 0 35.980000000000011 1 0 
1 -1.5707963267948966 0 1 0 
2 35.980000000000011 20 0 -1 1 0 1.999999999999998
1 37.980000000000011 0 0 1 
1 -4.7123889803846897 0 1 0 
2 35.980000000000011 2 0 -1 -1 -0 2.0000000000000009
1 1.5707963267948966 0 0 1 
1 0 35.980000000000011 1 0 
1 1.5707963267948966 0 0 1 
1 0 35.980000000000011 1 0 
1 -1.5707963267948966 0 1 0 
2 35.980000000000011 20.000000000000007 0 -1 1 0 2.0000000000000009
1 37.980000000000011 -3.5527136788005009e-15 0 1 
1 -4.7123889803846897 0 1 0 
2 35.980000000000011 1.9999999999999964 0 -1 -1 -0 1.999999999999998
1 1.5707963267948966 0 0 1 
1 0 35.980000000000011 1 0 
1 1.5707963267948966 0 0 1 
1 0 35.980000000000004 1 0 
1 -1.5707963267948966 0 1 0 
2 35.980000000000004 20 0 -1 1 0 2
1 37.980000000000004 1.0984948643611467e-15 0 1 
1 -4.7123889803846897 0 1 0 
2 35.980000000000004 2.0000000000000009 0 -1 -1 -0 2
1 1.5707963267948966 0 0 1 
1 0 35.980000000000004 1 0 
1 1.5707963267948966 0 0 1 
1 0 35.979999999999997 1 0 
1 -1.5707963267948966 0 1 0 
2 35.980000000000004 20.000000000000007 0 -1 1 0 1.999999999999998
1 37.980000000000004 3.5527136788005009e-15 0 1 
1 -4.7123889803846897 0 1 0 
2 35.979999999999997 2.0000000000000053 0 -1 -1 -0 2.0000000000000009
1 1.5707963267948966 0 0 1 
1 0 35.979999999999997 1 0 
1 1.5707963267948966 0 0 1 
1 0 35.980000000000011 1 0 
1 -1.5707963267948966 0 1 0 
2 35.980000000000004 20.000000000000004 0 -1 1 0 2.0000000000000009
1 37.980000000000011 7.1054273576010019e-15 0 1 
1 -4.7123889803846897 0 1 0 
2 35.980000000000004 2.0000000000000036 0 -1 -1 -0 1.999999999999998
1 1.5707963267948966 0 0 1 
1 0 35.980000000000011 1 0 
2 -37 11 0.50000000000000011 0.8660254037844386 -0.8660254037844386 0.50000000000000011 41
2 -37.000000000000007 11.000000000000002 -0.50000000000000044 0.86602540378443849 -0.86602540378443849 -0.50000000000000044 41
2 -37 11 -1 -1.2246467991473532e-16 1.2246467991473532e-16 -1 41
2 -37 11 -0.49999999999999983 -0.86602540378443882 0.86602540378443882 -0.49999999999999983 41
2 -37 11 0.50000000000000011 -0.8660254037844386 0.8660254037844386 0.50000000000000011 41
1 0 0 0 1 
1 -1.5707963267948966 12 1 0 
2 35.980000000000011 20 0 -1 1 0 1.999999999999998
1 37.980000000000011 0 0 1 
1 -4.7123889803846897 12 1 0 
2 35.980000000000011 2 0 -1 -1 -0 2.0000000000000009
1 0 0 0 1 
1 0 0 0 1 
1 -1.5707963267948966 12 1 0 
2 35.980000000000011 20.000000000000007 0 -1 1 0 2.0000000000000009
1 37.980000000000011 -3.5527136788005009e-15 0 1 
1 -4.7123889803846897 12 1 0 
2 35.980000000000011 1.9999999999999964 0 -1 -1 -0 1.999999999999998
1 0 0 0 1 
1 0 0 0 1 
1 -1.5707963267948966 12 1 0 
2 35.980000000000004 20 0 -1 1 0 2
1 37.980000000000004 1.0984948643611467e-15 0 1 
1 -4.7123889803846897 12 1 0 
2 35.980000000000004 2.0000000000000009 0 -1 -1 -0 2
1 0 0 0 1 
1 0 0 0 1 
1 -1.5707963267948966 12 1 0 
2 35.980000000000004 20.000000000000007 0 -1 1 0 1.999999999999998
1 37.980000000000004 3.5527136788005009e-15 0 1 
1 -4.7123889803846897 12 1 0 
2 35.979999999999997 2.0000000000000053 0 -1 -1 -0 2.0000000000000009
1 0 0 0 1 
1 0 0 0 1 
1 -1.5707963267948966 12 1 0 
2 35.980000000000004 20.000000000000004 0 -1 1 0 2.0000000000000009
1 37.980000000000011 7.1054273576010019e-15 0 1 
1 -4.7123889803846897 12 1 0 
2 35.980000000000004 2.0000000000000036 0 -1 -1 -0 1.999999999999998
1 0 0 0 1 
Curves 161
2 0 0 0 0 0 1 1 0 -0 -0 1 0 41
1 37 -11 0 1 0 0 
8 4.7123889803846897 6.2831853071795862
2 39 -9 0 -0 0 1 0 -1 0 1 0 0 2
1 37 -11 0 0 1 0 
8 1.5707963267948966 3.1415926535897931
2 39 9 0 -0 -0 -1 0 -1 0 -1 0 0 2
1 37 11 0 1 0 0 
8 1.5707963267948966 3.1415926535897931
2 72.980000000000004 9 0 -0 0 1 0 -1 0 1 0 0 2
1 74.980000000000004 -11 0 0 1 0 
8 4.7123889803846897 6.2831853071795862
2 72.980000000000004 -9 0 -0 -0 -1 0 -1 0 -1 0 0 2
2 35.507041555161976 -20.500000000000018 0 0 0 1 0.86602540378443837 -0.50000000000000044 0 0.50000000000000044 0.86602540378443837 -0 2
1 28.02627944162883 -26.542939940024226 0 0.50000000000000011 -0.8660254037844386 0 
8 1.5707963267948966 3.1415926535897931
2 27.294228634059952 -29.274990747593108 0 -0 0 -1 -0.8660254037844386 -0.50000000000000011 0 -0.50000000000000011 0.8660254037844386 0 2
1 8.9737205583711788 -37.542939940024226 0 0.8660254037844386 0.50000000000000011 0 
8 4.7123889803846897 6.2831853071795862
2 11.705771365940056 -38.274990747593108 0 0 0 1 -0.8660254037844386 -0.50000000000000011 0 0.50000000000000011 -0.8660254037844386 0 2
1 8.9737205583711788 -37.542939940024226 0 0.50000000000000011 -0.8660254037844386 0 
2 -9.1038288019262836e-15 -41 0 0 0 1 -2.2204460492503131e-16 -1 0 1 -2.2204460492503131e-16 0 2
1 -8.9737205583711948 -37.542939940024233 0 -0.50000000000000044 -0.86602540378443849 0 
8 1.5707963267948966 3.1415926535897931
2 -11.705771365940072 -38.274990747593108 0 0 0 -1 -0.86602540378443849 0.50000000000000044 0 0.50000000000000044 0.86602540378443849 0 2
1 -28.026279441628841 -26.542939940024219 0 0.86602540378443849 -0.50000000000000044 0 
8 4.7123889803846897 6.2831853071795862
2 -27.294228634059962 -29.274990747593097 0 0 0 1 -0.86602540378443849 0.50000000000000044 0 -0.50000000000000044 -0.86602540378443849 0 2
1 -28.026279441628841 -26.542939940024219 0 -0.50000000000000044 -0.86602540378443849 0 
2 -35.507041555161983 -20.500000000000004 0 0 0 1 -0.8660254037844386 -0.50000000000000011 0 0.50000000000000011 -0.8660254037844386 0 2
1 -37 -10.999999999999995 0 -1 1.2246467991473532e-16 0 
8 1.5707963267948966 3.1415926535897931
2 -39 -8.9999999999999947 0 0 0 -1 1.2246467991473532e-16 1 0 1 -1.2246467991473532e-16 0 2
1 -37 11.000000000000005 0 -1.2246467991473532e-16 -1 0 
8 4.7123889803846897 6.2831853071795862
2 -39 9.0000000000000053 0 0 -0 1 1.2246467991473532e-16 1 0 -1 1.2246467991473532e-16 0 2
1 -37 11.000000000000005 0 -1 1.2246467991473532e-16 0 
2 -35.50704155516199 20.499999999999996 0 0 0 1 -0.86602540378443882 0.49999999999999994 0 -0.49999999999999994 -0.86602540378443882 0 2
1 -28.026279441628819 26.542939940024237 0 -0.49999999999999983 0.86602540378443882 0 
8 1.5707963267948966 3.1415926535897931
2 -27.294228634059941 29.274990747593108 0 0 0 -1 0.86602540378443882 0.49999999999999983 0 0.49999999999999983 -0.86602540378443882 0 2
1 -8.9737205583711663 37.542939940024233 0 -0.86602540378443882 -0.49999999999999983 0 
8 4.7123889803846897 6.2831853071795862
2 -11.705771365940045 38.274990747593108 0 0 -0 1 0.86602540378443882 0.49999999999999983 0 -0.49999999999999983 0.86602540378443882 0 2
1 -8.9737205583711663 37.542939940024233 0 -0.49999999999999983 0.86602540378443882 0 
2 4.5519144009631418e-15 41 0 0 0 1 1.1102230246251565e-16 1 -0 -1 1.1102230246251565e-16 0 2
1 8.9737205583711788 37.542939940024226 0 0.50000000000000011 0.8660254037844386 0 
8 1.5707963267948966 3.1415926535897931
2 11.705771365940056 38.274990747593108 0 0 -0 -1 0.8660254037844386 -0.50000000000000011 0 -0.50000000000000011 -0.8660254037844386 0 2
1 28.02627944162883 26.542939940024226 0 -0.8660254037844386 0.50000000000000011 0 
8 4.7123889803846897 6.2831853071795862
2 27.294228634059952 29.274990747593108 0 -0 0 1 0.8660254037844386 -0.50000000000000011 0 0.50000000000000011 0.8660254037844386 0 2
1 28.02627944162883 26.542939940024226 0 0.50000000000000011 0.8660254037844386 0 
2 35.50704155516199 20.499999999999996 0 0 0 1 0.86602540378443871 0.49999999999999994 -0 -0.49999999999999994 0.86602540378443871 0 2
2 0 0 0 0 0 1 1 0 -0 -0 1 0 20
1 72.980000000000004 11 0 0 0 1 
1 37 11 12 1 0 0 
1 39.496835316262995 11 0 0 0 1 
1 74.980000000000004 9 0 0 0 1 
8 1.5707963267948966 3.1415926535897931
2 72.980000000000004 9 12 -0 0 1 0 -1 0 1 0 0 2
1 74.980000000000004 -11 12 0 1 0 
1 74.980000000000004 -9 0 0 0 1 
1 72.980000000000004 -11 0 0 0 1 
8 4.7123889803846897 6.2831853071795862
2 72.980000000000004 -9 12 -0 -0 -1 0 -1 0 -1 0 0 2
1 37 -11 12 1 0 0 
1 39.496835316262995 -11 0 0 0 1 
2 0 0 12 0 0 1 1 0 -0 -0 1 0 41
1 36.464498927266128 -18.74407420982449 0 0 0 1 
2 35.507041555161976 -20.500000000000018 12 0 0 1 0.86602540378443837 -0.50000000000000044 0 0.50000000000000044 0.86602540378443837 -0 2
1 34.465093899761783 -22.207145302370666 0 0 0 1 
1 29.274697099760324 -28.705262752974136 0 0 0 1 
1 10.222138216502676 -39.705262752974136 0 0 0 1 
1 1.9994050275043382 -40.951219512195124 0 0 0 1 
2 -9.1038288019262836e-15 -41 12 0 0 1 -2.2204460492503131e-16 -1 0 1 -2.2204460492503131e-16 0 2
1 -1.9994050275043564 -40.951219512195124 0 0 0 1 
1 -10.222138216502689 -39.705262752974136 0 0 0 1 
1 -29.274697099760338 -28.705262752974122 0 0 0 1 
1 -34.46509389976179 -22.207145302370655 0 0 0 1 
2 -35.507041555161983 -20.500000000000004 12 0 0 1 -0.8660254037844386 -0.50000000000000011 0 0.50000000000000011 -0.8660254037844386 0 2
1 -36.464498927266135 -18.744074209824475 0 0 0 1 
1 -39.496835316262995 -10.999999999999995 0 0 0 1 
1 -39.496835316262995 11.000000000000005 0 0 0 1 
1 -36.464498927266142 18.744074209824468 0 0 0 1 
2 -35.50704155516199 20.499999999999996 12 0 0 1 -0.86602540378443882 0.49999999999999994 0 -0.49999999999999994 -0.86602540378443882 0 2
1 -34.465093899761797 22.207145302370645 0 0 0 1 
1 -29.274697099760317 28.705262752974143 0 0 0 1 
1 -10.222138216502664 39.705262752974143 0 0 0 1 
1 -1.9994050275043427 40.951219512195124 0 0 0 1 
2 4.5519144009631418e-15 41 12 0 0 1 1.1102230246251565e-16 1 -0 -1 1.1102230246251565e-16 0 2
1 1.9994050275043518 40.951219512195124 0 0 0 1 
1 10.222138216502676 39.705262752974136 0 0 0 1 
1 29.274697099760324 28.705262752974136 0 0 0 1 
1 34.465093899761797 22.207145302370645 0 0 0 1 
2 35.50704155516199 20.499999999999996 12 0 0 1 0.86602540378443871 0.49999999999999994 -0 -0.49999999999999994 0.86602540378443871 0 2
1 36.464498927266142 18.744074209824468 0 0 0 1 
2 0 0 12 0 0 1 1 0 -0 -0 1 0 20
1 20 -4.898587196589413e-15 0 0 0 1 
8 4.7123889803846897 6.2831853071795862
2 39 -9 12 -0 0 1 0 -1 0 1 0 0 2
1 28.02627944162883 -26.542939940024226 12 0.50000000000000011 -0.8660254037844386 0 
8 1.5707963267948966 3.1415926535897931
2 27.294228634059952 -29.274990747593108 12 -0 0 -1 -0.8660254037844386 -0.50000000000000011 0 -0.50000000000000011 0.8660254037844386 0 2
1 8.9737205583711788 -37.542939940024226 12 0.8660254037844386 0.50000000000000011 0 
8 4.7123889803846897 6.2831853071795862
2 11.705771365940056 -38.274990747593108 12 0 0 1 -0.8660254037844386 -0.50000000000000011 0 0.50000000000000011 -0.8660254037844386 0 2
1 8.9737205583711788 -37.542939940024226 12 0.50000000000000011 -0.8660254037844386 0 
1 -8.9737205583711948 -37.542939940024233 12 -0.50000000000000044 -0.86602540378443849 0 
8 1.5707963267948966 3.1415926535897931
2 -11.705771365940072 -38.274990747593108 12 0 0 -1 -0.86602540378443849 0.50000000000000044 0 0.50000000000000044 0.86602540378443849 0 2
1 -28.026279441628841 -26.542939940024219 12 0.86602540378443849 -0.50000000000000044 0 
8 4.7123889803846897 6.2831853071795862
2 -27.294228634059962 -29.274990747593097 12 0 0 1 -0.86602540378443849 0.50000000000000044 0 -0.50000000000000044 -0.86602540378443849 0 2
1 -28.026279441628841 -26.542939940024219 12 -0.50000000000000044 -0.86602540378443849 0 
1 -37 -10.999999999999995 12 -1 1.2246467991473532e-16 0 
8 1.5707963267948966 3.1415926535897931
2 -39 -8.9999999999999947 12 0 0 -1 1.2246467991473532e-16 1 0 1 -1.2246467991473532e-16 0 2
1 -37 11.000000000000005 12 -1.2246467991473532e-16 -1 0 
8 4.7123889803846897 6.2831853071795862
2 -39 9.0000000000000053 12 0 -0 1 1.2246467991473532e-16 1 0 -1 1.2246467991473532e-16 0 2
1 -37 11.000000000000005 12 -1 1.2246467991473532e-16 0 
1 -28.026279441628819 26.542939940024237 12 -0.49999999999999983 0.86602540378443882 0 
8 1.5707963267948966 3.1415926535897931
2 -27.294228634059941 29.274990747593108 12 0 0 -1 0.86602540378443882 0.49999999999999983 0 0.49999999999999983 -0.86602540378443882 0 2
1 -8.9737205583711663 37.542939940024233 12 -0.86602540378443882 -0.49999999999999983 0 
8 4.7123889803846897 6.2831853071795862
2 -11.705771365940045 38.274990747593108 12 0 -0 1 0.86602540378443882 0.49999999999999983 0 -0.49999999999999983 0.86602540378443882 0 2
1 -8.9737205583711663 37.542939940024233 12 -0.49999999999999983 0.86602540378443882 0 
1 8.9737205583711788 37.542939940024226 12 0.50000000000000011 0.8660254037844386 0 
8 1.5707963267948966 3.1415926535897931
2 11.705771365940056 38.274990747593108 12 0 -0 -1 0.8660254037844386 -0.50000000000000011 0 -0.50000000000000011 -0.8660254037844386 0 2
1 28.02627944162883 26.542939940024226 12 -0.8660254037844386 0.50000000000000011 0 
8 4.7123889803846897 6.2831853071795862
2 27.294228634059952 29.274990747593108 12 -0 0 1 0.8660254037844386 -0.50000000000000011 0 0.50000000000000011 0.8660254037844386 0 2
1 28.02627944162883 26.542939940024226 12 0.50000000000000011 0.8660254037844386 0 
8 1.5707963267948966 3.1415926535897931
2 39 9 12 -0 -0 -1 0 -1 0 -1 0 0 2
1 37 -11 12 0 1 0 
1 46.016279441628832 -57.702533968188334 0 0 0 1 
8 1.5707963267948966 3.1415926535897931
2 44.284228634059957 -58.702533968188334 0 0 0 1 -0.8660254037844386 -0.50000000000000011 0 0.50000000000000011 -0.8660254037844386 0 2
1 27.963720558371186 -70.434584775757216 0 0.8660254037844386 0.50000000000000011 0 
8 4.7123889803846897 6.2831853071795862
2 28.695771365940061 -67.702533968188334 0 -0 0 -1 -0.8660254037844386 -0.50000000000000011 0 -0.50000000000000011 0.8660254037844386 0 2
1 26.963720558371186 -68.702533968188334 0 0 0 1 
1 -26.963720558371215 -68.702533968188334 0 0 0 1 
8 1.5707963267948966 3.1415926535897931
2 -28.695771365940089 -67.702533968188334 0 0 0 1 -0.86602540378443849 0.50000000000000044 0 -0.50000000000000044 -0.86602540378443849 0 2
1 -47.016279441628861 -59.434584775757195 0 0.86602540378443849 -0.50000000000000044 0 
8 4.7123889803846897 6.2831853071795862
2 -44.284228634059986 -58.70253396818832 0 0 0 -1 -0.86602540378443849 0.50000000000000044 0 0.50000000000000044 0.86602540378443849 0 2
1 -46.016279441628861 -57.70253396818832 0 0 0 1 
1 -72.980000000000004 -10.999999999999991 0 0 0 1 
8 1.5707963267948966 3.1415926535897931
2 -72.980000000000004 -8.9999999999999911 0 0 -0 1 1.2246467991473532e-16 1 0 -1 1.2246467991473532e-16 0 2
1 -74.980000000000004 11.000000000000009 0 -1.2246467991473532e-16 -1 0 
8 4.7123889803846897 6.2831853071795862
2 -72.980000000000004 9.0000000000000089 0 0 0 -1 1.2246467991473532e-16 1 0 1 -1.2246467991473532e-16 0 2
1 -72.980000000000004 11.000000000000009 0 0 0 1 
1 -46.016279441628811 57.702533968188341 0 0 0 1 
8 1.5707963267948966 3.1415926535897931
2 -44.284228634059936 58.702533968188341 0 0 -0 1 0.86602540378443882 0.49999999999999983 0 -0.49999999999999983 0.86602540378443882 0 2
1 -27.963720558371161 70.434584775757216 0 -0.86602540378443882 -0.49999999999999983 0 
8 4.7123889803846897 6.2831853071795862
2 -28.69577136594004 67.702533968188334 0 0 0 -1 0.86602540378443882 0.49999999999999983 0 0.49999999999999983 -0.86602540378443882 0 2
1 -26.963720558371161 68.702533968188334 0 0 0 1 
1 26.963720558371186 68.702533968188334 0 0 0 1 
8 1.5707963267948966 3.1415926535897931
2 28.695771365940061 67.702533968188334 0 -0 0 1 0.8660254037844386 -0.50000000000000011 0 0.50000000000000011 0.8660254037844386 0 2
1 47.016279441628832 59.434584775757216 0 -0.8660254037844386 0.50000000000000011 0 
8 4.7123889803846897 6.2831853071795862
2 44.284228634059957 58.702533968188334 0 0 -0 -1 0.8660254037844386 -0.50000000000000011 0 -0.50000000000000011 -0.8660254037844386 0 2
1 46.016279441628832 57.702533968188334 0 0 0 1 
1 45.284228634059957 -60.434584775757216 0 0 0 1 
8 1.5707963267948966 3.1415926535897931
2 44.284228634059957 -58.702533968188334 12 0 0 1 -0.8660254037844386 -0.50000000000000011 0 0.50000000000000011 -0.8660254037844386 0 2
1 27.963720558371186 -70.434584775757216 12 0.8660254037844386 0.50000000000000011 0 
8 4.7123889803846897 6.2831853071795862
2 28.695771365940061 -67.702533968188334 12 -0 0 -1 -0.8660254037844386 -0.50000000000000011 0 -0.50000000000000011 0.8660254037844386 0 2
1 29.695771365940061 -69.434584775757216 0 0 0 1 
1 -29.695771365940089 -69.434584775757202 0 0 0 1 
8 1.5707963267948966 3.1415926535897931
2 -28.695771365940089 -67.702533968188334 12 0 0 1 -0.86602540378443849 0.50000000000000044 0 -0.50000000000000044 -0.86602540378443849 0 2
1 -47.016279441628861 -59.434584775757195 12 0.86602540378443849 -0.50000000000000044 0 
8 4.7123889803846897 6.2831853071795862
2 -44.284228634059986 -58.70253396818832 12 0 0 -1 -0.86602540378443849 0.50000000000000044 0 0.50000000000000044 0.86602540378443849 0 2
1 -45.284228634059986 -60.434584775757202 0 0 0 1 
1 -74.980000000000004 -8.9999999999999911 0 0 0 1 
8 1.5707963267948966 3.1415926535897931
2 -72.980000000000004 -8.9999999999999911 12 0 -0 1 1.2246467991473532e-16 1 0 -1 1.2246467991473532e-16 0 2
1 -74.980000000000004 11.000000000000009 12 -1.2246467991473532e-16 -1 0 
8 4.7123889803846897 6.2831853071795862
2 -72.980000000000004 9.0000000000000089 12 0 0 -1 1.2246467991473532e-16 1 0 1 -1.2246467991473532e-16 0 2
1 -74.980000000000004 9.0000000000000089 0 0 0 1 
1 -45.284228634059936 60.434584775757216 0 0 0 1 
8 1.5707963267948966 3.1415926535897931
2 -44.284228634059936 58.702533968188341 12 0 -0 1 0.86602540378443882 0.49999999999999983 0 -0.49999999999999983 0.86602540378443882 0 2
1 -27.963720558371161 70.434584775757216 12 -0.86602540378443882 -0.49999999999999983 0 
8 4.7123889803846897 6.2831853071795862
2 -28.69577136594004 67.702533968188334 12 0 0 -1 0.86602540378443882 0.49999999999999983 0 0.49999999999999983 -0.86602540378443882 0 2
1 -29.69577136594004 69.434584775757216 0 0 0 1 
1 29.695771365940061 69.434584775757216 0 0 0 1 
8 1.5707963267948966 3.1415926535897931
2 28.695771365940061 67.702533968188334 12 -0 0 1 0.8660254037844386 -0.50000000000000011 0 0.50000000000000011 0.8660254037844386 0 2
1 47.016279441628832 59.434584775757216 12 -0.8660254037844386 0.50000000000000011 0 
8 4.7123889803846897 6.2831853071795862
2 44.284228634059957 58.702533968188334 12 0 -0 -1 0.8660254037844386 -0.50000000000000011 0 -0.50000000000000011 -0.8660254037844386 0 2
1 45.284228634059957 60.434584775757216 0 0 0 1 
Polygon3D 0
PolygonOnTriangulations 0
Surfaces 72
1 0 0 0 0 0 1 1 0 -0 -0 1 0 
2 0 0 0 0 0 1 1 0 -0 -0 1 0 41
1 37 -11 0 0 0 1 1 0 0 0 1 0 
1 37 -11 0 0 1 0 0 0 1 1 0 0 
2 39 -9 0 0 0 1 -1 0 0 0 -1 0 2
1 37 -11 0 1 0 0 0 0 1 0 -1 0 
2 39 9 0 0 0 1 -1 0 0 0 1 0 2
1 37 11 0 0 1 0 0 0 1 1 0 0 
2 72.980000000000004 9 0 0 0 1 1 0 0 0 1 0 2
2 72.980000000000004 -9 0 0 0 1 1 0 0 0 -1 0 2
2 35.507041555161976 -20.500000000000018 -0.20000000000000001 0 0 1 0.86602540378443837 -0.50000000000000044 0 0.50000000000000044 0.86602540378443837 0 2
1 8.9737205583711788 -37.542939940024226 0 0 0 1 0.50000000000000011 -0.8660254037844386 0 0.8660254037844386 0.50000000000000011 0 
1 28.02627944162883 -26.542939940024226 0 0.8660254037844386 0.50000000000000011 0 0 0 1 0.50000000000000011 -0.8660254037844386 0 
2 27.294228634059952 -29.274990747593108 0 0 0 1 -0.50000000000000011 0.8660254037844386 0 0.8660254037844386 0.50000000000000011 0 2
1 8.9737205583711788 -37.542939940024226 0 0.50000000000000011 -0.8660254037844386 0 0 0 1 -0.8660254037844386 -0.50000000000000011 0 
2 11.705771365940056 -38.274990747593108 0 0 0 1 -0.50000000000000011 0.8660254037844386 0 -0.8660254037844386 -0.50000000000000011 0 2
1 8.9737205583711788 -37.542939940024226 0 0.8660254037844386 0.50000000000000011 0 0 0 1 0.50000000000000011 -0.8660254037844386 0 
2 -9.1038288019262836e-15 -41 -0.20000000000000001 0 0 1 -2.2204460492503131e-16 -1 0 1 -2.2204460492503131e-16 0 2
1 -28.026279441628841 -26.542939940024219 0 0 0 1 -0.50000000000000044 -0.86602540378443849 0 0.86602540378443849 -0.50000000000000044 0 
1 -8.9737205583711948 -37.542939940024233 0 0.86602540378443849 -0.50000000000000044 0 0 0 1 -0.50000000000000044 -0.86602540378443849 0 
2 -11.705771365940072 -38.274990747593108 0 0 0 1 0.50000000000000044 0.86602540378443849 0 0.86602540378443849 -0.50000000000000044 0 2
1 -28.026279441628841 -26.542939940024219 0 -0.50000000000000044 -0.86602540378443849 0 0 0 1 -0.86602540378443849 0.50000000000000044 0 
2 -27.294228634059962 -29.274990747593097 0 0 0 1 0.50000000000000044 0.86602540378443849 0 -0.86602540378443849 0.50000000000000044 0 2
1 -28.026279441628841 -26.542939940024219 0 0.86602540378443849 -0.50000000000000044 0 0 0 1 -0.50000000000000044 -0.86602540378443849 0 
2 -35.507041555161983 -20.500000000000004 -0.20000000000000001 0 0 1 -0.8660254037844386 -0.50000000000000011 0 0.50000000000000011 -0.8660254037844386 0 2
1 -37 11.000000000000005 0 0 0 1 -1 1.2246467991473532e-16 0 -1.2246467991473532e-16 -1 0 
1 -37 -10.999999999999995 0 -1.2246467991473532e-16 -1 0 0 0 1 -1 1.2246467991473532e-16 0 
2 -39 -8.9999999999999947 0 0 0 1 1 -1.2246467991473532e-16 0 -1.2246467991473532e-16 -1 0 2
1 -37 11.000000000000005 0 -1 1.2246467991473532e-16 0 0 0 1 1.2246467991473532e-16 1 0 
2 -39 9.0000000000000053 0 0 0 1 1 -1.2246467991473532e-16 0 1.2246467991473532e-16 1 0 2
1 -37 11.000000000000005 0 -1.2246467991473532e-16 -1 0 0 0 1 -1 1.2246467991473532e-16 0 
2 -35.50704155516199 20.499999999999996 -0.20000000000000001 0 0 1 -0.86602540378443882 0.49999999999999994 0 -0.49999999999999994 -0.86602540378443882 0 2
1 -8.9737205583711663 37.542939940024233 0 0 0 1 -0.49999999999999983 0.86602540378443882 0 -0.86602540378443882 -0.49999999999999983 0 
1 -28.026279441628819 26.542939940024237 0 -0.86602540378443882 -0.49999999999999983 0 0 0 1 -0.49999999999999983 0.86602540378443882 0 
2 -27.294228634059941 29.274990747593108 0 0 0 1 0.49999999999999983 -0.86602540378443882 0 -0.86602540378443882 -0.49999999999999983 0 2
1 -8.9737205583711663 37.542939940024233 0 -0.49999999999999983 0.86602540378443882 0 0 0 1 0.86602540378443882 0.49999999999999983 0 
2 -11.705771365940045 38.274990747593108 0 0 0 1 0.49999999999999983 -0.86602540378443882 0 0.86602540378443882 0.49999999999999983 0 2
1 -8.9737205583711663 37.542939940024233 0 -0.86602540378443882 -0.49999999999999983 0 0 0 1 -0.49999999999999983 0.86602540378443882 0 
2 4.5519144009631418e-15 41 -0.20000000000000001 0 0 1 1.1102230246251565e-16 1 0 -1 1.1102230246251565e-16 0 2
1 28.02627944162883 26.542939940024226 0 0 0 1 0.50000000000000011 0.8660254037844386 0 -0.8660254037844386 0.50000000000000011 0 
1 8.9737205583711788 37.542939940024226 0 -0.8660254037844386 0.50000000000000011 0 0 0 1 0.50000000000000011 0.8660254037844386 0 
2 11.705771365940056 38.274990747593108 0 0 0 1 -0.50000000000000011 -0.8660254037844386 0 -0.8660254037844386 0.50000000000000011 0 2
1 28.02627944162883 26.542939940024226 0 0.50000000000000011 0.8660254037844386 0 0 0 1 0.8660254037844386 -0.50000000000000011 0 
2 27.294228634059952 29.274990747593108 0 0 0 1 -0.50000000000000011 -0.8660254037844386 0 0.8660254037844386 -0.50000000000000011 0 2
1 28.02627944162883 26.542939940024226 0 -0.8660254037844386 0.50000000000000011 0 0 0 1 0.50000000000000011 0.8660254037844386 0 
2 35.50704155516199 20.499999999999996 -0.20000000000000001 0 0 1 0.86602540378443871 0.49999999999999994 0 -0.49999999999999994 0.86602540378443871 0 2
2 0 0 0 0 0 1 1 0 -0 -0 1 0 20
1 0 0 0 0 0 1 1 0 -0 -0 1 0 
1 37 -11 12 0 0 1 1 0 0 0 1 0 
1 74.980000000000004 -11 0 1 0 0 0 0 1 0 -1 0 
1 0 0 12 0 0 1 1 0 -0 -0 1 0 
1 0 0 12 0 0 1 1 0 -0 -0 1 0 
1 8.9737205583711788 -37.542939940024226 12 0 0 1 0.50000000000000011 -0.8660254037844386 0 0.8660254037844386 0.50000000000000011 0 
1 -28.026279441628841 -26.542939940024219 12 0 0 1 -0.50000000000000044 -0.86602540378443849 0 0.86602540378443849 -0.50000000000000044 0 
1 -37 11.000000000000005 12 0 0 1 -1 1.2246467991473532e-16 0 -1.2246467991473532e-16 -1 0 
1 -8.9737205583711663 37.542939940024233 12 0 0 1 -0.49999999999999983 0.86602540378443882 0 -0.86602540378443882 -0.49999999999999983 0 
1 28.02627944162883 26.542939940024226 12 0 0 1 0.50000000000000011 0.8660254037844386 0 -0.8660254037844386 0.50000000000000011 0 
2 44.284228634059957 -58.702533968188334 0 0 0 1 0.50000000000000011 -0.8660254037844386 0 0.8660254037844386 0.50000000000000011 0 2
2 28.695771365940061 -67.702533968188334 0 0 0 1 0.50000000000000011 -0.8660254037844386 0 -0.8660254037844386 -0.50000000000000011 0 2
2 -28.695771365940089 -67.702533968188334 0 0 0 1 -0.50000000000000044 -0.86602540378443849 0 0.86602540378443849 -0.50000000000000044 0 2
2 -44.284228634059986 -58.70253396818832 0 0 0 1 -0.50000000000000044 -0.86602540378443849 0 -0.86602540378443849 0.50000000000000044 0 2
2 -72.980000000000004 -8.9999999999999911 0 0 0 1 -1 1.2246467991473532e-16 0 -1.2246467991473532e-16 -1 0 2
2 -72.980000000000004 9.0000000000000089 0 0 0 1 -1 1.2246467991473532e-16 0 1.2246467991473532e-16 1 0 2
2 -44.284228634059936 58.702533968188341 0 0 0 1 -0.49999999999999983 0.86602540378443882 0 -0.86602540378443882 -0.49999999999999983 0 2
2 -28.69577136594004 67.702533968188334 0 0 0 1 -0.49999999999999983 0.86602540378443882 0 0.86602540378443882 0.49999999999999983 0 2
2 28.695771365940061 67.702533968188334 0 0 0 1 0.50000000000000011 0.8660254037844386 0 -0.8660254037844386 0.50000000000000011 0 2
2 44.284228634059957 58.702533968188334 0 0 0 1 0.50000000000000011 0.8660254037844386 0 0.8660254037844386 -0.50000000000000011 0 2
1 27.963720558371186 -70.434584775757216 0 0.50000000000000011 -0.8660254037844386 0 0 0 1 -0.8660254037844386 -0.50000000000000011 0 
1 -47.016279441628861 -59.434584775757195 0 -0.50000000000000044 -0.86602540378443849 0 0 0 1 -0.86602540378443849 0.50000000000000044 0 
1 -74.980000000000004 11.000000000000009 0 -1 1.2246467991473532e-16 0 0 0 1 1.2246467991473532e-16 1 0 
1 -27.963720558371161 70.434584775757216 0 -0.49999999999999983 0.86602540378443882 0 0 0 1 0.86602540378443882 0.49999999999999983 0 
1 47.016279441628832 59.434584775757216 0 0.50000000000000011 0.8660254037844386 0 0 0 1 0.8660254037844386 -0.50000000000000011 0 
Triangulations 0

TShapes 524
Ve
1.00000604222498e-07
39.4968353162627 -11.0000000000005 0
0 0

0101101
*
Ve
1e-07
41 -1.00421037530083e-14 0
0 0

0101101
*
Ed
 1e-07 1 1 0
1  1 0 6.0115650081424 6.28318530717959
2  1 2 0 6.0115650081424 6.28318530717959
2  2 1 0 6.0115650081424 6.28318530717959
2  3 3 0 6.0115650081424 6.28318530717959
0

0101000
+524 0 -523 0 *
Ve
1e-07
39 -11 0
0 0

0101101
*
Ed
 1e-07 1 1 0
1  2 0 2 2.4968353162627
2  4 3 0 2 2.4968353162627
2  5 4 0 2 2.4968353162627
2  6 1 0 2 2.4968353162627
0

0101000
+521 0 -524 0 *
Ve
1e-07
37 -9 0
0 0

0101101
*
Ed
 1e-07 1 1 0
1  3 0 4.71238898038469 6.28318530717959
2  7 5 0 4.71238898038469 6.28318530717959
2  8 3 0 4.71238898038469 6.28318530717959
2  9 1 0 4.71238898038469 6.28318530717959
0

0101000
+519 0 -521 0 *
Ve
1e-07
37 9 0
0 0

0101101
*
Ed
 1e-07 1 1 0
1  4 0 2 20
2  10 3 0 2 20
2  11 6 0 2 20
2  12 1 0 2 20
0

0101000
+519 0 -517 0 *
Ve
1e-07
39 11 0
0 0

0101101
*
Ed
 1e-07 1 1 0
1  5 0 1.5707963267949 3.14159265358979
2  13 7 0 1.5707963267949 3.14159265358979
2  14 3 0 1.5707963267949 3.14159265358979
2  15 1 0 1.5707963267949 3.14159265358979
0

0101000
+517 0 -515 0 *
Ve
1.00000629752948e-07
39.4968353162627 11.0000000000006 0
0 0

0101101
*
Ed
 1e-07 1 1 0
1  6 0 2 2.49683531626269
2  16 3 0 2 2.49683531626269
2  17 8 0 2 2.49683531626269
2  18 1 0 2 2.49683531626269
0

0101000
+515 0 -513 0 *
Ed
 1e-07 1 1 0
1  1 0 0 0.271620299037186
2  1 2 0 0 0.271620299037186
2  2 1 0 0 0.271620299037186
2  19 3 0 0 0.271620299037186
0

0101000
+523 0 -513 0 *
Wi

0101100
+522 0 +520 0 +518 0 -516 0 -514 0 -512 0 +511 0 *
Fa
0  1e-07 1 0

0101000
+510 0 *
Ve
1e-07
72.98 11 0
0 0

0101101
*
Ed
 1e-07 1 1 0
1  6 0 2.49683531626269 35.98
2  16 3 0 2.49683531626269 35.98
2  17 8 0 2.49683531626269 35.98
0

0101000
+513 0 -508 0 *
Ve
1e-07
74.98 9 0
0 0

0101101
*
Ed
 1e-07 1 1 0
1  7 0 1.5707963267949 3.14159265358979
2  20 9 0 1.5707963267949 3.14159265358979
2  21 3 0 1.5707963267949 3.14159265358979
0

0101000
+506 0 -508 0 *
Ve
1e-07
74.98 -9 0
0 0

0101101
*
Ed
 1e-07 1 1 0
1  8 0 2 20
2  22 3 0 2 20
0

0101000
+504 0 -506 0 *
Ve
1e-07
72.98 -11 0
0 0

0101101
*
Ed
 1e-07 1 1 0
1  9 0 4.71238898038469 6.28318530717959
2  23 10 0 4.71238898038469 6.28318530717959
2  24 3 0 4.71238898038469 6.28318530717959
0

0101000
+504 0 -502 0 *
Ed
 1e-07 1 1 0
1  2 0 2.4968353162627 35.98
2  4 3 0 2.4968353162627 35.98
2  5 4 0 2.4968353162627 35.98
0

0101000
+524 0 -502 0 *
Wi

0101100
-522 0 -511 0 -507 0 +505 0 +503 0 -501 0 +500 0 *
Fa
0  1e-07 3 0

0101000
+499 0 *
Ve
1.00000038428474e-07
36.4644989272661 -18.7440742098245 0
0 0

0101101
*
Ed
 1e-07 1 1 0
1  1 0 5.8083718571366 6.0115650081424
2  1 2 0 5.8083718571366 6.0115650081424
2  2 1 0 5.8083718571366 6.0115650081424
0

0101000
+497 0 -524 0 *
Ve
1.00000038428474e-07
34.4650938997618 -22.2071453023707 0
0 0

0101101
*
Ed
 1e-07 1 1 0
1  10 0 1.59518898957255 4.68799631760703
2  25 1 0 1.59518898957255 4.68799631760703
2  26 11 0 1.59518898957255 4.68799631760703
0

0101000
+497 0 -495 0 *
Ve
1.0000090174564e-07
29.2746970997599 -28.7052627529749 0
0 0

0101101
*
Ed
 1e-07 1 1 0
1  1 0 5.50760805502014 5.71080120602598
2  1 2 0 5.50760805502014 5.71080120602598
2  2 1 0 5.50760805502014 5.71080120602598
0

0101000
+493 0 -495 0 *
Ve
1e-07
29.0262794416288 -28.2749907475931 0
0 0

0101101
*
Ed
 1e-07 1 1 0
1  11 0 2 2.49683531626344
2  27 12 0 2 2.49683531626344
2  28 13 0 2 2.49683531626344
2  29 1 0 2 2.49683531626344
0

0101000
+491 0 -493 0 *
Ve
1e-07
26.29422863406 -27.5429399400242 0
0 0

0101101
*
Ed
 1e-07 1 1 0
1  12 0 1.5707963267949 3.14159265358979
2  30 14 0 1.5707963267949 3.14159265358979
2  31 12 0 1.5707963267949 3.14159265358979
2  32 1 0 1.5707963267949 3.14159265358979
0

0101000
+489 0 -491 0 *
Ve
1e-07
10.7057713659401 -36.5429399400242 0
0 0

0101101
*
Ed
 1e-07 1 1 0
1  13 0 2 20
2  33 15 0 2 20
2  34 12 0 2 20
2  35 1 0 2 20
0

0101000
+487 0 -489 0 *
Ve
1e-07
9.97372055837118 -39.2749907475931 0
0 0

0101101
*
Ed
 1e-07 1 1 0
1  14 0 4.71238898038469 6.28318530717959
2  36 16 0 4.71238898038469 6.28318530717959
2  37 12 0 4.71238898038469 6.28318530717959
2  38 1 0 4.71238898038469 6.28318530717959
0

0101000
+487 0 -485 0 *
Ve
1.00000819023798e-07
10.2221382165019 -39.7052627529741 0
0 0

0101101
*
Ed
 1e-07 1 1 0
1  15 0 2 2.4968353162626
2  39 12 0 2 2.4968353162626
2  40 17 0 2 2.4968353162626
2  41 1 0 2 2.4968353162626
0

0101000
+485 0 -483 0 *
Ve
1.00000038635761e-07
1.99940502750434 -40.9512195121951 0
0 0

0101101
*
Ed
 1e-07 1 1 0
1  1 0 4.76117430594 4.9643674569458
2  1 2 0 4.76117430594 4.9643674569458
2  2 1 0 4.76117430594 4.9643674569458
0

0101000
+481 0 -483 0 *
Ve
1.00000036415315e-07
-1.99940502750436 -40.9512195121951 0
0 0

0101101
*
Ed
 1e-07 1 1 0
1  16 0 1.59518898957255 4.68799631760704
2  42 1 0 1.59518898957255 4.68799631760704
2  43 18 0 1.59518898957255 4.68799631760704
0

0101000
+481 0 -479 0 *
Ve
1.00000817247709e-07
-10.2221382165019 -39.7052627529741 0
0 0

0101101
*
Ed
 1e-07 1 1 0
1  1 0 4.46041050382358 4.66360365482938
2  1 2 0 4.46041050382358 4.66360365482938
2  2 1 0 4.46041050382358 4.66360365482938
0

0101000
+477 0 -479 0 *
Ve
1e-07
-9.97372055837119 -39.2749907475931 0
0 0

0101101
*
Ed
 1e-07 1 1 0
1  17 0 2 2.49683531626259
2  44 19 0 2 2.49683531626259
2  45 20 0 2 2.49683531626259
2  46 1 0 2 2.49683531626259
0

0101000
+475 0 -477 0 *
Ve
1e-07
-10.7057713659401 -36.5429399400242 0
0 0

0101101
*
Ed
 1e-07 1 1 0
1  18 0 1.5707963267949 3.14159265358979
2  47 21 0 1.5707963267949 3.14159265358979
2  48 19 0 1.5707963267949 3.14159265358979
2  49 1 0 1.5707963267949 3.14159265358979
0

0101000
+473 0 -475 0 *
Ve
1e-07
-26.29422863406 -27.5429399400242 0
0 0

0101101
*
Ed
 1e-07 1 1 0
1  19 0 2 20
2  50 22 0 2 20
2  51 19 0 2 20
2  52 1 0 2 20
0

0101000
+471 0 -473 0 *
Ve
1e-07
-29.0262794416288 -28.2749907475931 0
0 0

0101101
*
Ed
 1e-07 1 1 0
1  20 0 4.71238898038469 6.28318530717959
2  53 23 0 4.71238898038469 6.28318530717959
2  54 19 0 4.71238898038469 6.28318530717959
2  55 1 0 4.71238898038469 6.28318530717959
0

0101000
+471 0 -469 0 *
Ve
1.00000949286159e-07
-29.2746970997599 -28.7052627529749 0
0 0

0101101
*
Ed
 1e-07 1 1 0
1  21 0 2 2.49683531626346
2  56 19 0 2 2.49683531626346
2  57 24 0 2 2.49683531626346
2  58 1 0 2 2.49683531626346
0

0101000
+469 0 -467 0 *
Ve
1.00000070070466e-07
-34.4650938997618 -22.2071453023706 0
0 0

0101101
*
Ed
 1e-07 1 1 0
1  1 0 3.7139767547434 3.91716990574924
2  1 2 0 3.7139767547434 3.91716990574924
2  2 1 0 3.7139767547434 3.91716990574924
0

0101000
+465 0 -467 0 *
Ve
1.00000034990172e-07
-36.4644989272661 -18.7440742098245 0
0 0

0101101
*
Ed
 1e-07 1 1 0
1  22 0 1.59518898957255 4.68799631760704
2  59 1 0 1.59518898957255 4.68799631760704
2  60 25 0 1.59518898957255 4.68799631760704
0

0101000
+465 0 -463 0 *
Ve
1.00000446714014e-07
-39.4968353162628 -11.0000000000004 0
0 0

0101101
*
Ed
 1e-07 1 1 0
1  1 0 3.41321295262697 3.61640610363278
2  1 2 0 3.41321295262697 3.61640610363278
2  2 1 0 3.41321295262697 3.61640610363278
0

0101000
+461 0 -463 0 *
Ve
1e-07
-39 -11 0
0 0

0101101
*
Ed
 1e-07 1 1 0
1  23 0 2 2.49683531626278
2  61 26 0 2 2.49683531626278
2  62 27 0 2 2.49683531626278
2  63 1 0 2 2.49683531626278
0

0101000
+459 0 -461 0 *
Ve
1e-07
-37 -8.99999999999999 0
0 0

0101101
*
Ed
 1e-07 1 1 0
1  24 0 1.5707963267949 3.14159265358979
2  64 28 0 1.5707963267949 3.14159265358979
2  65 26 0 1.5707963267949 3.14159265358979
2  66 1 0 1.5707963267949 3.14159265358979
0

0101000
+457 0 -459 0 *
Ve
1e-07
-37 9.00000000000001 0
0 0

0101101
*
Ed
 1e-07 1 1 0
1  25 0 2 20
2  67 29 0 2 20
2  68 26 0 2 20
2  69 1 0 2 20
0

0101000
+455 0 -457 0 *
Ve
1e-07
-39 11 0
0 0

0101101
*
Ed
 1e-07 1 1 0
1  26 0 4.71238898038469 6.28318530717959
2  70 30 0 4.71238898038469 6.28318530717959
2  71 26 0 4.71238898038469 6.28318530717959
2  72 1 0 4.71238898038469 6.28318530717959
0

0101000
+455 0 -453 0 *
Ve
1.00000322813453e-07
-39.4968353162632 10.9999999999997 0
0 0

0101101
*
Ed
 1e-07 1 1 0
1  27 0 2 2.49683531626315
2  73 26 0 2 2.49683531626315
2  74 31 0 2 2.49683531626315
2  75 1 0 2 2.49683531626315
0

0101000
+453 0 -451 0 *
Ve
1.00000020097183e-07
-36.4644989272661 18.7440742098245 0
0 0

0101101
*
Ed
 1e-07 1 1 0
1  1 0 2.66677920354681 2.86997235455263
2  1 2 0 2.66677920354681 2.86997235455263
2  2 1 0 2.66677920354681 2.86997235455263
0

0101000
+449 0 -451 0 *
Ve
1.00000025618983e-07
-34.4650938997618 22.2071453023706 0
0 0

0101101
*
Ed
 1e-07 1 1 0
1  28 0 1.59518898957255 4.68799631760703
2  76 1 0 1.59518898957255 4.68799631760703
2  77 32 0 1.59518898957255 4.68799631760703
0

0101000
+449 0 -447 0 *
Ve
1.00000949286159e-07
-29.2746970997598 28.705262752975 0
0 0

0101101
*
Ed
 1e-07 1 1 0
1  1 0 2.36601540143034 2.56920855243618
2  1 2 0 2.36601540143034 2.56920855243618
2  2 1 0 2.36601540143034 2.56920855243618
0

0101000
+445 0 -447 0 *
Ve
1e-07
-29.0262794416288 28.2749907475931 0
0 0

0101101
*
Ed
 1e-07 1 1 0
1  29 0 2 2.49683531626346
2  78 33 0 2 2.49683531626346
2  79 34 0 2 2.49683531626346
2  80 1 0 2 2.49683531626346
0

0101000
+443 0 -445 0 *
Ve
1e-07
-26.2942286340599 27.5429399400242 0
0 0

0101101
*
Ed
 1e-07 1 1 0
1  30 0 1.5707963267949 3.14159265358979
2  81 35 0 1.5707963267949 3.14159265358979
2  82 33 0 1.5707963267949 3.14159265358979
2  83 1 0 1.5707963267949 3.14159265358979
0

0101000
+441 0 -443 0 *
Ve
1e-07
-10.70577136594 36.5429399400242 0
0 0

0101101
*
Ed
 1e-07 1 1 0
1  31 0 2 20
2  84 36 0 2 20
2  85 33 0 2 20
2  86 1 0 2 20
0

0101000
+439 0 -441 0 *
Ve
1e-07
-9.97372055837117 39.2749907475931 0
0 0

0101101
*
Ed
 1e-07 1 1 0
1  32 0 4.71238898038469 6.28318530717959
2  87 37 0 4.71238898038469 6.28318530717959
2  88 33 0 4.71238898038469 6.28318530717959
2  89 1 0 4.71238898038469 6.28318530717959
0

0101000
+439 0 -437 0 *
Ve
1.00000788734442e-07
-10.2221382165019 39.7052627529741 0
0 0

0101101
*
Ed
 1e-07 1 1 0
1  33 0 2 2.49683531626261
2  90 33 0 2 2.49683531626261
2  91 38 0 2 2.49683531626261
2  92 1 0 2 2.49683531626261
0

0101000
+437 0 -435 0 *
Ve
1.00000021316282e-07
-1.99940502750433 40.9512195121951 0
0 0

0101101
*
Ed
 1e-07 1 1 0
1  1 0 1.61958165235021 1.82277480335601
2  1 2 0 1.61958165235021 1.82277480335601
2  2 1 0 1.61958165235021 1.82277480335601
0

0101000
+433 0 -435 0 *
Ve
1.00000018429702e-07
1.99940502750433 40.9512195121951 0
0 0

0101101
*
Ed
 1e-07 1 1 0
1  34 0 1.59518898957255 4.68799631760704
2  93 1 0 1.59518898957255 4.68799631760704
2  94 39 0 1.59518898957255 4.68799631760704
0

0101000
+433 0 -431 0 *
Ve
1.00000792382592e-07
10.2221382165019 39.7052627529741 0
0 0

0101101
*
Ed
 1e-07 1 1 0
1  1 0 1.31881785023379 1.52201100123959
2  1 2 0 1.31881785023379 1.52201100123959
2  2 1 0 1.31881785023379 1.52201100123959
0

0101000
+429 0 -431 0 *
Ve
1e-07
9.97372055837118 39.2749907475931 0
0 0

0101101
*
Ed
 1e-07 1 1 0
1  35 0 2 2.49683531626261
2  95 40 0 2 2.49683531626261
2  96 41 0 2 2.49683531626261
2  97 1 0 2 2.49683531626261
0

0101000
+427 0 -429 0 *
Ve
1e-07
10.7057713659401 36.5429399400242 0
0 0

0101101
*
Ed
 1e-07 1 1 0
1  36 0 1.5707963267949 3.14159265358979
2  98 42 0 1.5707963267949 3.14159265358979
2  99 40 0 1.5707963267949 3.14159265358979
2  100 1 0 1.5707963267949 3.14159265358979
0

0101000
+425 0 -427 0 *
Ve
1e-07
26.29422863406 27.5429399400242 0
0 0

0101101
*
Ed
 1e-07 1 1 0
1  37 0 2 20
2  101 43 0 2 20
2  102 40 0 2 20
2  103 1 0 2 20
0

0101000
+423 0 -425 0 *
Ve
1e-07
29.0262794416288 28.2749907475931 0
0 0

0101101
*
Ed
 1e-07 1 1 0
1  38 0 4.71238898038469 6.28318530717959
2  104 44 0 4.71238898038469 6.28318530717959
2  105 40 0 4.71238898038469 6.28318530717959
2  106 1 0 4.71238898038469 6.28318530717959
0

0101000
+423 0 -421 0 *
Ve
1.00000939556761e-07
29.2746970997598 28.7052627529749 0
0 0

0101101
*
Ed
 1e-07 1 1 0
1  39 0 2 2.49683531626346
2  107 40 0 2 2.49683531626346
2  108 45 0 2 2.49683531626346
2  109 1 0 2 2.49683531626346
0

0101000
+421 0 -419 0 *
Ve
1.00000041431405e-07
34.4650938997618 22.2071453023706 0
0 0

0101101
*
Ed
 1e-07 1 1 0
1  1 0 0.57238410115361 0.775577252159449
2  1 2 0 0.57238410115361 0.775577252159449
2  2 1 0 0.57238410115361 0.775577252159449
0

0101000
+417 0 -419 0 *
Ve
1.00000041431405e-07
36.4644989272661 18.7440742098245 0
0 0

0101101
*
Ed
 1e-07 1 1 0
1  40 0 1.59518898957255 4.68799631760703
2  110 1 0 1.59518898957255 4.68799631760703
2  111 46 0 1.59518898957255 4.68799631760703
0

0101000
+417 0 -415 0 *
Ed
 1e-07 1 1 0
1  1 0 0.271620299037186 0.474813450042987
2  1 2 0 0.271620299037186 0.474813450042987
2  2 1 0 0.271620299037186 0.474813450042987
0

0101000
+513 0 -415 0 *
Wi

0101100
-518 0 -520 0 +496 0 -494 0 +492 0 +490 0 +488 0 +486 0 -484 0 -482 0 
+480 0 -478 0 +476 0 +474 0 +472 0 +470 0 -468 0 -466 0 +464 0 -462 0 
+460 0 +458 0 +456 0 +454 0 -452 0 -450 0 +448 0 -446 0 +444 0 +442 0 
+440 0 +438 0 -436 0 -434 0 +432 0 -430 0 +428 0 +426 0 +424 0 +422 0 
-420 0 -418 0 +416 0 -414 0 +413 0 +512 0 +514 0 +516 0 *
Ve
1e-07
20 -4.89858719658941e-15 0
0 0

0101101
*
Ed
 1e-07 1 1 0
1  41 0 0 6.28318530717959
2  112 47 0 0 6.28318530717959
2  113 48 0 0 6.28318530717959
2  114 1 0 0 6.28318530717959
0

0101000
+411 0 -411 0 *
Wi

0101100
-410 0 *
Fa
0  1e-07 1 0

0101000
+412 0 +409 0 *
Ve
1e-07
72.98 11 12
0 0

0101101
*
Ed
 1e-07 1 1 0
1  42 0 0 12
2  115 9 0 0 12
4 G1 8 0 9 0
2  116 8 0 0 12
0

0101000
+508 0 -407 0 *
Ve
1.00000629752948e-07
39.4968353162627 11.0000000000006 12
0 0

0101101
*
Ed
 1e-07 1 1 0
1  43 0 2.49683531626269 35.98
2  117 49 0 2.49683531626269 35.98
2  118 8 0 2.49683531626269 35.98
0

0101000
+405 0 -407 0 *
Ed
 1e-07 1 1 0
1  44 0 0 12
2  119 2 0 0 12
2  120 8 0 0 12
0

0101000
+513 0 -405 0 *
Wi

0101100
-507 0 -406 0 +404 0 +403 0 *
Fa
0  1e-07 8 0

0101000
+402 0 *
Ve
1e-07
74.98 9 12
0 0

0101101
*
Ed
 1e-07 1 1 0
1  45 0 0 12
2  121 9 0 0 12
4 G1 9 0 50 0
0

0101000
+506 0 -400 0 *
Ed
 1e-07 1 1 0
1  46 0 1.5707963267949 3.14159265358979
2  122 9 0 1.5707963267949 3.14159265358979
2  123 49 0 1.5707963267949 3.14159265358979
0

0101000
+400 0 -407 0 *
Wi

0101100
+505 0 -399 0 +406 0 -398 0 *
Fa
0  1e-07 9 0

0101000
+397 0 *
Ve
1e-07
74.98 -9 12
0 0

0101101
*
Ed
 1e-07 1 1 0
1  47 0 2 20
2  124 49 0 2 20
0

0101000
+395 0 -400 0 *
Ed
 1e-07 1 1 0
1  48 0 0 12
2  125 10 0 0 12
4 G1 10 0 50 0
0

0101000
+504 0 -395 0 *
Wi

0101100
-394 0 -393 0 +399 0 +503 0 *
Fa
0  1e-07 50 0

0101000
+392 0 *
Ve
1e-07
72.98 -11 12
0 0

0101101
*
Ed
 1e-07 1 1 0
1  49 0 0 12
2  126 10 0 0 12
4 G1 4 0 10 0
2  127 4 0 0 12
0

0101000
+502 0 -390 0 *
Ed
 1e-07 1 1 0
1  50 0 4.71238898038469 6.28318530717959
2  128 10 0 4.71238898038469 6.28318530717959
2  129 49 0 4.71238898038469 6.28318530717959
0

0101000
+395 0 -390 0 *
Wi

0101100
+501 0 -393 0 +389 0 -388 0 *
Fa
0  1e-07 10 0

0101000
+387 0 *
Ve
1.00000604222498e-07
39.4968353162627 -11.0000000000005 12
0 0

0101101
*
Ed
 1e-07 1 1 0
1  51 0 2.4968353162627 35.98
2  130 49 0 2.4968353162627 35.98
2  131 4 0 2.4968353162627 35.98
0

0101000
+385 0 -390 0 *
Ed
 1e-07 1 1 0
1  52 0 0 12
2  132 2 0 0 12
2  133 4 0 0 12
0

0101000
+524 0 -385 0 *
Wi

0101100
-500 0 -389 0 +384 0 +383 0 *
Fa
0  1e-07 4 0

0101000
+382 0 *
Ve
1.00000038428474e-07
36.4644989272661 -18.7440742098245 12
0 0

0101101
*
Ed
 1e-07 1 1 0
1  53 0 5.8083718571366 6.0115650081424
2  134 2 0 5.8083718571366 6.0115650081424
2  135 51 0 5.8083718571366 6.0115650081424
0

0101000
+380 0 -385 0 *
Ed
 1e-07 1 1 0
1  54 0 0 12
2  136 2 0 0 12
2  137 11 0 0 12
0

0101000
+497 0 -380 0 *
Wi

0101100
-379 0 +383 0 +496 0 -378 0 *
Fa
0  1e-07 2 0

0101000
+377 0 *
Ve
1.00000038428474e-07
34.4650938997618 -22.2071453023707 12
0 0

0101101
*
Ed
 1e-07 1 1 0
1  55 0 1.59518898957255 4.68799631760703
2  138 51 0 1.59518898957255 4.68799631760703
2  139 11 0 1.59518898957255 4.68799631760703
0

0101000
+380 0 -375 0 *
Ed
 1e-07 1 1 0
1  56 0 0 12
2  140 2 0 0 12
2  141 11 0 0 12
0

0101000
+495 0 -375 0 *
Wi

0101100
-378 0 -374 0 +373 0 +494 0 *
Fa
0  1e-07 11 0

0101000
+372 0 *
Ve
1.0000090174564e-07
29.2746970997599 -28.7052627529749 12
0 0

0101101
*
Ed
 1e-07 1 1 0
1  53 0 5.50760805502014 5.71080120602598
2  134 2 0 5.50760805502014 5.71080120602598
2  135 51 0 5.50760805502014 5.71080120602598
0

0101000
+370 0 -375 0 *
Ed
 1e-07 1 1 0
1  57 0 0 12
2  142 2 0 0 12
2  143 13 0 0 12
0

0101000
+493 0 -370 0 *
Wi

0101100
-369 0 +373 0 +492 0 -368 0 *
Fa
0  1e-07 2 0

0101000
+367 0 *
Ed
 1e-07 1 1 0
1  1 0 4.9643674569458 5.50760805502014
2  1 2 0 4.9643674569458 5.50760805502014
2  2 1 0 4.9643674569458 5.50760805502014
2  144 12 0 4.9643674569458 5.50760805502014
0

0101000
+483 0 -493 0 *
Wi

0101100
+365 0 +482 0 +484 0 -486 0 -488 0 -490 0 *
Fa
0  1e-07 1 0

0101000
+364 0 *
Ve
1.00000038635761e-07
1.99940502750434 -40.9512195121951 12
0 0

0101101
*
Ve
1.00000819023798e-07
10.2221382165019 -39.7052627529741 12
0 0

0101101
*
Ed
 1e-07 1 1 0
1  53 0 4.76117430594 4.9643674569458
2  134 2 0 4.76117430594 4.9643674569458
2  135 51 0 4.76117430594 4.9643674569458
0

0101000
+362 0 -361 0 *
Ed
 1e-07 1 1 0
1  58 0 0 12
2  145 2 0 0 12
2  146 17 0 0 12
0

0101000
+483 0 -361 0 *
Ed
 1e-07 1 1 0
1  59 0 0 12
2  147 2 0 0 12
2  148 18 0 0 12
0

0101000
+481 0 -362 0 *
Wi

0101100
-360 0 +359 0 +480 0 -358 0 *
Fa
0  1e-07 2 0

0101000
+357 0 *
Ve
1.00000036415315e-07
-1.99940502750436 -40.9512195121951 12
0 0

0101101
*
Ed
 1e-07 1 1 0
1  60 0 1.59518898957255 4.68799631760704
2  149 51 0 1.59518898957255 4.68799631760704
2  150 18 0 1.59518898957255 4.68799631760704
0

0101000
+362 0 -355 0 *
Ed
 1e-07 1 1 0
1  61 0 0 12
2  151 2 0 0 12
2  152 18 0 0 12
0

0101000
+479 0 -355 0 *
Wi

0101100
-358 0 -354 0 +353 0 +478 0 *
Fa
0  1e-07 18 0

0101000
+352 0 *
Ve
1.00000817247709e-07
-10.2221382165019 -39.7052627529741 12
0 0

0101101
*
Ed
 1e-07 1 1 0
1  53 0 4.46041050382358 4.66360365482938
2  134 2 0 4.46041050382358 4.66360365482938
2  135 51 0 4.46041050382358 4.66360365482938
0

0101000
+350 0 -355 0 *
Ed
 1e-07 1 1 0
1  62 0 0 12
2  153 2 0 0 12
2  154 20 0 0 12
0

0101000
+477 0 -350 0 *
Wi

0101100
-349 0 +353 0 +476 0 -348 0 *
Fa
0  1e-07 2 0

0101000
+347 0 *
Ed
 1e-07 1 1 0
1  1 0 3.91716990574924 4.46041050382358
2  1 2 0 3.91716990574924 4.46041050382358
2  2 1 0 3.91716990574924 4.46041050382358
2  155 19 0 3.91716990574924 4.46041050382358
0

0101000
+467 0 -477 0 *
Wi

0101100
+345 0 +466 0 +468 0 -470 0 -472 0 -474 0 *
Fa
0  1e-07 1 0

0101000
+344 0 *
Ve
1.00000070070466e-07
-34.4650938997618 -22.2071453023706 12
0 0

0101101
*
Ve
1.00000949286159e-07
-29.2746970997599 -28.7052627529749 12
0 0

0101101
*
Ed
 1e-07 1 1 0
1  53 0 3.7139767547434 3.91716990574924
2  134 2 0 3.7139767547434 3.91716990574924
2  135 51 0 3.7139767547434 3.91716990574924
0

0101000
+342 0 -341 0 *
Ed
 1e-07 1 1 0
1  63 0 0 12
2  156 2 0 0 12
2  157 24 0 0 12
0

0101000
+467 0 -341 0 *
Ed
 1e-07 1 1 0
1  64 0 0 12
2  158 2 0 0 12
2  159 25 0 0 12
0

0101000
+465 0 -342 0 *
Wi

0101100
-340 0 +339 0 +464 0 -338 0 *
Fa
0  1e-07 2 0

0101000
+337 0 *
Ve
1.00000034990172e-07
-36.4644989272661 -18.7440742098245 12
0 0

0101101
*
Ed
 1e-07 1 1 0
1  65 0 1.59518898957255 4.68799631760704
2  160 51 0 1.59518898957255 4.68799631760704
2  161 25 0 1.59518898957255 4.68799631760704
0

0101000
+342 0 -335 0 *
Ed
 1e-07 1 1 0
1  66 0 0 12
2  162 2 0 0 12
2  163 25 0 0 12
0

0101000
+463 0 -335 0 *
Wi

0101100
-338 0 -334 0 +333 0 +462 0 *
Fa
0  1e-07 25 0

0101000
+332 0 *
Ve
1.00000446714014e-07
-39.4968353162628 -11.0000000000004 12
0 0

0101101
*
Ed
 1e-07 1 1 0
1  53 0 3.41321295262697 3.61640610363278
2  134 2 0 3.41321295262697 3.61640610363278
2  135 51 0 3.41321295262697 3.61640610363278
0

0101000
+330 0 -335 0 *
Ed
 1e-07 1 1 0
1  67 0 0 12
2  164 2 0 0 12
2  165 27 0 0 12
0

0101000
+461 0 -330 0 *
Wi

0101100
-329 0 +333 0 +460 0 -328 0 *
Fa
0  1e-07 2 0

0101000
+327 0 *
Ed
 1e-07 1 1 0
1  1 0 2.86997235455263 3.41321295262697
2  1 2 0 2.86997235455263 3.41321295262697
2  2 1 0 2.86997235455263 3.41321295262697
2  166 26 0 2.86997235455263 3.41321295262697
0

0101000
+451 0 -461 0 *
Wi

0101100
+325 0 +450 0 +452 0 -454 0 -456 0 -458 0 *
Fa
0  1e-07 1 0

0101000
+324 0 *
Ve
1.00000020097183e-07
-36.4644989272661 18.7440742098245 12
0 0

0101101
*
Ve
1.00000322813453e-07
-39.4968353162632 10.9999999999997 12
0 0

0101101
*
Ed
 1e-07 1 1 0
1  53 0 2.66677920354681 2.86997235455263
2  134 2 0 2.66677920354681 2.86997235455263
2  135 51 0 2.66677920354681 2.86997235455263
0

0101000
+322 0 -321 0 *
Ed
 1e-07 1 1 0
1  68 0 0 12
2  167 2 0 0 12
2  168 31 0 0 12
0

0101000
+451 0 -321 0 *
Ed
 1e-07 1 1 0
1  69 0 0 12
2  169 2 0 0 12
2  170 32 0 0 12
0

0101000
+449 0 -322 0 *
Wi

0101100
-320 0 +319 0 +448 0 -318 0 *
Fa
0  1e-07 2 0

0101000
+317 0 *
Ve
1.00000025618983e-07
-34.4650938997618 22.2071453023706 12
0 0

0101101
*
Ed
 1e-07 1 1 0
1  70 0 1.59518898957255 4.68799631760703
2  171 51 0 1.59518898957255 4.68799631760703
2  172 32 0 1.59518898957255 4.68799631760703
0

0101000
+322 0 -315 0 *
Ed
 1e-07 1 1 0
1  71 0 0 12
2  173 2 0 0 12
2  174 32 0 0 12
0

0101000
+447 0 -315 0 *
Wi

0101100
-318 0 -314 0 +313 0 +446 0 *
Fa
0  1e-07 32 0

0101000
+312 0 *
Ve
1.00000949286159e-07
-29.2746970997598 28.705262752975 12
0 0

0101101
*
Ed
 1e-07 1 1 0
1  53 0 2.36601540143034 2.56920855243618
2  134 2 0 2.36601540143034 2.56920855243618
2  135 51 0 2.36601540143034 2.56920855243618
0

0101000
+310 0 -315 0 *
Ed
 1e-07 1 1 0
1  72 0 0 12
2  175 2 0 0 12
2  176 34 0 0 12
0

0101000
+445 0 -310 0 *
Wi

0101100
-309 0 +313 0 +444 0 -308 0 *
Fa
0  1e-07 2 0

0101000
+307 0 *
Ed
 1e-07 1 1 0
1  1 0 1.82277480335601 2.36601540143034
2  1 2 0 1.82277480335601 2.36601540143034
2  2 1 0 1.82277480335601 2.36601540143034
2  177 33 0 1.82277480335601 2.36601540143034
0

0101000
+435 0 -445 0 *
Wi

0101100
+305 0 +434 0 +436 0 -438 0 -440 0 -442 0 *
Fa
0  1e-07 1 0

0101000
+304 0 *
Ve
1.00000021316282e-07
-1.99940502750433 40.9512195121951 12
0 0

0101101
*
Ve
1.00000788734442e-07
-10.2221382165019 39.7052627529741 12
0 0

0101101
*
Ed
 1e-07 1 1 0
1  53 0 1.61958165235021 1.82277480335601
2  134 2 0 1.61958165235021 1.82277480335601
2  135 51 0 1.61958165235021 1.82277480335601
0

0101000
+302 0 -301 0 *
Ed
 1e-07 1 1 0
1  73 0 0 12
2  178 2 0 0 12
2  179 38 0 0 12
0

0101000
+435 0 -301 0 *
Ed
 1e-07 1 1 0
1  74 0 0 12
2  180 2 0 0 12
2  181 39 0 0 12
0

0101000
+433 0 -302 0 *
Wi

0101100
-300 0 +299 0 +432 0 -298 0 *
Fa
0  1e-07 2 0

0101000
+297 0 *
Ve
1.00000018429702e-07
1.99940502750433 40.9512195121951 12
0 0

0101101
*
Ed
 1e-07 1 1 0
1  75 0 1.59518898957255 4.68799631760704
2  182 51 0 1.59518898957255 4.68799631760704
2  183 39 0 1.59518898957255 4.68799631760704
0

0101000
+302 0 -295 0 *
Ed
 1e-07 1 1 0
1  76 0 0 12
2  184 2 0 0 12
2  185 39 0 0 12
0

0101000
+431 0 -295 0 *
Wi

0101100
-298 0 -294 0 +293 0 +430 0 *
Fa
0  1e-07 39 0

0101000
+292 0 *
Ve
1.00000792382592e-07
10.2221382165019 39.7052627529741 12
0 0

0101101
*
Ed
 1e-07 1 1 0
1  53 0 1.31881785023379 1.52201100123959
2  134 2 0 1.31881785023379 1.52201100123959
2  135 51 0 1.31881785023379 1.52201100123959
0

0101000
+290 0 -295 0 *
Ed
 1e-07 1 1 0
1  77 0 0 12
2  186 2 0 0 12
2  187 41 0 0 12
0

0101000
+429 0 -290 0 *
Wi

0101100
-289 0 +293 0 +428 0 -288 0 *
Fa
0  1e-07 2 0

0101000
+287 0 *
Ed
 1e-07 1 1 0
1  1 0 0.775577252159449 1.31881785023379
2  1 2 0 0.775577252159449 1.31881785023379
2  2 1 0 0.775577252159449 1.31881785023379
2  188 40 0 0.775577252159449 1.31881785023379
0

0101000
+419 0 -429 0 *
Wi

0101100
+418 0 +420 0 -422 0 -424 0 -426 0 +285 0 *
Fa
0  1e-07 1 0

0101000
+284 0 *
Ve
1.00000041431405e-07
34.4650938997618 22.2071453023706 12
0 0

0101101
*
Ve
1.00000939556761e-07
29.2746970997598 28.7052627529749 12
0 0

0101101
*
Ed
 1e-07 1 1 0
1  53 0 0.57238410115361 0.775577252159449
2  134 2 0 0.57238410115361 0.775577252159449
2  135 51 0 0.57238410115361 0.775577252159449
0

0101000
+282 0 -281 0 *
Ed
 1e-07 1 1 0
1  78 0 0 12
2  189 2 0 0 12
2  190 45 0 0 12
0

0101000
+419 0 -281 0 *
Ed
 1e-07 1 1 0
1  79 0 0 12
2  191 2 0 0 12
2  192 46 0 0 12
0

0101000
+417 0 -282 0 *
Wi

0101100
-280 0 +279 0 +416 0 -278 0 *
Fa
0  1e-07 2 0

0101000
+277 0 *
Ve
1.00000041431405e-07
36.4644989272661 18.7440742098245 12
0 0

0101101
*
Ed
 1e-07 1 1 0
1  80 0 1.59518898957255 4.68799631760703
2  193 51 0 1.59518898957255 4.68799631760703
2  194 46 0 1.59518898957255 4.68799631760703
0

0101000
+282 0 -275 0 *
Ed
 1e-07 1 1 0
1  81 0 0 12
2  195 2 0 0 12
2  196 46 0 0 12
0

0101000
+415 0 -275 0 *
Wi

0101100
-278 0 -274 0 +273 0 +414 0 *
Fa
0  1e-07 46 0

0101000
+272 0 *
Ed
 1e-07 1 1 0
1  53 0 0.271620299037186 0.474813450042987
2  134 2 0 0.271620299037186 0.474813450042987
2  135 51 0 0.271620299037186 0.474813450042987
0

0101000
+405 0 -275 0 *
Wi

0101100
-270 0 +273 0 +413 0 -403 0 *
Fa
0  1e-07 2 0

0101000
+269 0 *
Ve
1e-07
20 -4.89858719658941e-15 12
0 0

0101101
*
Ed
 1e-07 1 1 0
1  82 0 0 6.28318530717959
2  197 47 0 0 6.28318530717959
2  198 52 0 0 6.28318530717959
2  199 51 0 0 6.28318530717959
0

0101000
+267 0 -267 0 *
Ed
 1e-07 1 1 0
1  83 0 0 12
3  200 201CN 47 0 0 12
0

0101000
-267 0 +411 0 *
Wi

0101100
-266 0 +265 0 +410 0 -265 0 *
Fa
0  1e-07 47 0

0101000
+264 0 *
Ve
1e-07
41 -1.00421037530083e-14 12
0 0

0101101
*
Ed
 1e-07 1 1 0
1  53 0 6.0115650081424 6.28318530717959
2  134 2 0 6.0115650081424 6.28318530717959
2  135 51 0 6.0115650081424 6.28318530717959
2  202 49 0 6.0115650081424 6.28318530717959
0

0101000
+385 0 -262 0 *
Ed
 1e-07 1 1 0
1  53 0 0 0.271620299037186
2  134 2 0 0 0.271620299037186
2  135 51 0 0 0.271620299037186
2  203 49 0 0 0.271620299037186
0

0101000
+262 0 -405 0 *
Wi

0101100
-261 0 -260 0 -404 0 +398 0 +394 0 -388 0 +384 0 *
Fa
0  1e-07 49 0

0101000
+259 0 *
Ve
1e-07
37 -9 12
0 0

0101101
*
Ve
1e-07
39 -11 12
0 0

0101101
*
Ed
 1e-07 1 1 0
1  84 0 4.71238898038469 6.28318530717959
2  204 5 0 4.71238898038469 6.28318530717959
2  205 49 0 4.71238898038469 6.28318530717959
2  206 51 0 4.71238898038469 6.28318530717959
0

0101000
+257 0 -256 0 *
Ed
 1e-07 1 1 0
1  51 0 2 2.4968353162627
2  130 49 0 2 2.4968353162627
2  131 4 0 2 2.4968353162627
2  207 51 0 2 2.4968353162627
0

0101000
+256 0 -385 0 *
Ve
1e-07
29.0262794416288 -28.2749907475931 12
0 0

0101101
*
Ed
 1e-07 1 1 0
1  85 0 2 2.49683531626344
2  208 13 0 2 2.49683531626344
2  209 53 0 2 2.49683531626344
2  210 51 0 2 2.49683531626344
0

0101000
+253 0 -370 0 *
Ve
1e-07
26.29422863406 -27.5429399400242 12
0 0

0101101
*
Ed
 1e-07 1 1 0
1  86 0 1.5707963267949 3.14159265358979
2  211 14 0 1.5707963267949 3.14159265358979
2  212 53 0 1.5707963267949 3.14159265358979
2  213 51 0 1.5707963267949 3.14159265358979
0

0101000
+251 0 -253 0 *
Ve
1e-07
10.7057713659401 -36.5429399400242 12
0 0

0101101
*
Ed
 1e-07 1 1 0
1  87 0 2 20
2  214 15 0 2 20
2  215 53 0 2 20
2  216 51 0 2 20
0

0101000
+249 0 -251 0 *
Ve
1e-07
9.97372055837118 -39.2749907475931 12
0 0

0101101
*
Ed
 1e-07 1 1 0
1  88 0 4.71238898038469 6.28318530717959
2  217 16 0 4.71238898038469 6.28318530717959
2  218 53 0 4.71238898038469 6.28318530717959
2  219 51 0 4.71238898038469 6.28318530717959
0

0101000
+249 0 -247 0 *
Ed
 1e-07 1 1 0
1  89 0 2 2.4968353162626
2  220 17 0 2 2.4968353162626
2  221 53 0 2 2.4968353162626
2  222 51 0 2 2.4968353162626
0

0101000
+247 0 -361 0 *
Ve
1e-07
-9.97372055837119 -39.2749907475931 12
0 0

0101101
*
Ed
 1e-07 1 1 0
1  90 0 2 2.49683531626259
2  223 20 0 2 2.49683531626259
2  224 54 0 2 2.49683531626259
2  225 51 0 2 2.49683531626259
0

0101000
+244 0 -350 0 *
Ve
1e-07
-10.7057713659401 -36.5429399400242 12
0 0

0101101
*
Ed
 1e-07 1 1 0
1  91 0 1.5707963267949 3.14159265358979
2  226 21 0 1.5707963267949 3.14159265358979
2  227 54 0 1.5707963267949 3.14159265358979
2  228 51 0 1.5707963267949 3.14159265358979
0

0101000
+242 0 -244 0 *
Ve
1e-07
-26.29422863406 -27.5429399400242 12
0 0

0101101
*
Ed
 1e-07 1 1 0
1  92 0 2 20
2  229 22 0 2 20
2  230 54 0 2 20
2  231 51 0 2 20
0

0101000
+240 0 -242 0 *
Ve
1e-07
-29.0262794416288 -28.2749907475931 12
0 0

0101101
*
Ed
 1e-07 1 1 0
1  93 0 4.71238898038469 6.28318530717959
2  232 23 0 4.71238898038469 6.28318530717959
2  233 54 0 4.71238898038469 6.28318530717959
2  234 51 0 4.71238898038469 6.28318530717959
0

0101000
+240 0 -238 0 *
Ed
 1e-07 1 1 0
1  94 0 2 2.49683531626346
2  235 24 0 2 2.49683531626346
2  236 54 0 2 2.49683531626346
2  237 51 0 2 2.49683531626346
0

0101000
+238 0 -341 0 *
Ve
1e-07
-39 -11 12
0 0

0101101
*
Ed
 1e-07 1 1 0
1  95 0 2 2.49683531626278
2  238 27 0 2 2.49683531626278
2  239 55 0 2 2.49683531626278
2  240 51 0 2 2.49683531626278
0

0101000
+235 0 -330 0 *
Ve
1e-07
-37 -8.99999999999999 12
0 0

0101101
*
Ed
 1e-07 1 1 0
1  96 0 1.5707963267949 3.14159265358979
2  241 28 0 1.5707963267949 3.14159265358979
2  242 55 0 1.5707963267949 3.14159265358979
2  243 51 0 1.5707963267949 3.14159265358979
0

0101000
+233 0 -235 0 *
Ve
1e-07
-37 9.00000000000001 12
0 0

0101101
*
Ed
 1e-07 1 1 0
1  97 0 2 20
2  244 29 0 2 20
2  245 55 0 2 20
2  246 51 0 2 20
0

0101000
+231 0 -233 0 *
Ve
1e-07
-39 11 12
0 0

0101101
*
Ed
 1e-07 1 1 0
1  98 0 4.71238898038469 6.28318530717959
2  247 30 0 4.71238898038469 6.28318530717959
2  248 55 0 4.71238898038469 6.28318530717959
2  249 51 0 4.71238898038469 6.28318530717959
0

0101000
+231 0 -229 0 *
Ed
 1e-07 1 1 0
1  99 0 2 2.49683531626315
2  250 31 0 2 2.49683531626315
2  251 55 0 2 2.49683531626315
2  252 51 0 2 2.49683531626315
0

0101000
+229 0 -321 0 *
Ve
1e-07
-29.0262794416288 28.2749907475931 12
0 0

0101101
*
Ed
 1e-07 1 1 0
1  100 0 2 2.49683531626346
2  253 34 0 2 2.49683531626346
2  254 56 0 2 2.49683531626346
2  255 51 0 2 2.49683531626346
0

0101000
+226 0 -310 0 *
Ve
1e-07
-26.2942286340599 27.5429399400242 12
0 0

0101101
*
Ed
 1e-07 1 1 0
1  101 0 1.5707963267949 3.14159265358979
2  256 35 0 1.5707963267949 3.14159265358979
2  257 56 0 1.5707963267949 3.14159265358979
2  258 51 0 1.5707963267949 3.14159265358979
0

0101000
+224 0 -226 0 *
Ve
1e-07
-10.70577136594 36.5429399400242 12
0 0

0101101
*
Ed
 1e-07 1 1 0
1  102 0 2 20
2  259 36 0 2 20
2  260 56 0 2 20
2  261 51 0 2 20
0

0101000
+222 0 -224 0 *
Ve
1e-07
-9.97372055837117 39.2749907475931 12
0 0

0101101
*
Ed
 1e-07 1 1 0
1  103 0 4.71238898038469 6.28318530717959
2  262 37 0 4.71238898038469 6.28318530717959
2  263 56 0 4.71238898038469 6.28318530717959
2  264 51 0 4.71238898038469 6.28318530717959
0

0101000
+222 0 -220 0 *
Ed
 1e-07 1 1 0
1  104 0 2 2.49683531626261
2  265 38 0 2 2.49683531626261
2  266 56 0 2 2.49683531626261
2  267 51 0 2 2.49683531626261
0

0101000
+220 0 -301 0 *
Ve
1e-07
9.97372055837118 39.2749907475931 12
0 0

0101101
*
Ed
 1e-07 1 1 0
1  105 0 2 2.49683531626261
2  268 41 0 2 2.49683531626261
2  269 57 0 2 2.49683531626261
2  270 51 0 2 2.49683531626261
0

0101000
+217 0 -290 0 *
Ve
1e-07
10.7057713659401 36.5429399400242 12
0 0

0101101
*
Ed
 1e-07 1 1 0
1  106 0 1.5707963267949 3.14159265358979
2  271 42 0 1.5707963267949 3.14159265358979
2  272 57 0 1.5707963267949 3.14159265358979
2  273 51 0 1.5707963267949 3.14159265358979
0

0101000
+215 0 -217 0 *
Ve
1e-07
26.29422863406 27.5429399400242 12
0 0

0101101
*
Ed
 1e-07 1 1 0
1  107 0 2 20
2  274 43 0 2 20
2  275 57 0 2 20
2  276 51 0 2 20
0

0101000
+213 0 -215 0 *
Ve
1e-07
29.0262794416288 28.2749907475931 12
0 0

0101101
*
Ed
 1e-07 1 1 0
1  108 0 4.71238898038469 6.28318530717959
2  277 44 0 4.71238898038469 6.28318530717959
2  278 57 0 4.71238898038469 6.28318530717959
2  279 51 0 4.71238898038469 6.28318530717959
0

0101000
+213 0 -211 0 *
Ed
 1e-07 1 1 0
1  109 0 2 2.49683531626346
2  280 45 0 2 2.49683531626346
2  281 57 0 2 2.49683531626346
2  282 51 0 2 2.49683531626346
0

0101000
+211 0 -281 0 *
Ve
1e-07
39 11 12
0 0

0101101
*
Ed
 1e-07 1 1 0
1  43 0 2 2.49683531626269
2  117 49 0 2 2.49683531626269
2  118 8 0 2 2.49683531626269
2  283 51 0 2 2.49683531626269
0

0101000
+208 0 -405 0 *
Ve
1e-07
37 9 12
0 0

0101101
*
Ed
 1e-07 1 1 0
1  110 0 1.5707963267949 3.14159265358979
2  284 7 0 1.5707963267949 3.14159265358979
2  285 49 0 1.5707963267949 3.14159265358979
2  286 51 0 1.5707963267949 3.14159265358979
0

0101000
+206 0 -208 0 *
Ed
 1e-07 1 1 0
1  111 0 2 20
2  287 49 0 2 20
2  288 6 0 2 20
2  289 51 0 2 20
0

0101000
+257 0 -206 0 *
Wi

0101100
-255 0 -254 0 +379 0 -374 0 +369 0 +252 0 +250 0 +248 0 -246 0 -245 0 
+360 0 -354 0 +349 0 +243 0 +241 0 +239 0 -237 0 -236 0 +340 0 -334 0 
+329 0 +234 0 +232 0 +230 0 -228 0 -227 0 +320 0 -314 0 +309 0 +225 0 
+223 0 +221 0 -219 0 -218 0 +300 0 -294 0 +289 0 +216 0 +214 0 +212 0 
-210 0 -209 0 +280 0 -274 0 +270 0 +207 0 +205 0 +204 0 *
Wi

0101100
-266 0 *
Fa
0  1e-07 51 0

0101000
+203 0 +202 0 *
Ve
1e-07
46.0162794416288 -57.7025339681883 0
0 0

0101101
*
Ed
 1e-07 1 1 0
1  11 0 2.49683531626344 35.98
2  27 12 0 2.49683531626344 35.98
2  28 13 0 2.49683531626344 35.98
0

0101000
+493 0 -200 0 *
Ve
1e-07
46.0162794416288 -57.7025339681883 12
0 0

0101101
*
Ed
 1e-07 1 1 0
1  112 0 0 12
2  290 58 0 0 12
4 G1 13 0 58 0
2  291 13 0 0 12
0

0101000
+200 0 -198 0 *
Ed
 1e-07 1 1 0
1  85 0 2.49683531626344 35.98
2  208 13 0 2.49683531626344 35.98
2  209 53 0 2.49683531626344 35.98
0

0101000
+370 0 -198 0 *
Wi

0101100
-199 0 -197 0 +196 0 +368 0 *
Fa
0  1e-07 13 0

0101000
+195 0 *
Ve
1e-07
45.28422863406 -60.4345847757572 0
0 0

0101101
*
Ed
 1e-07 1 1 0
1  113 0 1.5707963267949 3.14159265358979
2  292 58 0 1.5707963267949 3.14159265358979
2  293 12 0 1.5707963267949 3.14159265358979
0

0101000
+193 0 -200 0 *
Ve
1e-07
29.6957713659401 -69.4345847757572 0
0 0

0101101
*
Ed
 1e-07 1 1 0
1  114 0 2 20
2  294 12 0 2 20
0

0101000
+191 0 -193 0 *
Ve
1e-07
26.9637205583712 -68.7025339681883 0
0 0

0101101
*
Ed
 1e-07 1 1 0
1  115 0 4.71238898038469 6.28318530717959
2  295 59 0 4.71238898038469 6.28318530717959
2  296 12 0 4.71238898038469 6.28318530717959
0

0101000
+191 0 -189 0 *
Ed
 1e-07 1 1 0
1  15 0 2.4968353162626 35.98
2  39 12 0 2.4968353162626 35.98
2  40 17 0 2.4968353162626 35.98
0

0101000
+483 0 -189 0 *
Wi

0101100
-365 0 -199 0 +192 0 +190 0 -188 0 +187 0 *
Fa
0  1e-07 12 0

0101000
+186 0 *
Ve
1e-07
26.9637205583712 -68.7025339681883 12
0 0

0101101
*
Ed
 1e-07 1 1 0
1  116 0 0 12
2  297 59 0 0 12
4 G1 17 0 59 0
2  298 17 0 0 12
0

0101000
+189 0 -184 0 *
Ed
 1e-07 1 1 0
1  89 0 2.4968353162626 35.98
2  220 17 0 2.4968353162626 35.98
2  221 53 0 2.4968353162626 35.98
0

0101000
+361 0 -184 0 *
Wi

0101100
-187 0 -183 0 +182 0 +359 0 *
Fa
0  1e-07 17 0

0101000
+181 0 *
Ve
1e-07
-26.9637205583712 -68.7025339681883 0
0 0

0101101
*
Ed
 1e-07 1 1 0
1  17 0 2.49683531626259 35.98
2  44 19 0 2.49683531626259 35.98
2  45 20 0 2.49683531626259 35.98
0

0101000
+477 0 -179 0 *
Ve
1e-07
-26.9637205583712 -68.7025339681883 12
0 0

0101101
*
Ed
 1e-07 1 1 0
1  117 0 0 12
2  299 60 0 0 12
4 G1 20 0 60 0
2  300 20 0 0 12
0

0101000
+179 0 -177 0 *
Ed
 1e-07 1 1 0
1  90 0 2.49683531626259 35.98
2  223 20 0 2.49683531626259 35.98
2  224 54 0 2.49683531626259 35.98
0

0101000
+350 0 -177 0 *
Wi

0101100
-178 0 -176 0 +175 0 +348 0 *
Fa
0  1e-07 20 0

0101000
+174 0 *
Ve
1e-07
-29.6957713659401 -69.4345847757572 0
0 0

0101101
*
Ed
 1e-07 1 1 0
1  118 0 1.5707963267949 3.14159265358979
2  301 60 0 1.5707963267949 3.14159265358979
2  302 19 0 1.5707963267949 3.14159265358979
0

0101000
+172 0 -179 0 *
Ve
1e-07
-45.28422863406 -60.4345847757572 0
0 0

0101101
*
Ed
 1e-07 1 1 0
1  119 0 2 20
2  303 19 0 2 20
0

0101000
+170 0 -172 0 *
Ve
1e-07
-46.0162794416289 -57.7025339681883 0
0 0

0101101
*
Ed
 1e-07 1 1 0
1  120 0 4.71238898038469 6.28318530717959
2  304 61 0 4.71238898038469 6.28318530717959
2  305 19 0 4.71238898038469 6.28318530717959
0

0101000
+170 0 -168 0 *
Ed
 1e-07 1 1 0
1  21 0 2.49683531626346 35.98
2  56 19 0 2.49683531626346 35.98
2  57 24 0 2.49683531626346 35.98
0

0101000
+467 0 -168 0 *
Wi

0101100
-345 0 -178 0 +171 0 +169 0 -167 0 +166 0 *
Fa
0  1e-07 19 0

0101000
+165 0 *
Ve
1e-07
-46.0162794416289 -57.7025339681883 12
0 0

0101101
*
Ed
 1e-07 1 1 0
1  121 0 0 12
2  306 61 0 0 12
4 G1 24 0 61 0
2  307 24 0 0 12
0

0101000
+168 0 -163 0 *
Ed
 1e-07 1 1 0
1  94 0 2.49683531626346 35.98
2  235 24 0 2.49683531626346 35.98
2  236 54 0 2.49683531626346 35.98
0

0101000
+341 0 -163 0 *
Wi

0101100
-166 0 -162 0 +161 0 +339 0 *
Fa
0  1e-07 24 0

0101000
+160 0 *
Ve
1e-07
-72.98 -11 0
0 0

0101101
*
Ed
 1e-07 1 1 0
1  23 0 2.49683531626278 35.98
2  61 26 0 2.49683531626278 35.98
2  62 27 0 2.49683531626278 35.98
0

0101000
+461 0 -158 0 *
Ve
1e-07
-72.98 -11 12
0 0

0101101
*
Ed
 1e-07 1 1 0
1  122 0 0 12
2  308 62 0 0 12
4 G1 27 0 62 0
2  309 27 0 0 12
0

0101000
+158 0 -156 0 *
Ed
 1e-07 1 1 0
1  95 0 2.49683531626278 35.98
2  238 27 0 2.49683531626278 35.98
2  239 55 0 2.49683531626278 35.98
0

0101000
+330 0 -156 0 *
Wi

0101100
-157 0 -155 0 +154 0 +328 0 *
Fa
0  1e-07 27 0

0101000
+153 0 *
Ve
1e-07
-74.98 -8.99999999999999 0
0 0

0101101
*
Ed
 1e-07 1 1 0
1  123 0 1.5707963267949 3.14159265358979
2  310 62 0 1.5707963267949 3.14159265358979
2  311 26 0 1.5707963267949 3.14159265358979
0

0101000
+151 0 -158 0 *
Ve
1e-07
-74.98 9.00000000000001 0
0 0

0101101
*
Ed
 1e-07 1 1 0
1  124 0 2 20
2  312 26 0 2 20
0

0101000
+149 0 -151 0 *
Ve
1e-07
-72.98 11 0
0 0

0101101
*
Ed
 1e-07 1 1 0
1  125 0 4.71238898038469 6.28318530717959
2  313 63 0 4.71238898038469 6.28318530717959
2  314 26 0 4.71238898038469 6.28318530717959
0

0101000
+149 0 -147 0 *
Ed
 1e-07 1 1 0
1  27 0 2.49683531626315 35.98
2  73 26 0 2.49683531626315 35.98
2  74 31 0 2.49683531626315 35.98
0

0101000
+451 0 -147 0 *
Wi

0101100
-325 0 -157 0 +150 0 +148 0 -146 0 +145 0 *
Fa
0  1e-07 26 0

0101000
+144 0 *
Ve
1e-07
-72.98 11 12
0 0

0101101
*
Ed
 1e-07 1 1 0
1  126 0 0 12
2  315 63 0 0 12
4 G1 31 0 63 0
2  316 31 0 0 12
0

0101000
+147 0 -142 0 *
Ed
 1e-07 1 1 0
1  99 0 2.49683531626315 35.98
2  250 31 0 2.49683531626315 35.98
2  251 55 0 2.49683531626315 35.98
0

0101000
+321 0 -142 0 *
Wi

0101100
-145 0 -141 0 +140 0 +319 0 *
Fa
0  1e-07 31 0

0101000
+139 0 *
Ve
1e-07
-46.0162794416288 57.7025339681883 0
0 0

0101101
*
Ed
 1e-07 1 1 0
1  29 0 2.49683531626346 35.98
2  78 33 0 2.49683531626346 35.98
2  79 34 0 2.49683531626346 35.98
0

0101000
+445 0 -137 0 *
Ve
1e-07
-46.0162794416288 57.7025339681883 12
0 0

0101101
*
Ed
 1e-07 1 1 0
1  127 0 0 12
2  317 64 0 0 12
4 G1 34 0 64 0
2  318 34 0 0 12
0

0101000
+137 0 -135 0 *
Ed
 1e-07 1 1 0
1  100 0 2.49683531626346 35.98
2  253 34 0 2.49683531626346 35.98
2  254 56 0 2.49683531626346 35.98
0

0101000
+310 0 -135 0 *
Wi

0101100
-136 0 -134 0 +133 0 +308 0 *
Fa
0  1e-07 34 0

0101000
+132 0 *
Ve
1e-07
-45.2842286340599 60.4345847757572 0
0 0

0101101
*
Ed
 1e-07 1 1 0
1  128 0 1.5707963267949 3.14159265358979
2  319 64 0 1.5707963267949 3.14159265358979
2  320 33 0 1.5707963267949 3.14159265358979
0

0101000
+130 0 -137 0 *
Ve
1e-07
-29.69577136594 69.4345847757572 0
0 0

0101101
*
Ed
 1e-07 1 1 0
1  129 0 2 20
2  321 33 0 2 20
0

0101000
+128 0 -130 0 *
Ve
1e-07
-26.9637205583712 68.7025339681883 0
0 0

0101101
*
Ed
 1e-07 1 1 0
1  130 0 4.71238898038469 6.28318530717959
2  322 65 0 4.71238898038469 6.28318530717959
2  323 33 0 4.71238898038469 6.28318530717959
0

0101000
+128 0 -126 0 *
Ed
 1e-07 1 1 0
1  33 0 2.49683531626261 35.98
2  90 33 0 2.49683531626261 35.98
2  91 38 0 2.49683531626261 35.98
0

0101000
+435 0 -126 0 *
Wi

0101100
-305 0 -136 0 +129 0 +127 0 -125 0 +124 0 *
Fa
0  1e-07 33 0

0101000
+123 0 *
Ve
1e-07
-26.9637205583712 68.7025339681883 12
0 0

0101101
*
Ed
 1e-07 1 1 0
1  131 0 0 12
2  324 65 0 0 12
4 G1 38 0 65 0
2  325 38 0 0 12
0

0101000
+126 0 -121 0 *
Ed
 1e-07 1 1 0
1  104 0 2.49683531626261 35.98
2  265 38 0 2.49683531626261 35.98
2  266 56 0 2.49683531626261 35.98
0

0101000
+301 0 -121 0 *
Wi

0101100
-124 0 -120 0 +119 0 +299 0 *
Fa
0  1e-07 38 0

0101000
+118 0 *
Ve
1e-07
26.9637205583712 68.7025339681883 0
0 0

0101101
*
Ed
 1e-07 1 1 0
1  35 0 2.49683531626261 35.98
2  95 40 0 2.49683531626261 35.98
2  96 41 0 2.49683531626261 35.98
0

0101000
+429 0 -116 0 *
Ve
1e-07
26.9637205583712 68.7025339681883 12
0 0

0101101
*
Ed
 1e-07 1 1 0
1  132 0 0 12
2  326 66 0 0 12
4 G1 41 0 66 0
2  327 41 0 0 12
0

0101000
+116 0 -114 0 *
Ed
 1e-07 1 1 0
1  105 0 2.49683531626261 35.98
2  268 41 0 2.49683531626261 35.98
2  269 57 0 2.49683531626261 35.98
0

0101000
+290 0 -114 0 *
Wi

0101100
-115 0 -113 0 +112 0 +288 0 *
Fa
0  1e-07 41 0

0101000
+111 0 *
Ve
1e-07
29.6957713659401 69.4345847757572 0
0 0

0101101
*
Ed
 1e-07 1 1 0
1  133 0 1.5707963267949 3.14159265358979
2  328 66 0 1.5707963267949 3.14159265358979
2  329 40 0 1.5707963267949 3.14159265358979
0

0101000
+109 0 -116 0 *
Ve
1e-07
45.28422863406 60.4345847757572 0
0 0

0101101
*
Ed
 1e-07 1 1 0
1  134 0 2 20
2  330 40 0 2 20
0

0101000
+107 0 -109 0 *
Ve
1e-07
46.0162794416288 57.7025339681883 0
0 0

0101101
*
Ed
 1e-07 1 1 0
1  135 0 4.71238898038469 6.28318530717959
2  331 67 0 4.71238898038469 6.28318530717959
2  332 40 0 4.71238898038469 6.28318530717959
0

0101000
+107 0 -105 0 *
Ed
 1e-07 1 1 0
1  39 0 2.49683531626346 35.98
2  107 40 0 2.49683531626346 35.98
2  108 45 0 2.49683531626346 35.98
0

0101000
+419 0 -105 0 *
Wi

0101100
-285 0 -115 0 +108 0 +106 0 -104 0 +103 0 *
Fa
0  1e-07 40 0

0101000
+102 0 *
Ve
1e-07
46.0162794416288 57.7025339681883 12
0 0

0101101
*
Ed
 1e-07 1 1 0
1  136 0 0 12
2  333 67 0 0 12
4 G1 45 0 67 0
2  334 45 0 0 12
0

0101000
+105 0 -100 0 *
Ed
 1e-07 1 1 0
1  109 0 2.49683531626346 35.98
2  280 45 0 2.49683531626346 35.98
2  281 57 0 2.49683531626346 35.98
0

0101000
+281 0 -100 0 *
Wi

0101100
-103 0 -99 0 +98 0 +279 0 *
Fa
0  1e-07 45 0

0101000
+97 0 *
Wi

0101100
+261 0 +254 0 +255 0 -204 0 -205 0 -207 0 +260 0 *
Fa
0  1e-07 51 0

0101000
+95 0 *
Ed
 1e-07 1 1 0
1  53 0 4.9643674569458 5.50760805502014
2  134 2 0 4.9643674569458 5.50760805502014
2  135 51 0 4.9643674569458 5.50760805502014
2  335 53 0 4.9643674569458 5.50760805502014
0

0101000
+361 0 -370 0 *
Wi

0101100
+93 0 +245 0 +246 0 -248 0 -250 0 -252 0 *
Fa
0  1e-07 51 0

0101000
+92 0 *
Ed
 1e-07 1 1 0
1  53 0 3.91716990574924 4.46041050382358
2  134 2 0 3.91716990574924 4.46041050382358
2  135 51 0 3.91716990574924 4.46041050382358
2  336 54 0 3.91716990574924 4.46041050382358
0

0101000
+341 0 -350 0 *
Wi

0101100
+90 0 +236 0 +237 0 -239 0 -241 0 -243 0 *
Fa
0  1e-07 51 0

0101000
+89 0 *
Ed
 1e-07 1 1 0
1  53 0 2.86997235455263 3.41321295262697
2  134 2 0 2.86997235455263 3.41321295262697
2  135 51 0 2.86997235455263 3.41321295262697
2  337 55 0 2.86997235455263 3.41321295262697
0

0101000
+321 0 -330 0 *
Wi

0101100
+87 0 +227 0 +228 0 -230 0 -232 0 -234 0 *
Fa
0  1e-07 51 0

0101000
+86 0 *
Ed
 1e-07 1 1 0
1  53 0 1.82277480335601 2.36601540143034
2  134 2 0 1.82277480335601 2.36601540143034
2  135 51 0 1.82277480335601 2.36601540143034
2  338 56 0 1.82277480335601 2.36601540143034
0

0101000
+301 0 -310 0 *
Wi

0101100
+84 0 +218 0 +219 0 -221 0 -223 0 -225 0 *
Fa
0  1e-07 51 0

0101000
+83 0 *
Ed
 1e-07 1 1 0
1  53 0 0.775577252159449 1.31881785023379
2  134 2 0 0.775577252159449 1.31881785023379
2  135 51 0 0.775577252159449 1.31881785023379
2  339 57 0 0.775577252159449 1.31881785023379
0

0101000
+281 0 -290 0 *
Wi

0101100
+209 0 +210 0 -212 0 -214 0 -216 0 +81 0 *
Fa
0  1e-07 51 0

0101000
+80 0 *
Ve
1e-07
45.28422863406 -60.4345847757572 12
0 0

0101101
*
Ed
 1e-07 1 1 0
1  137 0 0 12
2  340 58 0 0 12
4 G1 58 0 68 0
0

0101000
+193 0 -78 0 *
Ed
 1e-07 1 1 0
1  138 0 1.5707963267949 3.14159265358979
2  341 58 0 1.5707963267949 3.14159265358979
2  342 53 0 1.5707963267949 3.14159265358979
0

0101000
+78 0 -198 0 *
Wi

0101100
+192 0 -77 0 +197 0 -76 0 *
Fa
0  1e-07 58 0

0101000
+75 0 *
Ve
1e-07
29.6957713659401 -69.4345847757572 12
0 0

0101101
*
Ed
 1e-07 1 1 0
1  139 0 2 20
2  343 53 0 2 20
0

0101000
+73 0 -78 0 *
Ed
 1e-07 1 1 0
1  140 0 4.71238898038469 6.28318530717959
2  344 59 0 4.71238898038469 6.28318530717959
2  345 53 0 4.71238898038469 6.28318530717959
0

0101000
+73 0 -184 0 *
Wi

0101100
-93 0 -196 0 +76 0 +72 0 -71 0 +182 0 *
Fa
0  1e-07 53 0

0101000
+70 0 *
Ed
 1e-07 1 1 0
1  141 0 0 12
2  346 59 0 0 12
4 G1 59 0 68 0
0

0101000
+191 0 -73 0 *
Wi

0101100
-72 0 -68 0 +77 0 +190 0 *
Fa
0  1e-07 68 0

0101000
+67 0 *
Wi

0101100
+188 0 -68 0 +183 0 -71 0 *
Fa
0  1e-07 59 0

0101000
+65 0 *
Ve
1e-07
-29.6957713659401 -69.4345847757572 12
0 0

0101101
*
Ed
 1e-07 1 1 0
1  142 0 0 12
2  347 60 0 0 12
4 G1 60 0 69 0
0

0101000
+172 0 -63 0 *
Ed
 1e-07 1 1 0
1  143 0 1.5707963267949 3.14159265358979
2  348 60 0 1.5707963267949 3.14159265358979
2  349 54 0 1.5707963267949 3.14159265358979
0

0101000
+63 0 -177 0 *
Wi

0101100
+171 0 -62 0 +176 0 -61 0 *
Fa
0  1e-07 60 0

0101000
+60 0 *
Ve
1e-07
-45.28422863406 -60.4345847757572 12
0 0

0101101
*
Ed
 1e-07 1 1 0
1  144 0 2 20
2  350 54 0 2 20
0

0101000
+58 0 -63 0 *
Ed
 1e-07 1 1 0
1  145 0 4.71238898038469 6.28318530717959
2  351 61 0 4.71238898038469 6.28318530717959
2  352 54 0 4.71238898038469 6.28318530717959
0

0101000
+58 0 -163 0 *
Wi

0101100
-90 0 -175 0 +61 0 +57 0 -56 0 +161 0 *
Fa
0  1e-07 54 0

0101000
+55 0 *
Ed
 1e-07 1 1 0
1  146 0 0 12
2  353 61 0 0 12
4 G1 61 0 69 0
0

0101000
+170 0 -58 0 *
Wi

0101100
-57 0 -53 0 +62 0 +169 0 *
Fa
0  1e-07 69 0

0101000
+52 0 *
Wi

0101100
+167 0 -53 0 +162 0 -56 0 *
Fa
0  1e-07 61 0

0101000
+50 0 *
Ve
1e-07
-74.98 -8.99999999999999 12
0 0

0101101
*
Ed
 1e-07 1 1 0
1  147 0 0 12
2  354 62 0 0 12
4 G1 62 0 70 0
0

0101000
+151 0 -48 0 *
Ed
 1e-07 1 1 0
1  148 0 1.5707963267949 3.14159265358979
2  355 62 0 1.5707963267949 3.14159265358979
2  356 55 0 1.5707963267949 3.14159265358979
0

0101000
+48 0 -156 0 *
Wi

0101100
+150 0 -47 0 +155 0 -46 0 *
Fa
0  1e-07 62 0

0101000
+45 0 *
Ve
1e-07
-74.98 9.00000000000001 12
0 0

0101101
*
Ed
 1e-07 1 1 0
1  149 0 2 20
2  357 55 0 2 20
0

0101000
+43 0 -48 0 *
Ed
 1e-07 1 1 0
1  150 0 4.71238898038469 6.28318530717959
2  358 63 0 4.71238898038469 6.28318530717959
2  359 55 0 4.71238898038469 6.28318530717959
0

0101000
+43 0 -142 0 *
Wi

0101100
-87 0 -154 0 +46 0 +42 0 -41 0 +140 0 *
Fa
0  1e-07 55 0

0101000
+40 0 *
Ed
 1e-07 1 1 0
1  151 0 0 12
2  360 63 0 0 12
4 G1 63 0 70 0
0

0101000
+149 0 -43 0 *
Wi

0101100
-42 0 -38 0 +47 0 +148 0 *
Fa
0  1e-07 70 0

0101000
+37 0 *
Wi

0101100
+146 0 -38 0 +141 0 -41 0 *
Fa
0  1e-07 63 0

0101000
+35 0 *
Ve
1e-07
-45.2842286340599 60.4345847757572 12
0 0

0101101
*
Ed
 1e-07 1 1 0
1  152 0 0 12
2  361 64 0 0 12
4 G1 64 0 71 0
0

0101000
+130 0 -33 0 *
Ed
 1e-07 1 1 0
1  153 0 1.5707963267949 3.14159265358979
2  362 64 0 1.5707963267949 3.14159265358979
2  363 56 0 1.5707963267949 3.14159265358979
0

0101000
+33 0 -135 0 *
Wi

0101100
+129 0 -32 0 +134 0 -31 0 *
Fa
0  1e-07 64 0

0101000
+30 0 *
Ve
1e-07
-29.69577136594 69.4345847757572 12
0 0

0101101
*
Ed
 1e-07 1 1 0
1  154 0 2 20
2  364 56 0 2 20
0

0101000
+28 0 -33 0 *
Ed
 1e-07 1 1 0
1  155 0 4.71238898038469 6.28318530717959
2  365 65 0 4.71238898038469 6.28318530717959
2  366 56 0 4.71238898038469 6.28318530717959
0

0101000
+28 0 -121 0 *
Wi

0101100
-84 0 -133 0 +31 0 +27 0 -26 0 +119 0 *
Fa
0  1e-07 56 0

0101000
+25 0 *
Ed
 1e-07 1 1 0
1  156 0 0 12
2  367 65 0 0 12
4 G1 65 0 71 0
0

0101000
+128 0 -28 0 *
Wi

0101100
-27 0 -23 0 +32 0 +127 0 *
Fa
0  1e-07 71 0

0101000
+22 0 *
Wi

0101100
+125 0 -23 0 +120 0 -26 0 *
Fa
0  1e-07 65 0

0101000
+20 0 *
Ve
1e-07
29.6957713659401 69.4345847757572 12
0 0

0101101
*
Ed
 1e-07 1 1 0
1  157 0 0 12
2  368 66 0 0 12
4 G1 66 0 72 0
0

0101000
+109 0 -18 0 *
Ed
 1e-07 1 1 0
1  158 0 1.5707963267949 3.14159265358979
2  369 66 0 1.5707963267949 3.14159265358979
2  370 57 0 1.5707963267949 3.14159265358979
0

0101000
+18 0 -114 0 *
Wi

0101100
+108 0 -17 0 +113 0 -16 0 *
Fa
0  1e-07 66 0

0101000
+15 0 *
Ve
1e-07
45.28422863406 60.4345847757572 12
0 0

0101101
*
Ed
 1e-07 1 1 0
1  159 0 2 20
2  371 57 0 2 20
0

0101000
+13 0 -18 0 *
Ed
 1e-07 1 1 0
1  160 0 4.71238898038469 6.28318530717959
2  372 67 0 4.71238898038469 6.28318530717959
2  373 57 0 4.71238898038469 6.28318530717959
0

0101000
+13 0 -100 0 *
Wi

0101100
-81 0 -112 0 +16 0 +12 0 -11 0 +98 0 *
Fa
0  1e-07 57 0

0101000
+10 0 *
Ed
 1e-07 1 1 0
1  161 0 0 12
2  374 67 0 0 12
4 G1 67 0 72 0
0

0101000
+107 0 -13 0 *
Wi

0101100
-12 0 -8 0 +17 0 +106 0 *
Fa
0  1e-07 72 0

0101000
+7 0 *
Wi

0101100
+104 0 -8 0 +99 0 -11 0 *
Fa
0  1e-07 67 0

0101000
+5 0 *
Sh

0101100
-509 0 -498 0 -408 0 +401 0 +396 0 +391 0 -386 0 -381 0 +376 0 -371 0 
+366 0 -363 0 +356 0 -351 0 +346 0 -343 0 +336 0 -331 0 +326 0 -323 0 
+316 0 -311 0 +306 0 -303 0 +296 0 -291 0 +286 0 -283 0 +276 0 -271 0 
+268 0 -263 0 +258 0 +201 0 +194 0 -185 0 -180 0 +173 0 -164 0 -159 0 
+152 0 -143 0 -138 0 +131 0 -122 0 -117 0 +110 0 -101 0 -96 0 +94 0 
+91 0 +88 0 +85 0 +82 0 +79 0 +74 0 +69 0 +66 0 -64 0 +59 0 
+54 0 +51 0 -49 0 +44 0 +39 0 +36 0 -34 0 +29 0 +24 0 +21 0 
-19 0 +14 0 +9 0 +6 0 -4 0 *
So

0100000
+3 0 *
Co

1100000
+2 0 *

+1 0 