<?xml version="1.0" encoding="utf-8" standalone="no"?>
<!DOCTYPE svg PUBLIC "-//W3C//DTD SVG 1.1//EN"
  "http://www.w3.org/Graphics/SVG/1.1/DTD/svg11.dtd">
<svg xmlns:xlink="http://www.w3.org/1999/xlink" width="604.8pt" height="345.6pt" viewBox="0 0 604.8 345.6" xmlns="http://www.w3.org/2000/svg" version="1.1">
 <metadata>
  <rdf:RDF xmlns:dc="http://purl.org/dc/elements/1.1/" xmlns:cc="http://creativecommons.org/ns#" xmlns:rdf="http://www.w3.org/1999/02/22-rdf-syntax-ns#">
   <cc:Work>
    <dc:type rdf:resource="http://purl.org/dc/dcmitype/StillImage"/>
    <dc:format>image/svg+xml</dc:format>
    <dc:creator>
     <cc:Agent>
      <dc:title>Matplotlib v3.10.8, https://matplotlib.org/</dc:title>
     </cc:Agent>
    </dc:creator>
   </cc:Work>
  </rdf:RDF>
 </metadata>
 <defs>
  <style type="text/css">*{stroke-linejoin: round; stroke-linecap: butt}</style>
 </defs>
 <g id="figure_1">
  <g id="patch_1">
   <path d="M 0 345.6 
L 604.8 345.6 
L 604.8 0 
L 0 0 
z
" style="fill: #ffffff"/>
  </g>
  <g id="axes_1">
   <g id="patch_2">
    <path d="M 54.319531 318.40625 
L 594 318.40625 
L 594 25.673437 
L 54.319531 25.673437 
z
" style="fill: #ffffff"/>
   </g>
   <g id="patch_3">
    <path d="M 78.850462 318.40625 
L 296.903176 318.40625 
L 296.903176 79.632452 
L 78.850462 79.632452 
z
" clip-path="url(#p4a38450dbb)" style="fill: #f2c94c"/>
   </g>
   <g id="patch_4">
    <path d="M 351.416355 318.40625 
L 569.46907 318.40625 
L 569.46907 39.613095 
L 351.416355 39.613095 
z
" clip-path="url(#p4a38450dbb)" style="fill: #e76f51"/>
   </g>
   <g id="matplotlib.axis_1">
    <g id="xtick_1">
     <g id="line2d_1">
      <defs>
       <path id="m9e726d714a" d="M 0 0 
L 0 3.5 
" style="stroke: #000000; stroke-width: 0.8"/>
      </defs>
      <g>
       <use xlink:href="#m9e726d714a" x="187.876819" y="318.40625" style="stroke: #000000; stroke-width: 0.8"/>
      </g>
     </g>
     <g id="text_1">
      <!-- 内部筛查上界δ=0.65，σ=0.20 -->
      <g transform="translate(122.463538 332.520312) scale(0.1 -0.1)">
       <defs>
        <path id="DengXian-5185" d="M 5575 3763 
Q 5538 3488 5538 3213 
L 5538 6 
Q 5556 -556 5313 -703 
Q 5106 -878 4225 -941 
Q 4153 -653 4025 -378 
Q 4381 -403 4591 -403 
Q 4888 -403 4978 -359 
Q 5172 -313 5153 31 
L 5153 3378 
L 3391 3378 
Q 3359 2981 3316 2619 
Q 4091 1747 4769 872 
L 4341 531 
Q 3903 1253 3194 2131 
Q 2828 1013 1906 341 
Q 1722 513 1466 697 
Q 2881 1275 3003 3378 
L 1253 3378 
L 1253 -288 
Q 1253 -544 1294 -872 
L 844 -872 
Q 884 -600 884 -288 
L 884 3219 
Q 884 3488 844 3763 
Q 1153 3725 1434 3725 
L 3009 3725 
Q 3009 4231 3003 4447 
Q 2988 4684 2963 4903 
L 3481 4856 
Q 3603 4850 3603 4813 
Q 3609 4781 3513 4691 
Q 3391 4594 3397 4325 
Q 3397 4013 3397 3725 
L 4972 3725 
Q 5253 3725 5575 3763 
z
" transform="scale(0.015625)"/>
        <path id="DengXian-90e8" d="M 788 2438 
L 2169 2438 
Q 2472 2981 2669 3653 
L 3091 3463 
Q 3144 3438 3138 3406 
Q 3138 3366 3072 3341 
Q 2963 3291 2881 3128 
Q 2688 2725 2534 2438 
L 3144 2438 
Q 3391 2444 3669 2478 
L 3669 2081 
Q 3413 2113 3144 2119 
L 788 2119 
Q 556 2113 269 2081 
L 269 2478 
Q 550 2444 788 2438 
z
M 1088 4084 
L 2106 4084 
Q 1856 4416 1472 4744 
L 1766 5006 
Q 2138 4653 2419 4359 
L 2131 4084 
L 2950 4084 
Q 3206 4091 3481 4122 
L 3481 3725 
Q 3219 3756 2950 3763 
L 1088 3763 
Q 850 3756 569 3725 
L 569 4122 
Q 872 4091 1088 4084 
z
M 1275 -838 
L 838 -838 
Q 872 -588 878 -331 
L 878 1044 
Q 872 1269 838 1563 
Q 1119 1522 1350 1522 
L 2675 1522 
Q 2931 1528 3206 1563 
Q 3175 1300 3169 1038 
L 3169 -159 
Q 3175 -391 3206 -678 
L 2772 -678 
Q 2803 -453 2809 -288 
L 1234 -288 
L 1234 -331 
Q 1241 -588 1275 -838 
z
M 1234 1203 
L 1234 19 
L 2809 19 
L 2809 1203 
L 1234 1203 
z
M 1203 3597 
Q 1497 3169 1741 2784 
L 1403 2547 
Q 1166 2994 878 3384 
L 1203 3597 
z
M 3903 4453 
Q 4250 4416 4469 4416 
L 5350 4416 
Q 5613 4416 5900 4453 
Q 5453 3263 5069 2463 
Q 5697 2094 5941 1484 
Q 6050 1184 6050 906 
Q 6050 597 5913 325 
Q 5716 -122 4916 -172 
Q 4825 103 4628 319 
Q 4878 247 5075 247 
Q 5491 247 5631 575 
Q 5697 722 5697 888 
Q 5697 1172 5509 1522 
Q 5222 2028 4647 2344 
Q 5069 3188 5356 4097 
L 4300 4097 
L 4300 -475 
Q 4306 -756 4341 -1025 
L 3903 -1025 
Q 3938 -769 3944 -481 
L 3944 3909 
Q 3938 4159 3903 4453 
z
" transform="scale(0.015625)"/>
        <path id="DengXian-7b5b" d="M 500 -697 
Q 1300 -347 1588 238 
Q 1894 819 1888 2034 
L 1888 2553 
Q 1888 2803 1850 3138 
L 2338 3053 
Q 2431 3041 2431 3016 
Q 2438 2994 2363 2925 
Q 2259 2853 2266 2509 
Q 2272 819 2016 213 
Q 1806 -409 909 -1031 
Q 744 -850 500 -697 
z
M 1253 341 
L 819 341 
Q 856 628 856 916 
L 856 2278 
Q 856 2553 819 2888 
L 1319 2816 
Q 1394 2809 1394 2784 
Q 1403 2766 1331 2706 
Q 1209 2625 1216 2278 
L 1216 916 
Q 1216 634 1253 341 
z
M 5422 2547 
L 4294 2547 
L 4294 1900 
L 5094 1900 
Q 5388 1900 5644 1941 
Q 5606 1656 5606 1447 
L 5606 244 
Q 5619 -91 5453 -178 
Q 5319 -275 4744 -313 
Q 4716 -103 4603 178 
Q 4891 125 5031 125 
Q 5106 125 5141 141 
Q 5253 172 5247 403 
L 5247 1581 
L 4294 1581 
L 4294 -447 
Q 4294 -738 4325 -984 
L 3897 -984 
Q 3938 -697 3938 -447 
L 3938 1581 
L 3116 1581 
L 3116 256 
Q 3116 19 3156 -275 
L 2719 -275 
Q 2759 -13 2759 256 
L 2759 1434 
Q 2759 1678 2719 1941 
Q 3016 1900 3278 1900 
L 3938 1900 
L 3938 2547 
L 3066 2547 
Q 2828 2547 2541 2509 
L 2541 2906 
Q 2797 2869 3066 2869 
L 5422 2869 
Q 5697 2869 5972 2906 
L 5972 2509 
Q 5697 2547 5422 2547 
z
M 378 3366 
Q 1269 3928 1747 4984 
L 2228 4763 
Q 2303 4728 2297 4697 
Q 2284 4666 2194 4641 
Q 2041 4609 1947 4459 
Q 1881 4359 1813 4269 
L 2753 4269 
Q 3066 4269 3391 4306 
L 3391 3909 
Q 3066 3950 2753 3950 
L 2297 3950 
Q 2497 3675 2706 3334 
L 2328 3150 
Q 2113 3597 1869 3950 
L 1575 3950 
Q 1253 3541 756 3072 
Q 563 3250 378 3366 
z
M 4078 4978 
L 4563 4813 
Q 4653 4781 4647 4763 
Q 4647 4738 4544 4684 
Q 4428 4634 4359 4494 
Q 4306 4397 4238 4281 
L 5556 4281 
Q 5875 4281 6144 4319 
L 6144 3922 
Q 5869 3963 5556 3963 
L 4909 3963 
Q 5094 3700 5344 3291 
L 4978 3091 
Q 4716 3591 4475 3963 
L 4044 3963 
Q 3756 3525 3406 3091 
Q 3175 3250 2931 3347 
Q 3731 3897 4078 4978 
z
" transform="scale(0.015625)"/>
        <path id="DengXian-67e5" d="M 191 2309 
Q 1563 2650 2772 3719 
L 1125 3719 
Q 891 3713 575 3681 
L 575 4078 
Q 872 4044 1119 4038 
L 3072 4038 
L 3072 4353 
Q 3066 4575 3034 4934 
L 3519 4872 
Q 3547 4853 3547 4825 
Q 3547 4784 3494 4728 
Q 3431 4672 3431 4334 
L 3431 4038 
L 5338 4038 
Q 5606 4044 5863 4078 
L 5863 3681 
Q 5600 3713 5338 3719 
L 3822 3719 
Q 4750 2606 6113 2472 
Q 5863 2259 5825 2028 
Q 4231 2566 3431 3647 
L 3431 2913 
Q 3438 2669 3469 2381 
L 3034 2381 
Q 3066 2669 3072 2913 
L 3072 3541 
Q 2188 2669 575 1925 
Q 488 2138 191 2309 
z
M 5919 -409 
L 5919 -806 
Q 5631 -775 5409 -769 
L 922 -769 
Q 678 -775 409 -806 
L 409 -409 
Q 678 -441 922 -447 
L 5394 -447 
Q 5638 -441 5919 -409 
z
M 1403 44 
Q 1434 306 1441 544 
L 1441 1663 
Q 1434 1894 1403 2194 
Q 1709 2163 1953 2156 
L 4447 2156 
Q 4691 2163 4984 2194 
Q 4953 1913 4947 1684 
L 4947 556 
Q 4953 359 4984 44 
Q 4709 78 4447 84 
L 1966 84 
Q 1716 78 1403 44 
z
M 1797 403 
L 4588 403 
L 4588 978 
L 1797 978 
L 1797 403 
z
M 1797 1838 
L 1797 1300 
L 4588 1300 
L 4588 1838 
L 1797 1838 
z
" transform="scale(0.015625)"/>
        <path id="DengXian-4e0a" d="M 416 -609 
L 416 -213 
Q 781 -250 1063 -250 
L 2753 -250 
L 2753 4122 
Q 2753 4416 2713 4769 
L 3206 4703 
Q 3278 4697 3284 4672 
Q 3291 4653 3225 4594 
Q 3109 4525 3122 4122 
L 3122 2828 
L 4813 2828 
Q 5119 2828 5416 2869 
L 5416 2456 
Q 5119 2497 4813 2497 
L 3122 2497 
L 3122 -250 
L 5300 -250 
Q 5644 -250 5959 -213 
L 5959 -609 
Q 5619 -569 5300 -569 
L 1063 -569 
Q 775 -569 416 -609 
z
" transform="scale(0.015625)"/>
        <path id="DengXian-754c" d="M 3803 2328 
L 2694 2328 
Q 1784 1203 603 697 
Q 447 934 225 1088 
Q 1428 1344 2169 2328 
L 1728 2328 
Q 1459 2328 1153 2291 
Q 1191 2522 1191 2853 
L 1191 4238 
Q 1191 4475 1153 4831 
Q 1509 4794 1741 4794 
L 4838 4794 
Q 5075 4794 5375 4831 
Q 5338 4569 5338 4263 
L 5338 2847 
Q 5338 2572 5375 2291 
Q 5125 2328 4838 2328 
L 4256 2328 
Q 4897 1503 6241 1375 
Q 6016 1141 5913 941 
Q 5288 1113 4659 1472 
Q 4513 1381 4519 1100 
L 4519 -281 
Q 4519 -581 4556 -825 
L 4122 -825 
Q 4159 -569 4159 -288 
L 4159 984 
Q 4147 1394 4122 1625 
L 4481 1594 
Q 4116 1888 3803 2328 
z
M 4978 3775 
L 4978 4475 
L 3372 4475 
L 3372 3775 
L 4978 3775 
z
M 3372 3469 
L 3372 2650 
L 4978 2650 
L 4978 3469 
L 3372 3469 
z
M 1550 4475 
L 1550 3775 
L 3016 3775 
L 3016 4475 
L 1550 4475 
z
M 1550 3469 
L 1550 2650 
L 3022 2650 
L 3022 3469 
L 1550 3469 
z
M 903 -531 
Q 1716 -422 1991 63 
Q 2131 306 2163 678 
Q 2172 784 2172 922 
Q 2172 1216 2125 1606 
L 2613 1516 
Q 2688 1503 2688 1484 
Q 2700 1472 2644 1422 
Q 2534 1300 2528 1159 
Q 2534 184 2272 -213 
Q 2069 -594 1234 -947 
Q 1119 -722 903 -531 
z
" transform="scale(0.015625)"/>
        <path id="DengXian-3b4" d="M 1847 -313 
Q 1144 -313 745 120 
Q 347 553 347 1309 
Q 347 2013 814 2459 
Q 1281 2906 2013 2966 
L 772 4047 
L 772 4294 
L 3075 4294 
L 3075 3991 
L 1322 3991 
L 2413 3059 
Q 3000 2541 3186 2153 
Q 3372 1766 3372 1325 
Q 3372 553 2970 120 
Q 2569 -313 1847 -313 
z
M 2234 2709 
Q 1547 2672 1153 2289 
Q 759 1906 759 1291 
Q 759 669 1043 333 
Q 1328 -3 1853 -3 
Q 2384 -3 2671 336 
Q 2959 675 2959 1303 
Q 2959 1756 2751 2106 
Q 2544 2456 2234 2709 
z
" transform="scale(0.015625)"/>
        <path id="DengXian-3d" d="M 638 2453 
L 638 2784 
L 3628 2784 
L 3628 2453 
L 638 2453 
z
M 638 916 
L 638 1247 
L 3628 1247 
L 3628 916 
L 638 916 
z
" transform="scale(0.015625)"/>
        <path id="DengXian-30" d="M 3106 1953 
Q 3106 850 2750 268 
Q 2394 -313 1697 -313 
Q 1006 -313 654 256 
Q 303 825 303 1953 
Q 303 3100 645 3659 
Q 988 4219 1719 4219 
Q 2422 4219 2764 3656 
Q 3106 3094 3106 1953 
z
M 2706 1953 
Q 2706 2963 2473 3425 
Q 2241 3888 1716 3888 
Q 1172 3888 936 3423 
Q 700 2959 700 1953 
Q 700 969 944 495 
Q 1188 22 1703 22 
Q 2216 22 2461 508 
Q 2706 994 2706 1953 
z
" transform="scale(0.015625)"/>
        <path id="DengXian-2e" d="M 475 -250 
L 475 291 
L 928 291 
L 928 -250 
L 475 -250 
z
" transform="scale(0.015625)"/>
        <path id="DengXian-36" d="M 3047 1191 
Q 3047 491 2697 89 
Q 2347 -313 1747 -313 
Q 1075 -313 720 234 
Q 366 781 366 1850 
Q 366 3031 739 3625 
Q 1113 4219 1841 4219 
Q 2284 4219 2553 4026 
Q 2822 3834 2944 3428 
L 2566 3344 
Q 2400 3888 1816 3888 
Q 1303 3888 1033 3402 
Q 763 2916 756 1969 
Q 913 2263 1183 2417 
Q 1453 2572 1800 2572 
Q 2372 2572 2709 2201 
Q 3047 1831 3047 1191 
z
M 2647 1166 
Q 2647 1675 2405 1964 
Q 2163 2253 1716 2253 
Q 1466 2253 1256 2137 
Q 1047 2022 926 1806 
Q 806 1591 806 1306 
Q 806 747 1064 383 
Q 1322 19 1738 19 
Q 2166 19 2406 325 
Q 2647 631 2647 1166 
z
" transform="scale(0.015625)"/>
        <path id="DengXian-35" d="M 3047 1169 
Q 3047 469 2676 78 
Q 2306 -313 1641 -313 
Q 575 -313 366 672 
L 763 734 
Q 859 350 1075 186 
Q 1291 22 1669 22 
Q 2134 22 2387 315 
Q 2641 609 2641 1153 
Q 2641 1619 2392 1895 
Q 2144 2172 1713 2172 
Q 1459 2172 1265 2095 
Q 1072 2019 875 1844 
L 503 1844 
L 641 4153 
L 2828 4153 
L 2828 3816 
L 997 3816 
L 894 2222 
Q 1113 2381 1323 2442 
Q 1534 2503 1775 2503 
Q 2359 2503 2703 2142 
Q 3047 1781 3047 1169 
z
" transform="scale(0.015625)"/>
        <path id="DengXian-ff0c" d="M 1326 -116 
Q 1326 -394 1282 -587 
Q 1239 -781 1133 -975 
L 851 -975 
Q 1083 -600 1083 -250 
L 876 -250 
L 876 291 
L 1326 291 
L 1326 -116 
z
" transform="scale(0.015625)"/>
        <path id="DengXian-3c3" d="M 319 1316 
Q 319 2081 748 2503 
Q 1178 2925 1919 2931 
L 3559 2931 
L 3559 2622 
L 3059 2622 
Q 2969 2622 2834 2625 
Q 2700 2628 2591 2634 
L 2591 2628 
Q 2838 2347 2970 2001 
Q 3103 1656 3103 1200 
Q 3103 509 2723 98 
Q 2344 -313 1706 -313 
Q 1063 -313 691 128 
Q 319 569 319 1316 
z
M 1959 2625 
Q 1400 2625 1067 2289 
Q 734 1953 734 1316 
Q 734 703 995 350 
Q 1256 -3 1709 -3 
Q 2159 -3 2425 319 
Q 2691 641 2691 1203 
Q 2691 1656 2583 1993 
Q 2475 2331 2266 2625 
L 1959 2625 
z
" transform="scale(0.015625)"/>
        <path id="DengXian-32" d="M 347 -250 
L 347 31 
Q 491 394 764 751 
Q 1038 1109 1566 1569 
Q 2109 2038 2326 2359 
Q 2544 2681 2544 3034 
Q 2544 3441 2316 3661 
Q 2088 3881 1681 3881 
Q 1313 3881 1077 3664 
Q 841 3447 800 3069 
L 400 3119 
Q 447 3613 795 3916 
Q 1144 4219 1684 4219 
Q 2281 4219 2615 3912 
Q 2950 3606 2950 3059 
Q 2950 2778 2850 2531 
Q 2750 2284 2550 2039 
Q 2350 1794 1869 1366 
Q 1025 616 803 103 
L 3016 103 
L 3016 -250 
L 347 -250 
z
" transform="scale(0.015625)"/>
       </defs>
       <use xlink:href="#DengXian-5185"/>
       <use xlink:href="#DengXian-90e8" transform="translate(100 0)"/>
       <use xlink:href="#DengXian-7b5b" transform="translate(200 0)"/>
       <use xlink:href="#DengXian-67e5" transform="translate(300 0)"/>
       <use xlink:href="#DengXian-4e0a" transform="translate(400 0)"/>
       <use xlink:href="#DengXian-754c" transform="translate(500 0)"/>
       <use xlink:href="#DengXian-3b4" transform="translate(600 0)"/>
       <use xlink:href="#DengXian-3d" transform="translate(658.105469 0)"/>
       <use xlink:href="#DengXian-30" transform="translate(724.804688 0)"/>
       <use xlink:href="#DengXian-2e" transform="translate(777.490234 0)"/>
       <use xlink:href="#DengXian-36" transform="translate(799.414062 0)"/>
       <use xlink:href="#DengXian-35" transform="translate(852.099609 0)"/>
       <use xlink:href="#DengXian-ff0c" transform="translate(904.785156 0)"/>
       <use xlink:href="#DengXian-3c3" transform="translate(1004.785156 0)"/>
       <use xlink:href="#DengXian-3d" transform="translate(1061.572266 0)"/>
       <use xlink:href="#DengXian-30" transform="translate(1128.271484 0)"/>
       <use xlink:href="#DengXian-2e" transform="translate(1180.957031 0)"/>
       <use xlink:href="#DengXian-32" transform="translate(1202.880859 0)"/>
       <use xlink:href="#DengXian-30" transform="translate(1255.566406 0)"/>
      </g>
     </g>
    </g>
    <g id="xtick_2">
     <g id="line2d_2">
      <g>
       <use xlink:href="#m9e726d714a" x="460.442712" y="318.40625" style="stroke: #000000; stroke-width: 0.8"/>
      </g>
     </g>
     <g id="text_2">
      <!-- TWI钢焊缝比较值δ=0.80，σ=0.20 -->
      <g transform="translate(386.633337 332.559375) scale(0.1 -0.1)">
       <defs>
        <path id="DengXian-54" d="M 1850 3794 
L 1850 -250 
L 1434 -250 
L 1434 3794 
L 63 3794 
L 63 4153 
L 3250 4153 
L 3250 3794 
L 1850 3794 
z
" transform="scale(0.015625)"/>
        <path id="DengXian-57" d="M 1341 -250 
L 103 4153 
L 544 4153 
L 1294 1384 
Q 1478 700 1584 213 
Q 1669 613 1913 1431 
L 2738 4153 
L 3116 4153 
L 3919 1434 
Q 4125 741 4234 213 
Q 4353 769 4525 1384 
L 5309 4153 
L 5747 4153 
L 4456 -250 
L 4025 -250 
L 3166 2659 
Q 3009 3200 2919 3678 
Q 2844 3278 2666 2663 
L 1788 -250 
L 1341 -250 
z
" transform="scale(0.015625)"/>
        <path id="DengXian-49" d="M 581 -250 
L 581 4153 
L 1000 4153 
L 1000 -250 
L 581 -250 
z
" transform="scale(0.015625)"/>
        <path id="DengXian-94a2" d="M 628 2497 
L 628 2803 
L 594 2766 
Q 453 2925 206 3009 
Q 903 3731 1253 5006 
L 1697 4813 
Q 1784 4775 1784 4744 
Q 1784 4703 1697 4672 
Q 1588 4628 1522 4500 
Q 1381 4166 1275 3944 
L 1959 3944 
Q 2203 3944 2509 3981 
L 2509 3584 
Q 2175 3628 1959 3622 
L 1125 3622 
Q 922 3244 691 2894 
Q 928 2853 1153 2853 
L 1747 2853 
Q 1959 2853 2259 2894 
L 2259 2497 
Q 1941 2534 1747 2534 
L 1600 2534 
L 1600 1656 
L 1959 1656 
Q 2156 1650 2484 1697 
L 2484 1300 
Q 2203 1338 1972 1338 
L 1600 1338 
L 1600 -31 
Q 2003 325 2363 775 
Q 2400 556 2509 409 
Q 2322 206 1913 -197 
Q 1650 -441 1409 -738 
L 1069 -359 
Q 1269 -191 1253 63 
L 1253 1338 
L 928 1338 
Q 716 1338 416 1300 
L 416 1697 
Q 716 1656 928 1656 
L 1253 1656 
L 1253 2534 
L 1153 2534 
Q 959 2534 628 2497 
z
M 2747 4506 
Q 3078 4469 3297 4469 
L 5288 4469 
Q 5538 4459 5863 4506 
Q 5825 4178 5825 3950 
L 5825 -219 
Q 5838 -581 5644 -691 
Q 5472 -819 4806 -891 
Q 4781 -659 4603 -428 
Q 4866 -456 5022 -456 
Q 5222 -456 5306 -416 
Q 5472 -366 5466 -109 
L 5466 4147 
L 3144 4147 
L 3144 -378 
Q 3144 -556 3181 -891 
L 2747 -891 
Q 2784 -563 2784 -378 
L 2784 3944 
Q 2784 4178 2747 4506 
z
M 3659 391 
Q 3481 519 3278 609 
Q 3788 1159 4172 1941 
Q 3775 2650 3347 3231 
L 3659 3438 
Q 3922 3034 4306 2413 
Q 4341 2369 4353 2344 
Q 4603 2900 4763 3572 
L 5172 3406 
Q 5269 3366 5259 3328 
Q 5259 3297 5153 3231 
Q 5044 3156 4984 3009 
Q 4788 2463 4563 1978 
Q 4916 1409 5209 856 
L 4863 634 
Q 4647 1113 4384 1581 
Q 4025 941 3659 391 
z
" transform="scale(0.015625)"/>
        <path id="DengXian-710a" d="M 219 -672 
Q 1338 300 1350 2803 
L 1350 4378 
Q 1344 4641 1313 5006 
L 1797 4941 
Q 1850 4934 1850 4892 
Q 1850 4850 1791 4806 
Q 1709 4750 1709 4334 
L 1709 2975 
Q 2156 3647 2266 4072 
L 2694 3841 
Q 2741 3816 2741 3784 
Q 2741 3775 2733 3753 
Q 2725 3731 2656 3719 
Q 2578 3713 2419 3475 
Q 2009 2859 1684 2463 
Q 1663 1906 1588 1294 
Q 2113 813 2572 313 
L 2266 -31 
Q 2003 403 1503 934 
Q 1222 -56 709 -819 
Q 494 -703 219 -672 
z
M 325 1991 
Q 581 2547 563 3750 
L 978 3694 
Q 1019 3688 1019 3659 
Q 1019 3641 978 3603 
Q 934 3547 922 3359 
Q 884 2669 769 1941 
Q 556 1978 325 1991 
z
M 3078 844 
L 4178 844 
L 4178 1734 
L 3206 1734 
Q 2988 1728 2694 1697 
L 2694 2094 
Q 3016 2059 3206 2053 
L 5491 2053 
Q 5747 2059 5997 2094 
L 5997 1697 
Q 5759 1728 5491 1734 
L 4538 1734 
L 4538 844 
L 5684 844 
Q 5925 850 6203 884 
L 6203 488 
Q 5931 519 5684 525 
L 4538 525 
L 4538 -525 
Q 4544 -781 4575 -1056 
L 4141 -1056 
Q 4172 -763 4178 -525 
L 4178 525 
L 3078 525 
Q 2816 519 2553 488 
L 2553 884 
Q 2834 850 3078 844 
z
M 5716 2522 
Q 5434 2553 5191 2559 
L 3531 2559 
Q 3272 2553 2950 2522 
Q 2981 2822 2988 3053 
L 2988 4153 
Q 2981 4384 2950 4709 
Q 3297 4678 3525 4672 
L 5166 4672 
Q 5422 4678 5716 4709 
Q 5684 4409 5678 4184 
L 5678 3041 
Q 5684 2822 5716 2522 
z
M 3334 3450 
L 3334 2881 
L 5331 2881 
L 5331 3450 
L 3334 3450 
z
M 3334 4353 
L 3334 3769 
L 5331 3769 
L 5331 4353 
L 3334 4353 
z
" transform="scale(0.015625)"/>
        <path id="DengXian-7f1d" d="M 1247 4806 
L 1631 4588 
Q 1734 4531 1741 4506 
Q 1753 4488 1672 4447 
Q 1581 4416 1509 4275 
Q 1375 4019 1113 3506 
Q 838 2969 703 2719 
Q 1088 2719 1422 2741 
Q 1684 3169 1831 3675 
L 2266 3425 
Q 2344 3378 2338 3359 
Q 2338 3341 2241 3316 
Q 2138 3284 2075 3181 
Q 1497 2188 941 1288 
Q 1550 1350 2188 1447 
Q 2119 1269 2088 1063 
Q 825 941 531 838 
L 353 1247 
Q 538 1325 659 1478 
Q 947 1875 1247 2431 
Q 588 2388 397 2303 
L 206 2669 
Q 397 2816 494 3003 
Q 1075 4072 1247 4806 
z
M 2175 391 
Q 2138 178 2138 -31 
Q 788 -447 441 -622 
L 225 -172 
Q 1216 25 2175 391 
z
M 3756 3534 
L 3981 3725 
Q 4178 3456 4416 3278 
Q 4788 3559 4966 3897 
L 3763 3897 
Q 3553 3591 3213 3163 
Q 3047 3284 2834 3347 
Q 3500 3884 3897 4934 
L 4347 4775 
Q 4441 4744 4434 4716 
Q 4434 4691 4341 4653 
Q 4172 4594 4078 4422 
Q 4006 4300 3928 4191 
L 5025 4191 
Q 5300 4191 5569 4231 
Q 5166 3481 4678 3091 
Q 5300 2725 6119 2606 
Q 5972 2456 5856 2241 
Q 5088 2491 4453 2913 
Q 3794 2472 3175 2209 
Q 3078 2381 2956 2522 
Q 2919 2291 2919 2059 
L 2919 -31 
Q 3091 -116 3284 -244 
Q 3641 -488 4550 -475 
Q 5306 -488 6100 -313 
Q 5953 -544 5894 -831 
Q 5441 -856 4916 -856 
Q 3634 -872 3103 -519 
Q 2803 -341 2688 -341 
Q 2338 -422 2113 -903 
Q 1959 -659 1825 -506 
Q 2125 -231 2572 -25 
L 2572 2234 
L 2375 2234 
Q 2181 2234 1919 2194 
L 1919 2566 
Q 2175 2528 2375 2528 
L 2491 2528 
Q 2731 2528 2925 2566 
Q 3547 2675 4172 3091 
Q 3944 3309 3756 3534 
z
M 1984 4334 
L 2253 4581 
Q 2656 4184 2981 3809 
L 2713 3553 
Q 2369 3975 1984 4334 
z
M 3278 306 
L 3278 678 
Q 3494 641 3738 641 
L 4275 641 
L 4275 1119 
L 3928 1119 
Q 3731 1119 3475 1081 
L 3475 1453 
Q 3725 1416 3928 1416 
L 4275 1416 
L 4275 1863 
L 3828 1863 
Q 3628 1863 3366 1825 
L 3366 2194 
Q 3616 2156 3828 2156 
L 4275 2156 
L 4275 2194 
Q 4275 2419 4238 2681 
L 4678 2619 
Q 4756 2613 4756 2578 
Q 4763 2559 4697 2484 
Q 4622 2400 4622 2194 
L 4622 2156 
L 5159 2156 
Q 5394 2156 5606 2194 
L 5606 1825 
Q 5375 1863 5159 1863 
L 4622 1863 
L 4622 1416 
L 5025 1416 
Q 5281 1416 5491 1453 
L 5491 1081 
Q 5275 1119 5025 1119 
L 4622 1119 
L 4622 641 
L 5300 641 
Q 5516 641 5784 678 
L 5784 306 
Q 5550 347 5300 347 
L 4622 347 
L 4622 191 
Q 4622 -19 4659 -300 
L 4238 -300 
Q 4275 -56 4275 191 
L 4275 347 
L 3738 347 
Q 3519 347 3278 306 
z
" transform="scale(0.015625)"/>
        <path id="DengXian-6bd4" d="M 722 -397 
Q 891 -313 916 -244 
Q 959 -172 953 78 
L 953 3853 
Q 953 4213 916 4409 
L 1388 4359 
Q 1472 4347 1478 4320 
Q 1484 4294 1422 4238 
Q 1313 4141 1313 3841 
L 1313 2663 
L 2406 2663 
Q 2719 2663 2906 2700 
L 2906 2303 
Q 2669 2344 2406 2344 
L 1313 2344 
L 1313 -153 
Q 1375 -122 1503 -63 
Q 2316 294 2797 659 
Q 2753 366 2753 122 
Q 1509 -500 1356 -583 
Q 1203 -666 947 -856 
Q 794 -531 722 -397 
z
M 3822 4191 
L 3822 2509 
Q 4928 3041 5306 3481 
L 5691 3084 
Q 5772 3003 5759 2964 
Q 5747 2925 5638 2931 
Q 5381 2944 5088 2759 
Q 4672 2478 3822 2125 
L 3822 -72 
Q 3794 -384 4147 -384 
Q 4166 -384 4206 -384 
Q 4450 -397 4628 -397 
Q 4928 -397 5119 -366 
Q 5441 -294 5538 91 
Q 5569 275 5569 647 
Q 5753 475 6075 378 
Q 5978 13 5888 -250 
Q 5703 -659 5253 -756 
Q 4922 -797 4603 -797 
Q 4259 -797 3872 -750 
Q 3463 -691 3463 -103 
L 3463 4191 
Q 3463 4519 3425 4744 
L 3897 4691 
Q 3988 4684 3994 4653 
Q 4000 4622 3928 4563 
Q 3822 4469 3822 4191 
z
" transform="scale(0.015625)"/>
        <path id="DengXian-8f83" d="M 3788 1953 
Q 3803 1447 4359 722 
Q 4813 1403 4850 2047 
L 5313 1844 
Q 5394 1806 5394 1778 
Q 5403 1747 5325 1716 
Q 5191 1644 5100 1403 
Q 4953 984 4616 441 
Q 5141 -159 6156 -475 
Q 5959 -569 5784 -838 
Q 4928 -416 4391 134 
Q 3641 -609 2631 -934 
Q 2497 -672 2297 -481 
Q 3378 -441 4128 434 
Q 3641 1069 3384 1813 
Q 3578 1856 3788 1953 
z
M 2797 2075 
Q 3469 2547 3822 3334 
L 4191 3072 
Q 4263 3028 4250 2994 
Q 4244 2969 4141 2931 
Q 4013 2869 3828 2613 
Q 3519 2175 3169 1819 
L 2797 2075 
z
M 2975 3506 
L 2975 3891 
Q 3206 3853 3488 3853 
L 4575 3853 
Q 4250 4225 3713 4678 
L 4000 4959 
Q 4153 4819 4469 4531 
Q 4781 4238 4928 4097 
L 4691 3853 
L 5466 3853 
Q 5766 3853 5966 3891 
L 5966 3506 
Q 5728 3547 5466 3547 
L 3488 3547 
Q 3225 3547 2975 3506 
z
M 4922 3263 
Q 5166 3028 5631 2534 
Q 5838 2309 5947 2194 
L 5684 1844 
Q 5184 2509 4641 2975 
L 4922 3263 
z
M 1453 4991 
L 1888 4844 
Q 1991 4813 1991 4788 
Q 2003 4769 1913 4709 
Q 1791 4628 1759 4506 
Q 1678 4166 1581 3928 
L 2253 3928 
Q 2541 3928 2759 3969 
L 2759 3584 
Q 2509 3622 2253 3622 
L 1484 3622 
Q 1209 2772 831 2034 
L 1600 2034 
L 1600 2444 
Q 1588 2822 1563 3059 
L 2028 2994 
Q 2138 2981 2138 2950 
Q 2144 2919 2047 2834 
Q 1959 2759 1959 2509 
L 1959 2034 
L 2188 2034 
Q 2450 2034 2694 2075 
L 2694 1691 
Q 2516 1728 2188 1728 
L 1959 1728 
L 1959 806 
Q 2553 953 2956 1159 
Q 2919 1013 2919 684 
Q 2350 563 1959 447 
L 1959 -397 
Q 1959 -750 1997 -947 
L 1563 -947 
Q 1600 -684 1600 -397 
L 1600 347 
Q 941 172 469 -31 
Q 409 191 263 409 
Q 856 469 1600 703 
L 1600 1728 
L 1025 1728 
Q 738 1734 513 1644 
Q 475 1844 341 2053 
Q 506 2138 563 2266 
Q 947 3016 1094 3622 
L 800 3622 
Q 628 3622 300 3584 
L 300 3969 
Q 469 3928 800 3928 
L 1197 3928 
Q 1369 4409 1453 4991 
z
" transform="scale(0.015625)"/>
        <path id="DengXian-503c" d="M 1484 4916 
L 1991 4703 
Q 2047 4678 2047 4653 
Q 2047 4634 1978 4588 
Q 1856 4519 1784 4334 
Q 1650 3994 1484 3603 
L 1484 -409 
Q 1478 -684 1522 -947 
L 1088 -947 
Q 1131 -709 1125 -416 
L 1125 2853 
Q 916 2484 634 2053 
Q 434 2203 122 2278 
Q 1069 3116 1484 4916 
z
M 2181 -250 
L 2478 -250 
L 2478 2859 
Q 2484 3041 2438 3303 
Q 2613 3272 2681 3263 
Q 2766 3256 2881 3256 
L 3634 3256 
L 3681 3794 
L 2413 3794 
Q 2259 3803 2022 3756 
L 2022 4153 
Q 2234 4109 2406 4116 
L 3706 4116 
L 3744 4634 
Q 3744 4716 3713 4872 
Q 3694 4984 3700 5000 
L 4197 4884 
Q 4263 4872 4263 4839 
Q 4263 4806 4206 4756 
Q 4116 4678 4103 4569 
L 4063 4116 
L 5509 4116 
Q 5656 4109 5888 4153 
L 5888 3756 
Q 5644 3803 5503 3794 
L 4038 3794 
L 3994 3256 
L 4897 3256 
Q 5044 3250 5338 3303 
Q 5294 3066 5300 2869 
L 5300 -250 
L 5716 -250 
Q 5850 -256 6100 -225 
L 6100 -609 
Q 5863 -563 5709 -569 
L 2194 -569 
Q 2016 -563 1778 -609 
L 1778 -225 
Q 2016 -256 2181 -250 
z
M 4941 588 
L 4941 1178 
L 2834 1178 
L 2834 588 
L 4941 588 
z
M 2834 2081 
L 2834 1484 
L 4941 1484 
L 4941 2081 
L 2834 2081 
z
M 2834 2944 
L 2834 2388 
L 4941 2388 
L 4941 2944 
L 2834 2944 
z
M 2834 -250 
L 4941 -250 
L 4941 281 
L 2834 281 
L 2834 -250 
z
" transform="scale(0.015625)"/>
        <path id="DengXian-38" d="M 3050 972 
Q 3050 359 2697 23 
Q 2344 -313 1688 -313 
Q 1038 -313 680 25 
Q 322 363 322 966 
Q 322 1391 553 1684 
Q 784 1978 1159 2053 
L 1159 2066 
Q 819 2156 619 2440 
Q 419 2725 419 3109 
Q 419 3606 759 3912 
Q 1100 4219 1675 4219 
Q 2266 4219 2606 3911 
Q 2947 3603 2947 3103 
Q 2947 2706 2742 2428 
Q 2538 2150 2200 2075 
L 2200 2063 
Q 2588 1988 2819 1702 
Q 3050 1416 3050 972 
z
M 2541 3088 
Q 2541 3494 2316 3700 
Q 2091 3906 1675 3906 
Q 1263 3906 1042 3695 
Q 822 3484 822 3088 
Q 822 2684 1048 2454 
Q 1275 2225 1681 2225 
Q 2100 2225 2320 2450 
Q 2541 2675 2541 3088 
z
M 2644 1009 
Q 2644 1428 2394 1667 
Q 2144 1906 1678 1906 
Q 1231 1906 978 1656 
Q 725 1406 725 997 
Q 725 516 973 259 
Q 1222 3 1694 3 
Q 2172 3 2408 258 
Q 2644 513 2644 1009 
z
" transform="scale(0.015625)"/>
       </defs>
       <use xlink:href="#DengXian-54"/>
       <use xlink:href="#DengXian-57" transform="translate(51.757812 0)"/>
       <use xlink:href="#DengXian-49" transform="translate(143.212891 0)"/>
       <use xlink:href="#DengXian-94a2" transform="translate(167.919922 0)"/>
       <use xlink:href="#DengXian-710a" transform="translate(267.919922 0)"/>
       <use xlink:href="#DengXian-7f1d" transform="translate(367.919922 0)"/>
       <use xlink:href="#DengXian-6bd4" transform="translate(467.919922 0)"/>
       <use xlink:href="#DengXian-8f83" transform="translate(567.919922 0)"/>
       <use xlink:href="#DengXian-503c" transform="translate(667.919922 0)"/>
       <use xlink:href="#DengXian-3b4" transform="translate(767.919922 0)"/>
       <use xlink:href="#DengXian-3d" transform="translate(826.025391 0)"/>
       <use xlink:href="#DengXian-30" transform="translate(892.724609 0)"/>
       <use xlink:href="#DengXian-2e" transform="translate(945.410156 0)"/>
       <use xlink:href="#DengXian-38" transform="translate(967.333984 0)"/>
       <use xlink:href="#DengXian-30" transform="translate(1020.019531 0)"/>
       <use xlink:href="#DengXian-ff0c" transform="translate(1072.705078 0)"/>
       <use xlink:href="#DengXian-3c3" transform="translate(1172.705078 0)"/>
       <use xlink:href="#DengXian-3d" transform="translate(1229.492188 0)"/>
       <use xlink:href="#DengXian-30" transform="translate(1296.191406 0)"/>
       <use xlink:href="#DengXian-2e" transform="translate(1348.876953 0)"/>
       <use xlink:href="#DengXian-32" transform="translate(1370.800781 0)"/>
       <use xlink:href="#DengXian-30" transform="translate(1423.486328 0)"/>
      </g>
     </g>
    </g>
   </g>
   <g id="matplotlib.axis_2">
    <g id="ytick_1">
     <g id="line2d_3">
      <path d="M 54.319531 318.40625 
L 594 318.40625 
" clip-path="url(#p4a38450dbb)" style="fill: none; stroke: #b0b0b0; stroke-opacity: 0.2; stroke-width: 0.8; stroke-linecap: square"/>
     </g>
     <g id="line2d_4">
      <defs>
       <path id="mab701163c5" d="M 0 0 
L -3.5 0 
" style="stroke: #000000; stroke-width: 0.8"/>
      </defs>
      <g>
       <use xlink:href="#mab701163c5" x="54.319531" y="318.40625" style="stroke: #000000; stroke-width: 0.8"/>
      </g>
     </g>
     <g id="text_3">
      <!-- 0.000 -->
      <g transform="translate(24.052344 321.760937) scale(0.1 -0.1)">
       <use xlink:href="#DengXian-30"/>
       <use xlink:href="#DengXian-2e" transform="translate(52.685547 0)"/>
       <use xlink:href="#DengXian-30" transform="translate(74.609375 0)"/>
       <use xlink:href="#DengXian-30" transform="translate(127.294922 0)"/>
       <use xlink:href="#DengXian-30" transform="translate(179.980469 0)"/>
      </g>
     </g>
    </g>
    <g id="ytick_2">
     <g id="line2d_5">
      <path d="M 54.319531 285.729918 
L 594 285.729918 
" clip-path="url(#p4a38450dbb)" style="fill: none; stroke: #b0b0b0; stroke-opacity: 0.2; stroke-width: 0.8; stroke-linecap: square"/>
     </g>
     <g id="line2d_6">
      <g>
       <use xlink:href="#mab701163c5" x="54.319531" y="285.729918" style="stroke: #000000; stroke-width: 0.8"/>
      </g>
     </g>
     <g id="text_4">
      <!-- 0.025 -->
      <g transform="translate(24.052344 289.084606) scale(0.1 -0.1)">
       <use xlink:href="#DengXian-30"/>
       <use xlink:href="#DengXian-2e" transform="translate(52.685547 0)"/>
       <use xlink:href="#DengXian-30" transform="translate(74.609375 0)"/>
       <use xlink:href="#DengXian-32" transform="translate(127.294922 0)"/>
       <use xlink:href="#DengXian-35" transform="translate(179.980469 0)"/>
      </g>
     </g>
    </g>
    <g id="ytick_3">
     <g id="line2d_7">
      <path d="M 54.319531 253.053587 
L 594 253.053587 
" clip-path="url(#p4a38450dbb)" style="fill: none; stroke: #b0b0b0; stroke-opacity: 0.2; stroke-width: 0.8; stroke-linecap: square"/>
     </g>
     <g id="line2d_8">
      <g>
       <use xlink:href="#mab701163c5" x="54.319531" y="253.053587" style="stroke: #000000; stroke-width: 0.8"/>
      </g>
     </g>
     <g id="text_5">
      <!-- 0.050 -->
      <g transform="translate(24.052344 256.408274) scale(0.1 -0.1)">
       <use xlink:href="#DengXian-30"/>
       <use xlink:href="#DengXian-2e" transform="translate(52.685547 0)"/>
       <use xlink:href="#DengXian-30" transform="translate(74.609375 0)"/>
       <use xlink:href="#DengXian-35" transform="translate(127.294922 0)"/>
       <use xlink:href="#DengXian-30" transform="translate(179.980469 0)"/>
      </g>
     </g>
    </g>
    <g id="ytick_4">
     <g id="line2d_9">
      <path d="M 54.319531 220.377255 
L 594 220.377255 
" clip-path="url(#p4a38450dbb)" style="fill: none; stroke: #b0b0b0; stroke-opacity: 0.2; stroke-width: 0.8; stroke-linecap: square"/>
     </g>
     <g id="line2d_10">
      <g>
       <use xlink:href="#mab701163c5" x="54.319531" y="220.377255" style="stroke: #000000; stroke-width: 0.8"/>
      </g>
     </g>
     <g id="text_6">
      <!-- 0.075 -->
      <g transform="translate(24.052344 223.731942) scale(0.1 -0.1)">
       <defs>
        <path id="DengXian-37" d="M 3031 3809 
Q 2278 2631 1928 1634 
Q 1578 638 1578 -250 
L 1172 -250 
Q 1172 625 1545 1651 
Q 1919 2678 2638 3797 
L 331 3797 
L 331 4153 
L 3031 4153 
L 3031 3809 
z
" transform="scale(0.015625)"/>
       </defs>
       <use xlink:href="#DengXian-30"/>
       <use xlink:href="#DengXian-2e" transform="translate(52.685547 0)"/>
       <use xlink:href="#DengXian-30" transform="translate(74.609375 0)"/>
       <use xlink:href="#DengXian-37" transform="translate(127.294922 0)"/>
       <use xlink:href="#DengXian-35" transform="translate(179.980469 0)"/>
      </g>
     </g>
    </g>
    <g id="ytick_5">
     <g id="line2d_11">
      <path d="M 54.319531 187.700923 
L 594 187.700923 
" clip-path="url(#p4a38450dbb)" style="fill: none; stroke: #b0b0b0; stroke-opacity: 0.2; stroke-width: 0.8; stroke-linecap: square"/>
     </g>
     <g id="line2d_12">
      <g>
       <use xlink:href="#mab701163c5" x="54.319531" y="187.700923" style="stroke: #000000; stroke-width: 0.8"/>
      </g>
     </g>
     <g id="text_7">
      <!-- 0.100 -->
      <g transform="translate(24.052344 191.055611) scale(0.1 -0.1)">
       <defs>
        <path id="DengXian-31" d="M 484 -250 
L 484 84 
L 1609 84 
L 1609 3744 
L 603 3075 
L 603 3434 
L 1653 4153 
L 2000 4153 
L 2000 84 
L 2959 84 
L 2959 -250 
L 484 -250 
z
" transform="scale(0.015625)"/>
       </defs>
       <use xlink:href="#DengXian-30"/>
       <use xlink:href="#DengXian-2e" transform="translate(52.685547 0)"/>
       <use xlink:href="#DengXian-31" transform="translate(74.609375 0)"/>
       <use xlink:href="#DengXian-30" transform="translate(127.294922 0)"/>
       <use xlink:href="#DengXian-30" transform="translate(179.980469 0)"/>
      </g>
     </g>
    </g>
    <g id="ytick_6">
     <g id="line2d_13">
      <path d="M 54.319531 155.024592 
L 594 155.024592 
" clip-path="url(#p4a38450dbb)" style="fill: none; stroke: #b0b0b0; stroke-opacity: 0.2; stroke-width: 0.8; stroke-linecap: square"/>
     </g>
     <g id="line2d_14">
      <g>
       <use xlink:href="#mab701163c5" x="54.319531" y="155.024592" style="stroke: #000000; stroke-width: 0.8"/>
      </g>
     </g>
     <g id="text_8">
      <!-- 0.125 -->
      <g transform="translate(24.052344 158.379279) scale(0.1 -0.1)">
       <use xlink:href="#DengXian-30"/>
       <use xlink:href="#DengXian-2e" transform="translate(52.685547 0)"/>
       <use xlink:href="#DengXian-31" transform="translate(74.609375 0)"/>
       <use xlink:href="#DengXian-32" transform="translate(127.294922 0)"/>
       <use xlink:href="#DengXian-35" transform="translate(179.980469 0)"/>
      </g>
     </g>
    </g>
    <g id="ytick_7">
     <g id="line2d_15">
      <path d="M 54.319531 122.34826 
L 594 122.34826 
" clip-path="url(#p4a38450dbb)" style="fill: none; stroke: #b0b0b0; stroke-opacity: 0.2; stroke-width: 0.8; stroke-linecap: square"/>
     </g>
     <g id="line2d_16">
      <g>
       <use xlink:href="#mab701163c5" x="54.319531" y="122.34826" style="stroke: #000000; stroke-width: 0.8"/>
      </g>
     </g>
     <g id="text_9">
      <!-- 0.150 -->
      <g transform="translate(24.052344 125.702947) scale(0.1 -0.1)">
       <use xlink:href="#DengXian-30"/>
       <use xlink:href="#DengXian-2e" transform="translate(52.685547 0)"/>
       <use xlink:href="#DengXian-31" transform="translate(74.609375 0)"/>
       <use xlink:href="#DengXian-35" transform="translate(127.294922 0)"/>
       <use xlink:href="#DengXian-30" transform="translate(179.980469 0)"/>
      </g>
     </g>
    </g>
    <g id="ytick_8">
     <g id="line2d_17">
      <path d="M 54.319531 89.671928 
L 594 89.671928 
" clip-path="url(#p4a38450dbb)" style="fill: none; stroke: #b0b0b0; stroke-opacity: 0.2; stroke-width: 0.8; stroke-linecap: square"/>
     </g>
     <g id="line2d_18">
      <g>
       <use xlink:href="#mab701163c5" x="54.319531" y="89.671928" style="stroke: #000000; stroke-width: 0.8"/>
      </g>
     </g>
     <g id="text_10">
      <!-- 0.175 -->
      <g transform="translate(24.052344 93.026616) scale(0.1 -0.1)">
       <use xlink:href="#DengXian-30"/>
       <use xlink:href="#DengXian-2e" transform="translate(52.685547 0)"/>
       <use xlink:href="#DengXian-31" transform="translate(74.609375 0)"/>
       <use xlink:href="#DengXian-37" transform="translate(127.294922 0)"/>
       <use xlink:href="#DengXian-35" transform="translate(179.980469 0)"/>
      </g>
     </g>
    </g>
    <g id="ytick_9">
     <g id="line2d_19">
      <path d="M 54.319531 56.995597 
L 594 56.995597 
" clip-path="url(#p4a38450dbb)" style="fill: none; stroke: #b0b0b0; stroke-opacity: 0.2; stroke-width: 0.8; stroke-linecap: square"/>
     </g>
     <g id="line2d_20">
      <g>
       <use xlink:href="#mab701163c5" x="54.319531" y="56.995597" style="stroke: #000000; stroke-width: 0.8"/>
      </g>
     </g>
     <g id="text_11">
      <!-- 0.200 -->
      <g transform="translate(24.052344 60.350284) scale(0.1 -0.1)">
       <use xlink:href="#DengXian-30"/>
       <use xlink:href="#DengXian-2e" transform="translate(52.685547 0)"/>
       <use xlink:href="#DengXian-32" transform="translate(74.609375 0)"/>
       <use xlink:href="#DengXian-30" transform="translate(127.294922 0)"/>
       <use xlink:href="#DengXian-30" transform="translate(179.980469 0)"/>
      </g>
     </g>
    </g>
    <g id="text_12">
     <!-- 筛查所需径向加工余量 / mm -->
     <g transform="translate(17.733594 235.08125) rotate(-90) scale(0.1 -0.1)">
      <defs>
       <path id="DengXian-6240" d="M 863 4469 
Q 2113 4531 2875 4838 
L 3103 4441 
Q 3128 4397 3128 4372 
Q 3128 4353 3117 4340 
Q 3106 4328 3094 4328 
Q 3075 4328 3028 4347 
Q 2947 4372 2856 4372 
Q 2781 4372 2675 4353 
Q 2081 4244 1294 4178 
L 1294 3353 
L 2297 3353 
Q 2613 3353 2828 3391 
Q 2791 3200 2791 2888 
L 2791 1813 
Q 2791 1447 2828 1259 
Q 2591 1300 2278 1300 
L 1259 1300 
Q 1106 250 653 -709 
Q 422 -609 191 -544 
Q 909 384 934 2106 
L 934 3756 
Q 909 4200 863 4469 
z
M 1306 3034 
L 1281 1619 
L 2444 1619 
L 2444 3034 
L 1306 3034 
z
M 2503 -672 
Q 3034 -97 3238 569 
Q 3444 1178 3431 2272 
L 3431 3475 
Q 3431 4044 3391 4366 
Q 3488 4363 3659 4363 
Q 4909 4363 5631 4763 
L 5913 4353 
Q 5959 4294 5959 4263 
Q 5959 4250 5953 4244 
Q 5947 4231 5916 4231 
Q 5881 4231 5825 4244 
Q 5784 4250 5738 4250 
Q 5588 4250 5356 4191 
Q 4825 4063 3788 3988 
L 3788 2638 
L 5544 2638 
Q 5913 2638 6131 2675 
L 6131 2278 
Q 5881 2316 5538 2316 
L 5125 2316 
L 5125 -359 
Q 5125 -709 5166 -922 
L 4728 -922 
Q 4769 -666 4769 -353 
L 4769 2316 
L 3803 2316 
Q 3828 184 2956 -850 
Q 2797 -703 2503 -672 
z
" transform="scale(0.015625)"/>
       <path id="DengXian-9700" d="M 5991 2138 
L 5991 1753 
Q 5722 1778 5472 1778 
L 3175 1778 
Q 3150 1747 3041 1516 
Q 2963 1356 2913 1259 
L 4928 1259 
Q 5075 1259 5466 1300 
Q 5434 984 5428 794 
L 5428 -250 
Q 5447 -616 5275 -703 
Q 5125 -825 4481 -884 
Q 4459 -594 4313 -409 
Q 4594 -447 4747 -447 
Q 4875 -447 4934 -422 
Q 5081 -384 5069 -159 
L 5069 941 
L 4006 941 
L 4006 -6 
Q 4013 -178 4044 -506 
L 3622 -506 
Q 3653 -244 3659 -6 
L 3659 941 
L 2772 941 
L 2772 -13 
Q 2772 -134 2809 -513 
L 2388 -513 
Q 2419 -159 2425 -13 
L 2425 941 
L 1459 941 
L 1459 -341 
Q 1466 -556 1497 -850 
L 1063 -850 
Q 1100 -466 1100 -341 
L 1100 794 
Q 1094 959 1063 1300 
Q 1434 1259 1625 1259 
L 2528 1259 
Q 2528 1269 2534 1275 
Q 2597 1375 2784 1778 
L 903 1778 
Q 603 1772 391 1753 
L 391 2138 
Q 722 2106 903 2100 
L 5472 2100 
Q 5631 2100 5991 2138 
z
M 616 4078 
Q 959 4044 1228 4038 
L 3047 4038 
L 3047 4416 
L 1416 4416 
Q 1094 4409 897 4391 
L 897 4775 
Q 1281 4738 1416 4738 
L 5050 4738 
Q 5203 4738 5575 4775 
L 5575 4391 
Q 5350 4416 5063 4416 
L 3406 4416 
L 3406 4038 
L 5216 4038 
Q 5409 4044 5844 4078 
Q 5813 3744 5806 3559 
L 5806 3413 
Q 5806 3244 5844 2900 
L 5409 2900 
Q 5441 3169 5447 3413 
L 5447 3719 
L 3406 3719 
L 3406 2834 
Q 3406 2559 3431 2322 
L 3016 2322 
Q 3047 2688 3047 2834 
L 3047 3719 
L 997 3719 
L 997 3347 
Q 1006 3188 1038 2834 
L 616 2834 
Q 647 3109 653 3347 
L 653 3553 
Q 647 3775 616 4078 
z
M 1313 3053 
L 1313 3425 
Q 1638 3391 1831 3384 
L 2150 3384 
Q 2338 3391 2669 3425 
L 2669 3053 
Q 2344 3084 2156 3091 
L 1831 3091 
Q 1656 3091 1313 3053 
z
M 1313 2450 
L 1313 2822 
Q 1631 2791 1831 2784 
L 2150 2784 
Q 2316 2791 2669 2822 
L 2669 2450 
Q 2356 2484 2156 2491 
L 1831 2491 
Q 1678 2484 1313 2450 
z
M 3731 3053 
L 3731 3425 
Q 4091 3384 4250 3384 
L 4569 3384 
Q 4794 3391 5088 3425 
L 5088 3053 
Q 4728 3091 4575 3091 
L 4250 3091 
Q 4050 3084 3731 3053 
z
M 3744 2472 
L 3744 2841 
Q 4025 2809 4256 2803 
L 4575 2803 
Q 4716 2809 5100 2841 
L 5100 2472 
Q 4750 2503 4581 2509 
L 4256 2509 
Q 4056 2503 3744 2472 
z
" transform="scale(0.015625)"/>
       <path id="DengXian-5f84" d="M 1209 -384 
L 1209 1953 
Q 934 1600 653 1288 
Q 513 1453 244 1588 
Q 1228 2266 1663 3456 
L 2131 3206 
Q 2181 3181 2175 3150 
Q 2163 3116 2106 3097 
Q 1972 3059 1900 2956 
Q 1747 2725 1569 2472 
L 1569 -384 
Q 1569 -609 1606 -997 
L 1172 -997 
Q 1209 -628 1209 -384 
z
M 294 3488 
Q 1191 4000 1644 4991 
L 2034 4691 
Q 2081 4653 2075 4634 
Q 2069 4609 1997 4594 
Q 1869 4556 1759 4416 
Q 1281 3756 678 3219 
Q 506 3384 294 3488 
z
M 5759 1544 
L 5759 1147 
Q 5453 1184 5228 1184 
L 4275 1184 
L 4275 -347 
L 5516 -347 
Q 5747 -353 6047 -306 
L 6047 -703 
Q 5766 -666 5516 -666 
L 2619 -666 
Q 2394 -666 2094 -703 
L 2094 -306 
Q 2400 -347 2613 -347 
L 3903 -347 
L 3903 1184 
L 2975 1184 
Q 2753 1184 2450 1147 
L 2450 1544 
Q 2741 1503 2963 1503 
L 5228 1503 
Q 5459 1497 5759 1544 
z
M 4781 4250 
L 2975 4250 
Q 2731 4250 2463 4213 
L 2463 4609 
Q 2766 4569 2975 4569 
L 4781 4569 
Q 5063 4569 5394 4609 
Q 4909 3681 4428 3163 
Q 5259 2803 6034 2394 
L 5806 1966 
Q 5184 2413 4128 2875 
Q 3547 2400 2528 1953 
Q 2419 2175 2203 2369 
Q 3922 2700 4781 4250 
z
" transform="scale(0.015625)"/>
       <path id="DengXian-5411" d="M 2175 4897 
L 2741 4672 
Q 2816 4641 2803 4622 
Q 2797 4594 2688 4556 
Q 2534 4506 2456 4359 
Q 2194 3909 2034 3647 
L 4928 3647 
Q 5234 3647 5556 3688 
Q 5516 3400 5516 3116 
L 5516 -159 
Q 5538 -616 5344 -703 
Q 5203 -825 4384 -891 
Q 4319 -616 4184 -378 
Q 4541 -413 4750 -413 
Q 4919 -413 4984 -391 
Q 5159 -353 5147 -109 
L 5147 3316 
L 1178 3316 
L 1178 -250 
Q 1178 -550 1216 -897 
L 769 -897 
Q 806 -569 806 -250 
L 806 3138 
Q 806 3378 769 3688 
Q 1100 3647 1369 3647 
L 1619 3647 
Q 2041 4281 2175 4897 
z
M 4225 2381 
Q 4184 2113 4184 1856 
L 4184 991 
Q 4184 744 4225 441 
Q 3938 481 3647 481 
L 2597 481 
Q 2316 481 2041 441 
Q 2081 744 2081 991 
L 2081 1850 
Q 2081 2088 2041 2381 
Q 2328 2344 2597 2344 
L 3675 2344 
Q 3950 2344 4225 2381 
z
M 2438 800 
L 3828 800 
L 3828 2022 
L 2438 2022 
L 2438 800 
z
" transform="scale(0.015625)"/>
       <path id="DengXian-52a0" d="M 3859 4038 
Q 4166 4000 4366 4000 
L 5369 4000 
Q 5581 3994 5869 4038 
Q 5825 3719 5831 3431 
L 5831 38 
Q 5825 -197 5869 -494 
L 5434 -494 
Q 5472 -206 5472 25 
L 5472 184 
L 4256 184 
L 4256 -50 
Q 4250 -275 4294 -581 
L 3859 -581 
Q 3897 -281 3897 -63 
L 3897 3431 
Q 3903 3688 3859 4038 
z
M 5472 494 
L 5472 3694 
L 4256 3694 
L 4256 494 
L 5472 494 
z
M 891 3609 
L 1588 3609 
Q 1588 4588 1563 4934 
L 2059 4878 
Q 2156 4872 2150 4825 
Q 2150 4794 2053 4703 
Q 1978 4641 1978 4372 
Q 1978 4116 1978 3969 
Q 1972 3794 1966 3609 
L 2688 3609 
Q 2963 3603 3219 3647 
Q 3169 3419 3078 378 
Q 3066 -166 2881 -325 
Q 2713 -513 2106 -581 
Q 2053 -300 1888 -78 
Q 2084 -113 2238 -113 
Q 2428 -113 2522 -56 
Q 2694 38 2706 397 
Q 2784 1747 2809 3303 
L 1959 3303 
Q 1966 469 831 -897 
Q 678 -819 306 -716 
Q 1581 231 1581 3303 
L 903 3303 
Q 744 3309 469 3263 
L 469 3647 
Q 722 3603 891 3609 
z
" transform="scale(0.015625)"/>
       <path id="DengXian-5de5" d="M 953 -166 
L 3003 -166 
L 3003 3975 
L 1472 3975 
Q 1125 3975 959 3938 
L 959 4334 
Q 1125 4294 1453 4294 
L 5063 4294 
Q 5388 4294 5569 4334 
L 5569 3938 
Q 5369 3975 5063 3975 
L 3372 3975 
L 3372 -166 
L 5466 -166 
Q 5778 -166 5966 -128 
L 5966 -513 
Q 5772 -475 5466 -475 
L 972 -475 
Q 628 -475 469 -513 
L 469 -128 
Q 641 -159 953 -166 
z
" transform="scale(0.015625)"/>
       <path id="DengXian-4f59" d="M 1959 872 
L 2328 563 
Q 2394 506 2387 479 
Q 2381 453 2297 434 
Q 2144 409 2009 250 
Q 1625 -191 916 -831 
Q 756 -659 500 -506 
Q 1350 -56 1959 872 
z
M 1013 1100 
L 1013 1497 
Q 1313 1459 1528 1459 
L 3097 1459 
L 3097 2388 
L 2150 2388 
Q 1947 2388 1631 2350 
L 1631 2747 
Q 1925 2706 2150 2706 
L 4263 2706 
Q 4506 2706 4800 2747 
L 4800 2350 
Q 4481 2388 4263 2388 
L 3456 2388 
L 3456 1459 
L 4947 1459 
Q 5153 1459 5441 1497 
L 5441 1100 
Q 5172 1141 4941 1141 
L 3456 1141 
L 3456 -384 
Q 3463 -703 3244 -825 
Q 3028 -959 2425 -997 
Q 2400 -722 2259 -475 
Q 2566 -519 2756 -519 
Q 2884 -519 2944 -500 
Q 3103 -459 3097 -250 
L 3097 1141 
L 1522 1141 
Q 1313 1141 1013 1100 
z
M 4056 428 
L 4288 800 
Q 5222 306 5919 -191 
L 5650 -556 
Q 4972 -6 4056 428 
z
M 3059 5006 
L 3519 4756 
Q 3572 4722 3572 4703 
Q 3572 4684 3513 4659 
Q 3469 4641 3413 4594 
Q 4469 3225 6234 2847 
Q 5997 2663 5844 2400 
Q 4025 3175 3156 4334 
Q 2203 3016 666 2169 
Q 500 2369 225 2534 
Q 2106 3200 3059 5006 
z
" transform="scale(0.015625)"/>
       <path id="DengXian-91cf" d="M 6106 2797 
L 6106 2425 
Q 5825 2472 5588 2463 
L 844 2463 
Q 616 2472 325 2425 
L 325 2797 
Q 550 2753 844 2759 
L 5588 2759 
Q 5813 2753 6106 2797 
z
M 5203 4622 
Q 5159 4397 5166 4178 
L 5166 3463 
Q 5159 3278 5203 3009 
Q 4903 3053 4744 3047 
L 1778 3047 
Q 1575 3047 1478 3041 
Q 1388 3034 1253 3009 
Q 1300 3263 1294 3456 
L 1294 4134 
Q 1294 4353 1253 4622 
Q 1453 4575 1747 4581 
L 4756 4581 
Q 4941 4575 5203 4622 
z
M 1638 4313 
L 1638 3950 
L 4819 3950 
L 4819 4313 
L 1638 4313 
z
M 1638 3681 
L 1638 3316 
L 4819 3316 
L 4819 3681 
L 1638 3681 
z
M 1006 -434 
L 3097 -434 
L 3097 -78 
L 1478 -78 
Q 1184 -72 953 -116 
L 953 256 
Q 1184 213 1478 219 
L 3097 219 
L 3097 588 
L 1734 588 
Q 1447 594 1203 550 
Q 1247 844 1241 1081 
L 1241 1691 
Q 1247 1919 1203 2216 
Q 1478 2169 1716 2175 
L 4775 2175 
Q 5013 2169 5325 2216 
Q 5281 1934 5288 1697 
L 5288 1081 
Q 5281 813 5325 550 
Q 4997 588 4775 588 
L 3456 588 
L 3456 219 
L 4978 219 
Q 5203 213 5503 256 
L 5503 -116 
Q 5216 -72 4978 -78 
L 3456 -78 
L 3456 -434 
L 5453 -434 
Q 5672 -441 5978 -397 
L 5978 -769 
Q 5663 -722 5453 -728 
L 1006 -728 
Q 781 -722 481 -775 
L 481 -397 
Q 722 -441 1006 -434 
z
M 3456 1253 
L 3456 856 
L 4941 856 
L 4941 1253 
L 3456 1253 
z
M 3456 1906 
L 3456 1522 
L 4941 1522 
L 4941 1906 
L 3456 1906 
z
M 1588 1253 
L 1588 856 
L 3097 856 
L 3097 1253 
L 1588 1253 
z
M 1588 1906 
L 1588 1522 
L 3097 1522 
L 3097 1906 
L 1588 1906 
z
" transform="scale(0.015625)"/>
       <path id="DengXian-20" transform="scale(0.015625)"/>
       <path id="DengXian-2f" d="M 422 -250 
L 19 -250 
L 2009 4300 
L 2397 4300 
L 422 -250 
z
" transform="scale(0.015625)"/>
       <path id="DengXian-6d" d="M 4506 -250 
L 4506 1613 
Q 4506 2181 4336 2423 
Q 4166 2666 3772 2666 
Q 3369 2666 3137 2358 
Q 2906 2050 2906 1575 
L 2906 -250 
L 2513 -250 
L 2513 1613 
Q 2513 2172 2341 2419 
Q 2169 2666 1784 2666 
Q 1400 2666 1156 2355 
Q 913 2044 913 1541 
L 913 -250 
L 516 -250 
L 516 2222 
Q 516 2516 494 2931 
L 850 2931 
Q 875 2622 888 2325 
L 900 2325 
Q 1056 2666 1293 2830 
Q 1531 2994 1903 2994 
Q 2303 2994 2534 2801 
Q 2766 2609 2834 2284 
L 2850 2284 
Q 3153 2994 3894 2994 
Q 4406 2994 4654 2687 
Q 4903 2381 4903 1709 
L 4903 -250 
L 4506 -250 
z
" transform="scale(0.015625)"/>
      </defs>
      <use xlink:href="#DengXian-7b5b"/>
      <use xlink:href="#DengXian-67e5" transform="translate(100 0)"/>
      <use xlink:href="#DengXian-6240" transform="translate(200 0)"/>
      <use xlink:href="#DengXian-9700" transform="translate(300 0)"/>
      <use xlink:href="#DengXian-5f84" transform="translate(400 0)"/>
      <use xlink:href="#DengXian-5411" transform="translate(500 0)"/>
      <use xlink:href="#DengXian-52a0" transform="translate(600 0)"/>
      <use xlink:href="#DengXian-5de5" transform="translate(700 0)"/>
      <use xlink:href="#DengXian-4f59" transform="translate(800 0)"/>
      <use xlink:href="#DengXian-91cf" transform="translate(900 0)"/>
      <use xlink:href="#DengXian-20" transform="translate(1000 0)"/>
      <use xlink:href="#DengXian-2f" transform="translate(1027.392578 0)"/>
      <use xlink:href="#DengXian-20" transform="translate(1065.185547 0)"/>
      <use xlink:href="#DengXian-6d" transform="translate(1092.578125 0)"/>
      <use xlink:href="#DengXian-6d" transform="translate(1176.708984 0)"/>
     </g>
    </g>
   </g>
   <g id="line2d_21">
    <path d="M 54.319531 56.995597 
L 594 56.995597 
" clip-path="url(#p4a38450dbb)" style="fill: none; stroke-dasharray: 5.55,2.4; stroke-dashoffset: 0; stroke: #1b4965; stroke-width: 1.5"/>
   </g>
   <g id="patch_5">
    <path d="M 54.319531 318.40625 
L 54.319531 25.673437 
" style="fill: none; stroke: #000000; stroke-width: 0.8; stroke-linejoin: miter; stroke-linecap: square"/>
   </g>
   <g id="patch_6">
    <path d="M 594 318.40625 
L 594 25.673437 
" style="fill: none; stroke: #000000; stroke-width: 0.8; stroke-linejoin: miter; stroke-linecap: square"/>
   </g>
   <g id="patch_7">
    <path d="M 54.319531 318.40625 
L 594 318.40625 
" style="fill: none; stroke: #000000; stroke-width: 0.8; stroke-linejoin: miter; stroke-linecap: square"/>
   </g>
   <g id="patch_8">
    <path d="M 54.319531 25.673437 
L 594 25.673437 
" style="fill: none; stroke: #000000; stroke-width: 0.8; stroke-linejoin: miter; stroke-linecap: square"/>
   </g>
   <g id="text_13">
    <!-- 0.1827 -->
    <g transform="translate(176.462444 79.501747) scale(0.08 -0.08)">
     <use xlink:href="#DengXian-30"/>
     <use xlink:href="#DengXian-2e" transform="translate(52.685547 0)"/>
     <use xlink:href="#DengXian-31" transform="translate(74.609375 0)"/>
     <use xlink:href="#DengXian-38" transform="translate(127.294922 0)"/>
     <use xlink:href="#DengXian-32" transform="translate(179.980469 0)"/>
     <use xlink:href="#DengXian-37" transform="translate(232.666016 0)"/>
    </g>
   </g>
   <g id="text_14">
    <!-- 0.2133 -->
    <g transform="translate(449.028337 39.48239) scale(0.08 -0.08)">
     <defs>
      <path id="DengXian-33" d="M 3019 963 
Q 3019 356 2662 21 
Q 2306 -313 1656 -313 
Q 409 -313 266 828 
L 669 872 
Q 778 25 1656 25 
Q 2122 25 2367 262 
Q 2613 500 2613 963 
Q 2613 1375 2320 1590 
Q 2028 1806 1500 1806 
L 1200 1806 
L 1200 2172 
L 1491 2172 
Q 1784 2172 2011 2269 
Q 2238 2366 2369 2555 
Q 2500 2744 2500 3022 
Q 2500 3434 2283 3659 
Q 2066 3884 1644 3884 
Q 1266 3884 1027 3689 
Q 788 3494 747 3091 
L 353 3125 
Q 413 3647 755 3933 
Q 1097 4219 1647 4219 
Q 2244 4219 2573 3914 
Q 2903 3609 2903 3056 
Q 2903 2653 2672 2376 
Q 2441 2100 2022 2009 
L 2022 1997 
Q 2491 1938 2755 1658 
Q 3019 1378 3019 963 
z
" transform="scale(0.015625)"/>
     </defs>
     <use xlink:href="#DengXian-30"/>
     <use xlink:href="#DengXian-2e" transform="translate(52.685547 0)"/>
     <use xlink:href="#DengXian-32" transform="translate(74.609375 0)"/>
     <use xlink:href="#DengXian-31" transform="translate(127.294922 0)"/>
     <use xlink:href="#DengXian-33" transform="translate(179.980469 0)"/>
     <use xlink:href="#DengXian-33" transform="translate(232.666016 0)"/>
    </g>
   </g>
   <g id="text_15">
    <!-- 焊接收缩比较与加工余量筛查 -->
    <g transform="translate(246.159766 19.673437) scale(0.12 -0.12)">
     <defs>
      <path id="DengXian-63a5" d="M 2606 378 
Q 2950 838 3144 1172 
L 2566 1172 
Q 2338 1172 2106 1134 
L 2106 1516 
Q 2375 1478 2613 1478 
L 3297 1478 
Q 3481 1813 3603 2113 
L 3988 1941 
Q 4072 1900 4078 1875 
Q 4084 1844 4013 1831 
Q 3878 1791 3834 1716 
Q 3803 1656 3744 1556 
Q 3713 1503 3700 1478 
L 5563 1478 
Q 5838 1478 6069 1516 
L 6069 1134 
Q 5759 1172 5528 1172 
L 5025 1172 
Q 4916 556 4519 97 
Q 5203 -213 5791 -550 
L 5581 -922 
Q 4947 -466 4256 -184 
Q 3469 -709 2400 -972 
Q 2316 -722 2169 -556 
Q 3244 -403 3866 -19 
Q 3847 -13 3781 6 
Q 2741 341 2606 378 
z
M 3150 563 
Q 3731 384 4147 225 
Q 4563 653 4628 1172 
L 3541 1172 
Q 3391 922 3150 563 
z
M 3047 2522 
L 4178 2522 
Q 4563 3150 4744 3647 
L 5141 3463 
Q 5203 3431 5203 3404 
Q 5203 3378 5141 3353 
Q 5006 3291 4934 3169 
Q 4781 2869 4550 2522 
L 5106 2522 
Q 5313 2522 5613 2559 
L 5613 2175 
Q 5325 2216 5106 2216 
L 3059 2216 
Q 2834 2216 2566 2175 
L 2566 2559 
Q 2822 2522 3047 2522 
z
M 2491 3725 
L 2491 4109 
Q 2747 4072 2956 4072 
L 5253 4072 
Q 5538 4072 5759 4109 
L 5759 3725 
Q 5478 3763 5253 3763 
L 2956 3763 
Q 2759 3763 2491 3725 
z
M 2859 3384 
L 3175 3634 
Q 3559 3303 3828 2853 
L 3513 2613 
Q 3163 3156 2859 3384 
z
M 3500 4769 
L 3769 5056 
Q 4153 4775 4525 4441 
L 4256 4128 
Q 3950 4459 3500 4769 
z
M 441 3150 
L 441 3547 
Q 603 3506 856 3506 
L 1281 3506 
L 1281 4334 
Q 1269 4703 1241 4934 
L 1747 4872 
Q 1825 4856 1819 4831 
Q 1825 4806 1753 4750 
Q 1631 4647 1638 4391 
L 1638 3506 
L 1888 3506 
Q 2094 3506 2284 3547 
L 2284 3150 
Q 2106 3188 1888 3188 
L 1638 3188 
L 1638 1772 
Q 1741 1831 1991 1972 
Q 2119 2041 2181 2081 
Q 2181 2047 2175 1991 
Q 2156 1800 2144 1644 
Q 1991 1581 1728 1459 
Q 1672 1434 1638 1422 
L 1638 -397 
Q 1644 -703 1459 -813 
Q 1300 -928 716 -984 
Q 628 -659 569 -544 
Q 828 -578 963 -578 
Q 1109 -578 1159 -544 
Q 1288 -500 1281 -219 
L 1281 1228 
Q 1056 1113 594 838 
Q 488 1069 353 1228 
Q 891 1428 1281 1600 
L 1281 3188 
L 863 3188 
Q 659 3188 441 3150 
z
" transform="scale(0.015625)"/>
      <path id="DengXian-6536" d="M 947 3669 
L 947 1094 
Q 1388 1191 1947 1331 
L 1947 4384 
Q 1941 4659 1906 5031 
L 2406 4953 
Q 2497 4941 2497 4909 
Q 2509 4878 2431 4806 
Q 2291 4716 2303 4306 
L 2303 -256 
Q 2309 -494 2344 -909 
L 1906 -909 
Q 1947 -466 1947 -250 
L 1947 1013 
Q 978 763 634 538 
Q 525 716 384 903 
Q 622 1044 603 1428 
L 603 3694 
Q 594 3928 563 4325 
L 1025 4250 
Q 1106 4238 1119 4206 
Q 1125 4172 1069 4122 
Q 953 4013 947 3669 
z
M 2356 -544 
Q 3322 -6 3872 838 
Q 3425 1631 3194 2600 
Q 3316 2631 3584 2734 
Q 3775 1825 4116 1234 
Q 4569 1997 4716 3372 
L 3469 3372 
Q 3156 2734 2888 2284 
Q 2713 2406 2400 2450 
Q 3384 3616 3566 5044 
L 4072 4934 
Q 4159 4916 4165 4886 
Q 4172 4856 4103 4813 
Q 3963 4756 3897 4506 
Q 3763 4109 3603 3694 
L 5338 3694 
Q 5516 3694 5894 3731 
L 5894 3334 
Q 5528 3372 5338 3372 
L 5106 3372 
Q 4966 1984 4384 872 
Q 4863 44 6106 -453 
Q 5784 -641 5663 -872 
Q 4813 -366 4128 494 
Q 3719 -141 2759 -872 
Q 2625 -678 2356 -544 
z
" transform="scale(0.015625)"/>
      <path id="DengXian-7f29" d="M 1331 2650 
Q 947 2631 488 2534 
Q 434 2700 359 2906 
Q 538 3022 609 3150 
Q 1325 4359 1453 4878 
L 1894 4678 
Q 1984 4641 1984 4605 
Q 1984 4569 1900 4544 
Q 1759 4494 1684 4372 
Q 1388 3816 831 2938 
L 1522 2944 
Q 1766 3353 1941 3756 
L 2400 3475 
L 2400 3725 
Q 2400 4031 2363 4191 
Q 2522 4153 2834 4153 
L 4263 4153 
Q 3981 4469 3500 4763 
L 3763 5069 
Q 4191 4769 4581 4434 
L 4359 4153 
L 5428 4153 
Q 5684 4153 5856 4191 
Q 5819 4044 5819 3803 
L 5819 3659 
Q 5819 3456 5856 3303 
L 5434 3303 
Q 5472 3444 5472 3653 
L 5472 3834 
L 2747 3834 
L 2747 3353 
Q 2747 3128 2784 2994 
L 2363 2994 
Q 2400 3116 2400 3359 
L 2400 3431 
Q 2138 3347 2016 3122 
Q 1697 2541 947 1484 
Q 1528 1516 2125 1600 
Q 2047 1403 2041 1253 
Q 1281 1184 856 1134 
Q 641 1100 475 1056 
Q 459 1100 434 1184 
Q 384 1350 347 1447 
Q 544 1538 616 1606 
Q 813 1791 1331 2650 
z
M 372 -91 
Q 1556 200 2138 506 
Q 2094 294 2106 97 
Q 831 -347 531 -513 
Q 459 -281 372 -91 
z
M 1919 1844 
Q 2688 2338 3150 3525 
L 3513 3328 
Q 3591 3284 3591 3261 
Q 3591 3238 3513 3200 
Q 3397 3138 3341 3041 
Q 3219 2778 3022 2497 
L 3022 -422 
Q 3022 -806 3059 -972 
L 2638 -972 
Q 2675 -756 2675 -422 
L 2675 2047 
Q 2425 1734 2278 1575 
Q 2150 1709 1919 1844 
z
M 5550 2747 
L 4825 2747 
Q 4750 2413 4634 2041 
L 5275 2041 
Q 5569 2041 5753 2081 
Q 5716 1881 5716 1522 
L 5716 -441 
Q 5716 -722 5753 -878 
L 5331 -878 
Q 5369 -722 5369 -434 
L 3988 -434 
Q 3988 -750 4025 -909 
L 3616 -909 
Q 3653 -722 3653 -397 
L 3653 1528 
Q 3653 1888 3616 2081 
Q 3775 2041 4147 2041 
L 4294 2041 
Q 4391 2381 4447 2747 
L 4000 2747 
Q 3647 2747 3475 2706 
L 3475 3091 
Q 3634 3053 4000 3053 
L 5550 3053 
Q 5888 3053 6075 3091 
L 6075 2706 
Q 5881 2747 5550 2747 
z
M 4000 659 
L 4000 -141 
L 5369 -141 
L 5369 659 
L 4000 659 
z
M 5369 966 
L 5369 1716 
L 4000 1716 
L 4000 966 
L 5369 966 
z
" transform="scale(0.015625)"/>
      <path id="DengXian-4e0e" d="M 4494 1141 
L 4494 744 
Q 4191 781 3916 781 
L 1063 781 
Q 831 781 525 744 
L 525 1141 
Q 831 1100 1063 1100 
L 3916 1100 
Q 4184 1100 4494 1141 
z
M 1753 4941 
L 2253 4863 
Q 2316 4856 2316 4831 
Q 2322 4806 2266 4744 
Q 2175 4672 2169 4397 
L 2144 3969 
L 5313 3969 
Q 5544 3969 5850 4006 
L 5850 3609 
Q 5544 3653 5313 3647 
L 2106 3647 
L 2016 2456 
L 4947 2456 
Q 5197 2450 5509 2497 
Q 5478 2241 5453 1856 
Q 5447 1806 5447 1778 
Q 5375 838 5313 341 
Q 5241 -313 4856 -544 
Q 4494 -800 3413 -909 
Q 3378 -653 3194 -353 
Q 3500 -381 3719 -381 
Q 4194 -381 4441 -269 
Q 4819 -122 4903 384 
Q 4997 991 5038 2138 
L 2169 2138 
Q 1913 2138 1516 2100 
Q 1613 2484 1638 2797 
L 1753 4281 
Q 1766 4431 1766 4597 
Q 1766 4763 1753 4941 
z
" transform="scale(0.015625)"/>
     </defs>
     <use xlink:href="#DengXian-710a"/>
     <use xlink:href="#DengXian-63a5" transform="translate(100 0)"/>
     <use xlink:href="#DengXian-6536" transform="translate(200 0)"/>
     <use xlink:href="#DengXian-7f29" transform="translate(300 0)"/>
     <use xlink:href="#DengXian-6bd4" transform="translate(400 0)"/>
     <use xlink:href="#DengXian-8f83" transform="translate(500 0)"/>
     <use xlink:href="#DengXian-4e0e" transform="translate(600 0)"/>
     <use xlink:href="#DengXian-52a0" transform="translate(700 0)"/>
     <use xlink:href="#DengXian-5de5" transform="translate(800 0)"/>
     <use xlink:href="#DengXian-4f59" transform="translate(900 0)"/>
     <use xlink:href="#DengXian-91cf" transform="translate(1000 0)"/>
     <use xlink:href="#DengXian-7b5b" transform="translate(1100 0)"/>
     <use xlink:href="#DengXian-67e5" transform="translate(1200 0)"/>
    </g>
   </g>
   <g id="legend_1">
    <g id="patch_9">
     <path d="M 61.319531 48.145312 
L 193.621094 48.145312 
Q 195.621094 48.145312 195.621094 46.145312 
L 195.621094 32.673437 
Q 195.621094 30.673437 193.621094 30.673437 
L 61.319531 30.673437 
Q 59.319531 30.673437 59.319531 32.673437 
L 59.319531 46.145312 
Q 59.319531 48.145312 61.319531 48.145312 
z
" style="fill: #ffffff; opacity: 0.8; stroke: #cccccc; stroke-linejoin: miter"/>
    </g>
    <g id="line2d_22">
     <path d="M 63.319531 38.326562 
L 73.319531 38.326562 
L 83.319531 38.326562 
" style="fill: none; stroke-dasharray: 5.55,2.4; stroke-dashoffset: 0; stroke: #1b4965; stroke-width: 1.5"/>
    </g>
    <g id="text_16">
     <!-- 当前径向余量 0.20 mm -->
     <g transform="translate(91.319531 41.826562) scale(0.1 -0.1)">
      <defs>
       <path id="DengXian-5f53" d="M 903 3988 
L 1197 4288 
Q 1806 3738 2400 3103 
L 2081 2791 
Q 1563 3438 903 3988 
z
M 3750 3128 
Q 4575 3675 5147 4506 
L 5550 4184 
Q 5581 4159 5575 4140 
Q 5569 4122 5522 4116 
Q 5369 4097 5269 3994 
Q 4756 3444 4147 2847 
Q 3963 3016 3750 3128 
z
M 1656 1241 
L 4897 1241 
L 4897 2188 
L 1434 2188 
Q 1275 2188 941 2150 
L 941 2547 
Q 1259 2509 1434 2509 
L 2931 2509 
L 2931 4313 
Q 2931 4538 2894 4878 
L 3413 4813 
Q 3469 4806 3475 4781 
Q 3475 4750 3419 4709 
Q 3291 4628 3291 4281 
L 3291 2509 
L 4672 2509 
Q 4878 2509 5306 2547 
Q 5269 2138 5269 1925 
L 5269 -288 
Q 5269 -513 5306 -844 
L 4856 -844 
Q 4891 -563 4897 -366 
L 1344 -366 
Q 1216 -366 850 -403 
L 850 -19 
Q 1178 -56 1344 -56 
L 4897 -56 
L 4897 922 
L 1656 922 
Q 1478 922 1172 884 
L 1172 1281 
Q 1484 1241 1656 1241 
z
" transform="scale(0.015625)"/>
       <path id="DengXian-524d" d="M 1741 4716 
L 2028 5013 
Q 2509 4622 2894 4225 
L 2619 3950 
L 3725 3950 
Q 4091 4409 4353 5056 
L 4838 4813 
Q 4916 4775 4909 4744 
Q 4909 4709 4825 4691 
Q 4634 4647 4525 4481 
Q 4341 4213 4153 3950 
L 5516 3950 
Q 5734 3950 6059 3988 
L 6059 3591 
Q 5759 3628 5516 3628 
L 884 3628 
Q 659 3628 378 3591 
L 378 3988 
Q 672 3950 884 3950 
L 2547 3950 
Q 2181 4366 1741 4716 
z
M 978 3072 
Q 1294 3034 1503 3034 
L 2578 3034 
Q 2797 3034 3091 3072 
Q 3053 2741 3053 2516 
L 3053 -250 
Q 3059 -588 2888 -703 
Q 2719 -838 2181 -891 
Q 2144 -647 1972 -391 
Q 2297 -431 2447 -431 
Q 2538 -431 2584 -416 
Q 2713 -384 2706 -178 
L 2706 775 
L 1363 775 
L 1363 -378 
Q 1363 -581 1403 -922 
L 978 -922 
Q 1019 -588 1019 -384 
L 1019 2516 
Q 1019 2713 978 3072 
z
M 1363 1728 
L 1363 1081 
L 2706 1081 
L 2706 1728 
L 1363 1728 
z
M 1363 2725 
L 1363 2034 
L 2706 2034 
L 2706 2725 
L 1363 2725 
z
M 4269 391 
L 3834 391 
Q 3872 709 3872 928 
L 3872 2028 
Q 3872 2284 3834 2613 
L 4313 2547 
Q 4391 2541 4391 2509 
Q 4397 2491 4341 2419 
Q 4225 2297 4231 2059 
L 4231 934 
Q 4231 691 4269 391 
z
M 4263 -1006 
Q 4244 -756 4091 -500 
Q 4416 -544 4600 -544 
Q 4738 -544 4813 -519 
Q 4991 -481 4984 -244 
L 4984 2656 
Q 4984 2919 4947 3263 
L 5434 3200 
Q 5516 3194 5522 3163 
Q 5528 3138 5466 3072 
Q 5350 2944 5344 2706 
L 5344 -331 
Q 5356 -738 5166 -831 
Q 5006 -953 4263 -1006 
z
" transform="scale(0.015625)"/>
      </defs>
      <use xlink:href="#DengXian-5f53"/>
      <use xlink:href="#DengXian-524d" transform="translate(100 0)"/>
      <use xlink:href="#DengXian-5f84" transform="translate(200 0)"/>
      <use xlink:href="#DengXian-5411" transform="translate(300 0)"/>
      <use xlink:href="#DengXian-4f59" transform="translate(400 0)"/>
      <use xlink:href="#DengXian-91cf" transform="translate(500 0)"/>
      <use xlink:href="#DengXian-20" transform="translate(600 0)"/>
      <use xlink:href="#DengXian-30" transform="translate(627.392578 0)"/>
      <use xlink:href="#DengXian-2e" transform="translate(680.078125 0)"/>
      <use xlink:href="#DengXian-32" transform="translate(702.001953 0)"/>
      <use xlink:href="#DengXian-30" transform="translate(754.6875 0)"/>
      <use xlink:href="#DengXian-20" transform="translate(807.373047 0)"/>
      <use xlink:href="#DengXian-6d" transform="translate(834.765625 0)"/>
      <use xlink:href="#DengXian-6d" transform="translate(918.896484 0)"/>
     </g>
    </g>
   </g>
  </g>
 </g>
 <defs>
  <clipPath id="p4a38450dbb">
   <rect x="54.319531" y="25.673437" width="539.680469" height="292.732812"/>
  </clipPath>
 </defs>
</svg>
