DBRep_DrawableShape

CASCADE Topology V3, (c) Open Cascade
Locations 0
Curve2ds 254
1 0 0 1 0 
2 0 0 1 0 -0 1 41
2 -37 11 1 0 -0 1 41
1 0 0 1 0 
1 0 0 0 1 
1 37 -11 1 0 
1 -4.7123889803846897 0 1 0 
2 2 2 0 -1 1 0 2
2 39 -9 0 -1 1 0 2
1 0 0 0 1 
1 0 0 0 -1 
1 37 -11 0 1 
1 -1.5707963267948966 0 1 0 
2 2 20 0 -1 -1 -0 2
2 39 9 0 -1 -1 -0 2
1 0 22 1 0 
1 0 0 0 1 
1 37 11 1 0 
2 -37 11 1 0 -0 1 41
1 -1.5707963267948966 0 1 0 
2 35.980000000000004 20 0 -1 1 0 2
1 37.980000000000004 0 0 1 
1 -4.7123889803846897 0 1 0 
2 35.980000000000004 2 0 -1 -1 -0 2
2 28.991378028648441 -28.991378028648455 0.70710678118654735 -0.70710678118654768 0.70710678118654768 0.70710678118654735 2
1 0 0.20000000000000001 1 0 
1 -4.8849813083506888e-15 22 1 0 
1 0 0 0 1 
1 10.999999999999991 -37 -2.2204460492503131e-16 -1 
1 -1.5707963267948966 0 1 0 
2 1.9999999999999956 20 0 -1 -1 -0 2
2 8.9999999999999911 -39 -1 2.2204460492503131e-16 2.2204460492503131e-16 1 2
1 0 0 0 -1 
1 0 0 0 1 
1 -11.000000000000009 -37 1 -2.2204460492503131e-16 
1 -4.7123889803846897 0 1 0 
2 1.9999999999999996 2.0000000000000004 0 -1 1 0 2
2 -9.0000000000000089 -39 -1 2.2204460492503131e-16 -2.2204460492503131e-16 -1 2
1 0 0 1 0 
1 0 0 0 1 
1 -11.000000000000009 -37 -2.2204460492503131e-16 -1 
2 -28.991378028648455 -28.991378028648445 -0.70710678118654768 -0.70710678118654746 0.70710678118654746 -0.70710678118654768 2
1 0 0.20000000000000001 1 0 
1 -2.6942229581241772e-15 22 1 0 
1 0 0 0 1 
1 -37 -10.999999999999995 -1 1.2246467991473532e-16 
1 -1.5707963267948966 0 1 0 
2 1.9999999999999976 20 0 -1 -1 -0 2
2 -39 -8.9999999999999947 1.2246467991473532e-16 1 1 -1.2246467991473532e-16 2
1 0 0 0 -1 
1 0 0 0 1 
1 -37 11.000000000000005 -1.2246467991473532e-16 -1 
1 -4.7123889803846897 0 1 0 
2 1.9999999999999998 2.0000000000000004 0 -1 1 0 2
2 -39 9.0000000000000053 1.2246467991473532e-16 1 -1 1.2246467991473532e-16 2
1 0 0 1 0 
1 0 0 0 1 
1 -37 11.000000000000005 -1 1.2246467991473532e-16 
2 -28.991378028648445 28.991378028648452 -0.70710678118654746 0.70710678118654757 -0.70710678118654757 -0.70710678118654746 2
1 0 0.20000000000000001 1 0 
1 -2.4424906541753444e-15 22 1 0 
1 0 0 0 1 
1 -10.999999999999996 37 1.1102230246251565e-16 1 
1 -1.5707963267948966 0 1 0 
2 1.9999999999999978 20 0 -1 -1 -0 2
2 -8.9999999999999964 39 1 -1.1102230246251565e-16 -1.1102230246251565e-16 -1 2
1 0 0 0 -1 
1 0 0 0 1 
1 11.000000000000004 37 -1 1.1102230246251565e-16 
1 -4.7123889803846897 0 1 0 
2 1.9999999999999998 2 0 -1 1 0 2
2 9.0000000000000036 39 1 -1.1102230246251565e-16 1.1102230246251565e-16 1 2
1 0 0 1 0 
1 0 0 0 1 
1 11.000000000000004 37 1.1102230246251565e-16 1 
2 28.991378028648452 28.991378028648452 0.70710678118654757 0.70710678118654757 -0.70710678118654757 0.70710678118654757 2
1 0 0.20000000000000001 1 0 
1 0 0 1 0 
2 0 0 1 0 -0 1 20
2 0 0 1 0 -0 1 20
1 1.5707963267948966 0 0 1 
1 0 35.980000000000004 1 0 
1 0 22 1 0 
1 12 0 0 1 
8 -5.9999999999999997e-07 12.0000006
1 0.27162029903717072 0 0 1 
8 -5.9999999999999997e-07 12.0000006
1 0 2.4968353162629953 1 0 
1 0 0 0 1 
1 -1.5707963267948966 12 1 0 
2 35.980000000000004 20 0 -1 1 0 2
1 37.980000000000004 0 0 1 
1 0 0 0 1 
1 1.5707963267948966 0 0 1 
1 0 35.980000000000004 1 0 
1 -4.7123889803846897 12 1 0 
2 35.980000000000004 2 0 -1 -1 -0 2
1 0 0 1 0 
1 12 0 0 1 
8 -5.9999999999999997e-07 12.0000006
1 6.0115650081424157 0 0 1 
8 -5.9999999999999997e-07 12.0000006
1 0 2.4968353162629953 1 0 
1 0 12 1 0 
2 0 0 1 0 -0 1 41
8 -5.9999999999999997e-07 12.0000006
1 5.5465724693374483 0 0 1 
8 -5.9999999999999997e-07 12.0000006
1 1.5951889895725522 0.20000000000000001 0 1 
2 28.991378028648441 -28.991378028648455 0.70710678118654735 -0.70710678118654768 0.70710678118654768 0.70710678118654735 2
1 0 12.199999999999999 1 0 
8 -5.9999999999999997e-07 12.0000006
1 5.4490018182268267 0 0 1 
8 -5.9999999999999997e-07 12.0000006
1 4.6879963176070341 0.20000000000000001 0 1 
8 -5.9999999999999997e-07 12.0000006
1 4.9840092794218602 0 0 1 
8 -5.9999999999999997e-07 12.0000006
1 0 2.4968353162629953 1 0 
2 -37 11 -2.2204460492503131e-16 1 -1 -2.2204460492503131e-16 41
8 -5.9999999999999997e-07 12.0000006
1 4.4407686813475191 0 0 1 
8 -5.9999999999999997e-07 12.0000006
1 0 2.4968353162629953 1 0 
8 -5.9999999999999997e-07 12.0000006
1 3.9757761425425522 0 0 1 
8 -5.9999999999999997e-07 12.0000006
1 1.5951889895725508 0.20000000000000001 0 1 
2 -28.991378028648455 -28.991378028648445 -0.70710678118654768 -0.70710678118654746 0.70710678118654746 -0.70710678118654768 2
1 0 12.199999999999999 1 0 
8 -5.9999999999999997e-07 12.0000006
1 3.8782054914319302 0 0 1 
8 -5.9999999999999997e-07 12.0000006
1 4.6879963176070341 0.20000000000000001 0 1 
8 -5.9999999999999997e-07 12.0000006
1 3.4132129526269637 0 0 1 
8 -5.9999999999999997e-07 12.0000006
1 0 2.4968353162629953 1 0 
2 -37 11 -1 -1.2246467991473532e-16 1.2246467991473532e-16 -1 41
8 -5.9999999999999997e-07 12.0000006
1 2.8699723545526226 0 0 1 
8 -5.9999999999999997e-07 12.0000006
1 0 2.4968353162629953 1 0 
8 -5.9999999999999997e-07 12.0000006
1 2.4049798157476561 0 0 1 
8 -5.9999999999999997e-07 12.0000006
1 1.595188989572552 0.20000000000000001 0 1 
2 -28.991378028648445 28.991378028648452 -0.70710678118654746 0.70710678118654757 -0.70710678118654757 -0.70710678118654746 2
1 0 12.199999999999999 1 0 
8 -5.9999999999999997e-07 12.0000006
1 2.3074091646370336 0 0 1 
8 -5.9999999999999997e-07 12.0000006
1 4.6879963176070341 0.20000000000000001 0 1 
8 -5.9999999999999997e-07 12.0000006
1 1.8424166258320673 0 0 1 
8 -5.9999999999999997e-07 12.0000006
1 0 2.4968353162629953 1 0 
2 -37 11 1.1102230246251565e-16 -1 1 1.1102230246251565e-16 41
8 -5.9999999999999997e-07 12.0000006
1 1.2991760277577258 0 0 1 
8 -5.9999999999999997e-07 12.0000006
1 0 2.4968353162629953 1 0 
8 -5.9999999999999997e-07 12.0000006
1 0.83418348895275729 0 0 1 
8 -5.9999999999999997e-07 12.0000006
1 1.5951889895725542 0.20000000000000001 0 1 
2 28.991378028648452 28.991378028648452 0.70710678118654757 0.70710678118654757 -0.70710678118654757 0.70710678118654757 2
1 0 12.199999999999999 1 0 
8 -5.9999999999999997e-07 12.0000006
1 0.73661283784213938 0 0 1 
8 -5.9999999999999997e-07 12.0000006
1 4.6879963176070323 0.20000000000000001 0 1 
1 0 12 1 0 
2 0 0 1 0 -0 1 20
2 0 0 1 0 -0 1 20
1 6.2831853071795862 -0 0 1 
1 0 -0 0 1 
2 -37 11 1 0 -0 1 41
2 -37 11 1 0 -0 1 41
1 -4.7123889803846897 12 1 0 
2 2 2 0 -1 1 0 2
2 39 -9 0 -1 1 0 2
1 37 -11 1 0 
1 12 0 0 1 
1 -4.8849813083506888e-15 22 1 0 
1 10.999999999999991 -37 -2.2204460492503131e-16 -1 
1 -1.5707963267948966 12 1 0 
2 1.9999999999999956 20 0 -1 -1 -0 2
2 8.9999999999999911 -39 -1 2.2204460492503131e-16 2.2204460492503131e-16 1 2
1 12 0 0 -1 
1 0 0 0 1 
1 -11.000000000000009 -37 1 -2.2204460492503131e-16 
1 -4.7123889803846897 12 1 0 
2 1.9999999999999996 2.0000000000000004 0 -1 1 0 2
2 -9.0000000000000089 -39 -1 2.2204460492503131e-16 -2.2204460492503131e-16 -1 2
1 12 0 0 1 
1 0 0 1 0 
1 -11.000000000000009 -37 -2.2204460492503131e-16 -1 
1 12 0 0 1 
1 -2.6942229581241772e-15 22 1 0 
1 -37 -10.999999999999995 -1 1.2246467991473532e-16 
1 -1.5707963267948966 12 1 0 
2 1.9999999999999976 20 0 -1 -1 -0 2
2 -39 -8.9999999999999947 1.2246467991473532e-16 1 1 -1.2246467991473532e-16 2
1 12 0 0 -1 
1 0 0 0 1 
1 -37 11.000000000000005 -1.2246467991473532e-16 -1 
1 -4.7123889803846897 12 1 0 
2 1.9999999999999998 2.0000000000000004 0 -1 1 0 2
2 -39 9.0000000000000053 1.2246467991473532e-16 1 -1 1.2246467991473532e-16 2
1 12 0 0 1 
1 0 0 1 0 
1 -37 11.000000000000005 -1 1.2246467991473532e-16 
1 12 0 0 1 
1 -2.4424906541753444e-15 22 1 0 
1 -10.999999999999996 37 1.1102230246251565e-16 1 
1 -1.5707963267948966 12 1 0 
2 1.9999999999999978 20 0 -1 -1 -0 2
2 -8.9999999999999964 39 1 -1.1102230246251565e-16 -1.1102230246251565e-16 -1 2
1 12 0 0 -1 
1 0 0 0 1 
1 11.000000000000004 37 -1 1.1102230246251565e-16 
1 -4.7123889803846897 12 1 0 
2 1.9999999999999998 2 0 -1 1 0 2
2 9.0000000000000036 39 1 -1.1102230246251565e-16 1.1102230246251565e-16 1 2
1 12 0 0 1 
1 0 0 1 0 
1 11.000000000000004 37 1.1102230246251565e-16 1 
1 37 11 1 0 
1 -1.5707963267948966 12 1 0 
2 2 20 0 -1 -1 -0 2
2 39 9 0 -1 -1 -0 2
1 0 0 0 1 
1 12 0 0 -1 
1 37 -11 0 1 
1 1.5707963267948966 0 0 1 
1 0 35.980000000000004 1 0 
1 -1.5707963267948966 0 1 0 
2 35.979999999999997 20 0 -1 1 0 2
1 37.980000000000004 1.3278267374516881e-15 0 1 
1 -4.7123889803846897 0 1 0 
2 35.980000000000004 2.0000000000000009 0 -1 -1 -0 2
1 1.5707963267948966 0 0 1 
1 0 35.980000000000004 1 0 
1 1.5707963267948966 0 0 1 
1 0 35.980000000000004 1 0 
1 -1.5707963267948966 0 1 0 
2 35.980000000000004 20 0 -1 1 0 2
1 37.980000000000004 1.0984948643611467e-15 0 1 
1 -4.7123889803846897 0 1 0 
2 35.980000000000004 2.0000000000000009 0 -1 -1 -0 2
1 1.5707963267948966 0 0 1 
1 0 35.980000000000004 1 0 
1 1.5707963267948966 0 0 1 
1 0 35.980000000000004 1 0 
1 -1.5707963267948966 0 1 0 
2 35.980000000000004 19.999999999999996 0 -1 1 0 2
1 37.980000000000004 -1.1124434706744064e-15 0 1 
1 -4.7123889803846897 0 1 0 
2 35.980000000000004 1.9999999999999987 0 -1 -1 -0 2
1 1.5707963267948966 0 0 1 
1 0 35.980000000000004 1 0 
2 -37 11 -2.2204460492503131e-16 1 -1 -2.2204460492503131e-16 41
2 -37 11 -1 -1.2246467991473532e-16 1.2246467991473532e-16 -1 41
2 -37 11 1.1102230246251565e-16 -1 1 1.1102230246251565e-16 41
1 0 0 0 1 
1 -1.5707963267948966 12 1 0 
2 35.979999999999997 20 0 -1 1 0 2
1 37.980000000000004 1.3278267374516881e-15 0 1 
1 -4.7123889803846897 12 1 0 
2 35.980000000000004 2.0000000000000009 0 -1 -1 -0 2
1 0 0 0 1 
1 0 0 0 1 
1 -1.5707963267948966 12 1 0 
2 35.980000000000004 20 0 -1 1 0 2
1 37.980000000000004 1.0984948643611467e-15 0 1 
1 -4.7123889803846897 12 1 0 
2 35.980000000000004 2.0000000000000009 0 -1 -1 -0 2
1 0 0 0 1 
1 0 0 0 1 
1 -1.5707963267948966 12 1 0 
2 35.980000000000004 19.999999999999996 0 -1 1 0 2
1 37.980000000000004 -1.1124434706744064e-15 0 1 
1 -4.7123889803846897 12 1 0 
2 35.980000000000004 1.9999999999999987 0 -1 -1 -0 2
1 0 0 0 1 
Curves 109
2 0 0 0 0 0 1 1 0 -0 -0 1 0 41
1 37 -11 0 1 0 0 
8 4.7123889803846897 6.2831853071795862
2 39 -9 0 -0 0 1 0 -1 0 1 0 0 2
1 37 -11 0 0 1 0 
8 1.5707963267948966 3.1415926535897931
2 39 9 0 -0 -0 -1 0 -1 0 -1 0 0 2
1 37 11 0 1 0 0 
8 1.5707963267948966 3.1415926535897931
2 72.980000000000004 9 0 -0 0 1 0 -1 0 1 0 0 2
1 74.980000000000004 -11 0 0 1 0 
8 4.7123889803846897 6.2831853071795862
2 72.980000000000004 -9 0 -0 -0 -1 0 -1 0 -1 0 0 2
2 28.991378028648441 -28.991378028648455 0 0 0 1 0.70710678118654735 -0.70710678118654768 0 0.70710678118654768 0.70710678118654735 -0 2
1 10.999999999999991 -37 0 -2.2204460492503131e-16 -1 0 
8 1.5707963267948966 3.1415926535897931
2 8.9999999999999911 -39 0 0 0 -1 -1 2.2204460492503131e-16 0 2.2204460492503131e-16 1 0 2
1 -11.000000000000009 -37 0 1 -2.2204460492503131e-16 0 
8 4.7123889803846897 6.2831853071795862
2 -9.0000000000000089 -39 0 0 0 1 -1 2.2204460492503131e-16 0 -2.2204460492503131e-16 -1 0 2
1 -11.000000000000009 -37 0 -2.2204460492503131e-16 -1 0 
2 -28.991378028648455 -28.991378028648445 0 0 0 1 -0.70710678118654768 -0.70710678118654746 0 0.70710678118654746 -0.70710678118654768 0 2
1 -37 -10.999999999999995 0 -1 1.2246467991473532e-16 0 
8 1.5707963267948966 3.1415926535897931
2 -39 -8.9999999999999947 0 0 0 -1 1.2246467991473532e-16 1 0 1 -1.2246467991473532e-16 0 2
1 -37 11.000000000000005 0 -1.2246467991473532e-16 -1 0 
8 4.7123889803846897 6.2831853071795862
2 -39 9.0000000000000053 0 0 -0 1 1.2246467991473532e-16 1 0 -1 1.2246467991473532e-16 0 2
1 -37 11.000000000000005 0 -1 1.2246467991473532e-16 0 
2 -28.991378028648445 28.991378028648452 0 0 0 1 -0.70710678118654746 0.70710678118654757 0 -0.70710678118654757 -0.70710678118654746 0 2
1 -10.999999999999996 37 0 1.1102230246251565e-16 1 0 
8 1.5707963267948966 3.1415926535897931
2 -8.9999999999999964 39 0 0 -0 -1 1 -1.1102230246251565e-16 0 -1.1102230246251565e-16 -1 0 2
1 11.000000000000004 37 0 -1 1.1102230246251565e-16 0 
8 4.7123889803846897 6.2831853071795862
2 9.0000000000000036 39 0 -0 0 1 1 -1.1102230246251565e-16 0 1.1102230246251565e-16 1 0 2
1 11.000000000000004 37 0 1.1102230246251565e-16 1 0 
2 28.991378028648452 28.991378028648452 0 0 0 1 0.70710678118654757 0.70710678118654757 -0 -0.70710678118654757 0.70710678118654757 0 2
2 0 0 0 0 0 1 1 0 -0 -0 1 0 20
1 72.980000000000004 11 0 0 0 1 
1 37 11 12 1 0 0 
1 39.496835316262995 11 0 0 0 1 
1 74.980000000000004 9 0 0 0 1 
8 1.5707963267948966 3.1415926535897931
2 72.980000000000004 9 12 -0 0 1 0 -1 0 1 0 0 2
1 74.980000000000004 -11 12 0 1 0 
1 74.980000000000004 -9 0 0 0 1 
1 72.980000000000004 -11 0 0 0 1 
8 4.7123889803846897 6.2831853071795862
2 72.980000000000004 -9 12 -0 -0 -1 0 -1 0 -1 0 0 2
1 37 -11 12 1 0 0 
1 39.496835316262995 -11 0 0 0 1 
2 0 0 12 0 0 1 1 0 -0 -0 1 0 41
1 30.37067786821882 -27.543092161645241 0 0 0 1 
2 28.991378028648441 -28.991378028648455 12 0 0 1 0.70710678118654735 -0.70710678118654768 0 0.70710678118654768 0.70710678118654735 -0 2
1 27.543092161645227 -30.370677868218834 0 0 0 1 
1 10.999999999999991 -39.496835316262995 0 0 0 1 
1 -11.000000000000009 -39.496835316262995 0 0 0 1 
1 -27.543092161645241 -30.370677868218827 0 0 0 1 
2 -28.991378028648455 -28.991378028648445 12 0 0 1 -0.70710678118654768 -0.70710678118654746 0 0.70710678118654746 -0.70710678118654768 0 2
1 -30.370677868218834 -27.54309216164523 0 0 0 1 
1 -39.496835316262995 -10.999999999999995 0 0 0 1 
1 -39.496835316262995 11.000000000000005 0 0 0 1 
1 -30.370677868218827 27.543092161645234 0 0 0 1 
2 -28.991378028648445 28.991378028648452 12 0 0 1 -0.70710678118654746 0.70710678118654757 0 -0.70710678118654757 -0.70710678118654746 0 2
1 -27.54309216164523 30.370677868218831 0 0 0 1 
1 -10.999999999999996 39.496835316262995 0 0 0 1 
1 11.000000000000004 39.496835316262995 0 0 0 1 
1 27.543092161645298 30.370677868218767 0 0 0 1 
2 28.991378028648452 28.991378028648452 12 0 0 1 0.70710678118654757 0.70710678118654757 -0 -0.70710678118654757 0.70710678118654757 0 2
1 30.370677868218767 27.543092161645298 0 0 0 1 
2 0 0 12 0 0 1 1 0 -0 -0 1 0 20
1 20 -4.898587196589413e-15 0 0 0 1 
8 4.7123889803846897 6.2831853071795862
2 39 -9 12 -0 0 1 0 -1 0 1 0 0 2
1 10.999999999999991 -37 12 -2.2204460492503131e-16 -1 0 
8 1.5707963267948966 3.1415926535897931
2 8.9999999999999911 -39 12 0 0 -1 -1 2.2204460492503131e-16 0 2.2204460492503131e-16 1 0 2
1 -11.000000000000009 -37 12 1 -2.2204460492503131e-16 0 
8 4.7123889803846897 6.2831853071795862
2 -9.0000000000000089 -39 12 0 0 1 -1 2.2204460492503131e-16 0 -2.2204460492503131e-16 -1 0 2
1 -11.000000000000009 -37 12 -2.2204460492503131e-16 -1 0 
1 -37 -10.999999999999995 12 -1 1.2246467991473532e-16 0 
8 1.5707963267948966 3.1415926535897931
2 -39 -8.9999999999999947 12 0 0 -1 1.2246467991473532e-16 1 0 1 -1.2246467991473532e-16 0 2
1 -37 11.000000000000005 12 -1.2246467991473532e-16 -1 0 
8 4.7123889803846897 6.2831853071795862
2 -39 9.0000000000000053 12 0 -0 1 1.2246467991473532e-16 1 0 -1 1.2246467991473532e-16 0 2
1 -37 11.000000000000005 12 -1 1.2246467991473532e-16 0 
1 -10.999999999999996 37 12 1.1102230246251565e-16 1 0 
8 1.5707963267948966 3.1415926535897931
2 -8.9999999999999964 39 12 0 -0 -1 1 -1.1102230246251565e-16 0 -1.1102230246251565e-16 -1 0 2
1 11.000000000000004 37 12 -1 1.1102230246251565e-16 0 
8 4.7123889803846897 6.2831853071795862
2 9.0000000000000036 39 12 -0 0 1 1 -1.1102230246251565e-16 0 1.1102230246251565e-16 1 0 2
1 11.000000000000004 37 12 1.1102230246251565e-16 1 0 
8 1.5707963267948966 3.1415926535897931
2 39 9 12 -0 -0 -1 0 -1 0 -1 0 0 2
1 37 -11 12 0 1 0 
1 10.999999999999984 -72.980000000000004 0 0 0 1 
8 1.5707963267948966 3.1415926535897931
2 8.999999999999984 -72.980000000000004 0 0 0 1 -1 2.2204460492503131e-16 0 -2.2204460492503131e-16 -1 0 2
1 -11.000000000000016 -74.980000000000004 0 1 -2.2204460492503131e-16 0 
8 4.7123889803846897 6.2831853071795862
2 -9.000000000000016 -72.980000000000004 0 0 0 -1 -1 2.2204460492503131e-16 0 2.2204460492503131e-16 1 0 2
1 -11.000000000000016 -72.980000000000004 0 0 0 1 
1 -72.980000000000004 -10.999999999999991 0 0 0 1 
8 1.5707963267948966 3.1415926535897931
2 -72.980000000000004 -8.9999999999999911 0 0 -0 1 1.2246467991473532e-16 1 0 -1 1.2246467991473532e-16 0 2
1 -74.980000000000004 11.000000000000009 0 -1.2246467991473532e-16 -1 0 
8 4.7123889803846897 6.2831853071795862
2 -72.980000000000004 9.0000000000000089 0 0 0 -1 1.2246467991473532e-16 1 0 1 -1.2246467991473532e-16 0 2
1 -72.980000000000004 11.000000000000009 0 0 0 1 
1 -10.999999999999991 72.980000000000004 0 0 0 1 
8 1.5707963267948966 3.1415926535897931
2 -8.9999999999999911 72.980000000000004 0 -0 0 1 1 -1.1102230246251565e-16 0 1.1102230246251565e-16 1 0 2
1 11.000000000000009 74.980000000000004 0 -1 1.1102230246251565e-16 0 
8 4.7123889803846897 6.2831853071795862
2 9.0000000000000089 72.980000000000004 0 0 -0 -1 1 -1.1102230246251565e-16 0 -1.1102230246251565e-16 -1 0 2
1 11.000000000000009 72.980000000000004 0 0 0 1 
1 8.999999999999984 -74.980000000000004 0 0 0 1 
8 1.5707963267948966 3.1415926535897931
2 8.999999999999984 -72.980000000000004 12 0 0 1 -1 2.2204460492503131e-16 0 -2.2204460492503131e-16 -1 0 2
1 -11.000000000000016 -74.980000000000004 12 1 -2.2204460492503131e-16 0 
8 4.7123889803846897 6.2831853071795862
2 -9.000000000000016 -72.980000000000004 12 0 0 -1 -1 2.2204460492503131e-16 0 2.2204460492503131e-16 1 0 2
1 -9.000000000000016 -74.980000000000004 0 0 0 1 
1 -74.980000000000004 -8.9999999999999911 0 0 0 1 
8 1.5707963267948966 3.1415926535897931
2 -72.980000000000004 -8.9999999999999911 12 0 -0 1 1.2246467991473532e-16 1 0 -1 1.2246467991473532e-16 0 2
1 -74.980000000000004 11.000000000000009 12 -1.2246467991473532e-16 -1 0 
8 4.7123889803846897 6.2831853071795862
2 -72.980000000000004 9.0000000000000089 12 0 0 -1 1.2246467991473532e-16 1 0 1 -1.2246467991473532e-16 0 2
1 -74.980000000000004 9.0000000000000089 0 0 0 1 
1 -8.9999999999999911 74.980000000000004 0 0 0 1 
8 1.5707963267948966 3.1415926535897931
2 -8.9999999999999911 72.980000000000004 12 -0 0 1 1 -1.1102230246251565e-16 0 1.1102230246251565e-16 1 0 2
1 11.000000000000009 74.980000000000004 12 -1 1.1102230246251565e-16 0 
8 4.7123889803846897 6.2831853071795862
2 9.0000000000000089 72.980000000000004 12 0 -0 -1 1 -1.1102230246251565e-16 0 -1.1102230246251565e-16 -1 0 2
1 9.0000000000000089 74.980000000000004 0 0 0 1 
Polygon3D 0
PolygonOnTriangulations 0
Surfaces 50
1 0 0 0 0 0 1 1 0 -0 -0 1 0 
2 0 0 0 0 0 1 1 0 -0 -0 1 0 41
1 37 -11 0 0 0 1 1 0 0 0 1 0 
1 37 -11 0 0 1 0 0 0 1 1 0 0 
2 39 -9 0 0 0 1 -1 0 0 0 -1 0 2
1 37 -11 0 1 0 0 0 0 1 0 -1 0 
2 39 9 0 0 0 1 -1 0 0 0 1 0 2
1 37 11 0 0 1 0 0 0 1 1 0 0 
2 72.980000000000004 9 0 0 0 1 1 0 0 0 1 0 2
2 72.980000000000004 -9 0 0 0 1 1 0 0 0 -1 0 2
2 28.991378028648441 -28.991378028648455 -0.20000000000000001 0 0 1 0.70710678118654735 -0.70710678118654768 0 0.70710678118654768 0.70710678118654735 0 2
1 -11.000000000000009 -37 0 0 0 1 -2.2204460492503131e-16 -1 0 1 -2.2204460492503131e-16 0 
1 10.999999999999991 -37 0 1 -2.2204460492503131e-16 0 0 0 1 -2.2204460492503131e-16 -1 0 
2 8.9999999999999911 -39 0 0 0 1 2.2204460492503131e-16 1 0 1 -2.2204460492503131e-16 0 2
1 -11.000000000000009 -37 0 -2.2204460492503131e-16 -1 0 0 0 1 -1 2.2204460492503131e-16 0 
2 -9.0000000000000089 -39 0 0 0 1 2.2204460492503131e-16 1 0 -1 2.2204460492503131e-16 0 2
1 -11.000000000000009 -37 0 1 -2.2204460492503131e-16 0 0 0 1 -2.2204460492503131e-16 -1 0 
2 -28.991378028648455 -28.991378028648445 -0.20000000000000001 0 0 1 -0.70710678118654768 -0.70710678118654746 0 0.70710678118654746 -0.70710678118654768 0 2
1 -37 11.000000000000005 0 0 0 1 -1 1.2246467991473532e-16 0 -1.2246467991473532e-16 -1 0 
1 -37 -10.999999999999995 0 -1.2246467991473532e-16 -1 0 0 0 1 -1 1.2246467991473532e-16 0 
2 -39 -8.9999999999999947 0 0 0 1 1 -1.2246467991473532e-16 0 -1.2246467991473532e-16 -1 0 2
1 -37 11.000000000000005 0 -1 1.2246467991473532e-16 0 0 0 1 1.2246467991473532e-16 1 0 
2 -39 9.0000000000000053 0 0 0 1 1 -1.2246467991473532e-16 0 1.2246467991473532e-16 1 0 2
1 -37 11.000000000000005 0 -1.2246467991473532e-16 -1 0 0 0 1 -1 1.2246467991473532e-16 0 
2 -28.991378028648445 28.991378028648452 -0.20000000000000001 0 0 1 -0.70710678118654746 0.70710678118654757 0 -0.70710678118654757 -0.70710678118654746 0 2
1 11.000000000000004 37 0 0 0 1 1.1102230246251565e-16 1 0 -1 1.1102230246251565e-16 0 
1 -10.999999999999996 37 0 -1 1.1102230246251565e-16 0 0 0 1 1.1102230246251565e-16 1 0 
2 -8.9999999999999964 39 0 0 0 1 -1.1102230246251565e-16 -1 0 -1 1.1102230246251565e-16 0 2
1 11.000000000000004 37 0 1.1102230246251565e-16 1 0 0 0 1 1 -1.1102230246251565e-16 0 
2 9.0000000000000036 39 0 0 0 1 -1.1102230246251565e-16 -1 0 1 -1.1102230246251565e-16 0 2
1 11.000000000000004 37 0 -1 1.1102230246251565e-16 0 0 0 1 1.1102230246251565e-16 1 0 
2 28.991378028648452 28.991378028648452 -0.20000000000000001 0 0 1 0.70710678118654757 0.70710678118654757 0 -0.70710678118654757 0.70710678118654757 0 2
2 0 0 0 0 0 1 1 0 -0 -0 1 0 20
1 0 0 0 0 0 1 1 0 -0 -0 1 0 
1 37 -11 12 0 0 1 1 0 0 0 1 0 
1 74.980000000000004 -11 0 1 0 0 0 0 1 0 -1 0 
1 0 0 12 0 0 1 1 0 -0 -0 1 0 
1 0 0 12 0 0 1 1 0 -0 -0 1 0 
1 -11.000000000000009 -37 12 0 0 1 -2.2204460492503131e-16 -1 0 1 -2.2204460492503131e-16 0 
1 -37 11.000000000000005 12 0 0 1 -1 1.2246467991473532e-16 0 -1.2246467991473532e-16 -1 0 
1 11.000000000000004 37 12 0 0 1 1.1102230246251565e-16 1 0 -1 1.1102230246251565e-16 0 
2 8.999999999999984 -72.980000000000004 0 0 0 1 -2.2204460492503131e-16 -1 0 1 -2.2204460492503131e-16 0 2
2 -9.000000000000016 -72.980000000000004 0 0 0 1 -2.2204460492503131e-16 -1 0 -1 2.2204460492503131e-16 0 2
2 -72.980000000000004 -8.9999999999999911 0 0 0 1 -1 1.2246467991473532e-16 0 -1.2246467991473532e-16 -1 0 2
2 -72.980000000000004 9.0000000000000089 0 0 0 1 -1 1.2246467991473532e-16 0 1.2246467991473532e-16 1 0 2
2 -8.9999999999999911 72.980000000000004 0 0 0 1 1.1102230246251565e-16 1 0 -1 1.1102230246251565e-16 0 2
2 9.0000000000000089 72.980000000000004 0 0 0 1 1.1102230246251565e-16 1 0 1 -1.1102230246251565e-16 0 2
1 -11.000000000000016 -74.980000000000004 0 -2.2204460492503131e-16 -1 0 0 0 1 -1 2.2204460492503131e-16 0 
1 -74.980000000000004 11.000000000000009 0 -1 1.2246467991473532e-16 0 0 0 1 1.2246467991473532e-16 1 0 
1 11.000000000000009 74.980000000000004 0 1.1102230246251565e-16 1 0 0 0 1 1 -1.1102230246251565e-16 0 
Triangulations 0

TShapes 356
Ve
1.00000604222498e-07
39.4968353162627 -11.0000000000005 0
0 0

0101101
*
Ve
1e-07
41 -1.00421037530083e-14 0
0 0

0101101
*
Ed
 1e-07 1 1 0
1  1 0 6.0115650081424 6.28318530717959
2  1 2 0 6.0115650081424 6.28318530717959
2  2 1 0 6.0115650081424 6.28318530717959
2  3 3 0 6.0115650081424 6.28318530717959
0

0101000
+356 0 -355 0 *
Ve
1e-07
39 -11 0
0 0

0101101
*
Ed
 1e-07 1 1 0
1  2 0 2 2.4968353162627
2  4 3 0 2 2.4968353162627
2  5 4 0 2 2.4968353162627
2  6 1 0 2 2.4968353162627
0

0101000
+353 0 -356 0 *
Ve
1e-07
37 -9 0
0 0

0101101
*
Ed
 1e-07 1 1 0
1  3 0 4.71238898038469 6.28318530717959
2  7 5 0 4.71238898038469 6.28318530717959
2  8 3 0 4.71238898038469 6.28318530717959
2  9 1 0 4.71238898038469 6.28318530717959
0

0101000
+351 0 -353 0 *
Ve
1e-07
37 9 0
0 0

0101101
*
Ed
 1e-07 1 1 0
1  4 0 2 20
2  10 3 0 2 20
2  11 6 0 2 20
2  12 1 0 2 20
0

0101000
+351 0 -349 0 *
Ve
1e-07
39 11 0
0 0

0101101
*
Ed
 1e-07 1 1 0
1  5 0 1.5707963267949 3.14159265358979
2  13 7 0 1.5707963267949 3.14159265358979
2  14 3 0 1.5707963267949 3.14159265358979
2  15 1 0 1.5707963267949 3.14159265358979
0

0101000
+349 0 -347 0 *
Ve
1.00000629752948e-07
39.4968353162627 11.0000000000006 0
0 0

0101101
*
Ed
 1e-07 1 1 0
1  6 0 2 2.49683531626269
2  16 3 0 2 2.49683531626269
2  17 8 0 2 2.49683531626269
2  18 1 0 2 2.49683531626269
0

0101000
+347 0 -345 0 *
Ed
 1e-07 1 1 0
1  1 0 0 0.271620299037186
2  1 2 0 0 0.271620299037186
2  2 1 0 0 0.271620299037186
2  19 3 0 0 0.271620299037186
0

0101000
+355 0 -345 0 *
Wi

0101100
+354 0 +352 0 +350 0 -348 0 -346 0 -344 0 +343 0 *
Fa
0  1e-07 1 0

0101000
+342 0 *
Ve
1e-07
72.98 11 0
0 0

0101101
*
Ed
 1e-07 1 1 0
1  6 0 2.49683531626269 35.98
2  16 3 0 2.49683531626269 35.98
2  17 8 0 2.49683531626269 35.98
0

0101000
+345 0 -340 0 *
Ve
1e-07
74.98 9 0
0 0

0101101
*
Ed
 1e-07 1 1 0
1  7 0 1.5707963267949 3.14159265358979
2  20 9 0 1.5707963267949 3.14159265358979
2  21 3 0 1.5707963267949 3.14159265358979
0

0101000
+338 0 -340 0 *
Ve
1e-07
74.98 -9 0
0 0

0101101
*
Ed
 1e-07 1 1 0
1  8 0 2 20
2  22 3 0 2 20
0

0101000
+336 0 -338 0 *
Ve
1e-07
72.98 -11 0
0 0

0101101
*
Ed
 1e-07 1 1 0
1  9 0 4.71238898038469 6.28318530717959
2  23 10 0 4.71238898038469 6.28318530717959
2  24 3 0 4.71238898038469 6.28318530717959
0

0101000
+336 0 -334 0 *
Ed
 1e-07 1 1 0
1  2 0 2.4968353162627 35.98
2  4 3 0 2.4968353162627 35.98
2  5 4 0 2.4968353162627 35.98
0

0101000
+356 0 -334 0 *
Wi

0101100
-354 0 -343 0 -339 0 +337 0 +335 0 -333 0 +332 0 *
Fa
0  1e-07 3 0

0101000
+331 0 *
Ve
1.00000065508803e-07
30.3706778682188 -27.5430921616453 0
0 0

0101101
*
Ed
 1e-07 1 1 0
1  1 0 5.54657246933745 6.0115650081424
2  1 2 0 5.54657246933745 6.0115650081424
2  2 1 0 5.54657246933745 6.0115650081424
0

0101000
+329 0 -356 0 *
Ve
1.00000065508803e-07
27.5430921616453 -30.3706778682188 0
0 0

0101101
*
Ed
 1e-07 1 1 0
1  10 0 1.59518898957255 4.68799631760704
2  25 1 0 1.59518898957255 4.68799631760704
2  26 11 0 1.59518898957255 4.68799631760704
0

0101000
+329 0 -327 0 *
Ve
1.00000077856324e-07
11.0000000000001 -39.496835316263 0
0 0

0101101
*
Ed
 1e-07 1 1 0
1  1 0 4.98400927942186 5.44900181822683
2  1 2 0 4.98400927942186 5.44900181822683
2  2 1 0 4.98400927942186 5.44900181822683
0

0101000
+325 0 -327 0 *
Ve
1e-07
11 -39 0
0 0

0101101
*
Ed
 1e-07 1 1 0
1  11 0 2 2.49683531626296
2  27 12 0 2 2.49683531626296
2  28 13 0 2 2.49683531626296
2  29 1 0 2 2.49683531626296
0

0101000
+323 0 -325 0 *
Ve
1e-07
8.99999999999999 -37 0
0 0

0101101
*
Ed
 1e-07 1 1 0
1  12 0 1.5707963267949 3.14159265358979
2  30 14 0 1.5707963267949 3.14159265358979
2  31 12 0 1.5707963267949 3.14159265358979
2  32 1 0 1.5707963267949 3.14159265358979
0

0101000
+321 0 -323 0 *
Ve
1e-07
-9.00000000000001 -37 0
0 0

0101101
*
Ed
 1e-07 1 1 0
1  13 0 2 20
2  33 15 0 2 20
2  34 12 0 2 20
2  35 1 0 2 20
0

0101000
+319 0 -321 0 *
Ve
1e-07
-11 -39 0
0 0

0101101
*
Ed
 1e-07 1 1 0
1  14 0 4.71238898038469 6.28318530717959
2  36 16 0 4.71238898038469 6.28318530717959
2  37 12 0 4.71238898038469 6.28318530717959
2  38 1 0 4.71238898038469 6.28318530717959
0

0101000
+319 0 -317 0 *
Ve
1.00000074712648e-07
-11.0000000000001 -39.496835316263 0
0 0

0101101
*
Ed
 1e-07 1 1 0
1  15 0 2 2.49683531626296
2  39 12 0 2 2.49683531626296
2  40 17 0 2 2.49683531626296
2  41 1 0 2 2.49683531626296
0

0101000
+317 0 -315 0 *
Ve
1.00000032754402e-07
-27.5430921616453 -30.3706778682188 0
0 0

0101101
*
Ed
 1e-07 1 1 0
1  1 0 3.97577614254255 4.44076868134752
2  1 2 0 3.97577614254255 4.44076868134752
2  2 1 0 3.97577614254255 4.44076868134752
0

0101000
+313 0 -315 0 *
Ve
1.00000032754402e-07
-30.3706778682188 -27.5430921616453 0
0 0

0101101
*
Ed
 1e-07 1 1 0
1  16 0 1.59518898957255 4.68799631760703
2  42 1 0 1.59518898957255 4.68799631760703
2  43 18 0 1.59518898957255 4.68799631760703
0

0101000
+313 0 -311 0 *
Ve
1.00000456744835e-07
-39.4968353162632 -10.9999999999996 0
0 0

0101101
*
Ed
 1e-07 1 1 0
1  1 0 3.41321295262695 3.87820549143193
2  1 2 0 3.41321295262695 3.87820549143193
2  2 1 0 3.41321295262695 3.87820549143193
0

0101000
+309 0 -311 0 *
Ve
1e-07
-39 -11 0
0 0

0101101
*
Ed
 1e-07 1 1 0
1  17 0 2 2.49683531626322
2  44 19 0 2 2.49683531626322
2  45 20 0 2 2.49683531626322
2  46 1 0 2 2.49683531626322
0

0101000
+307 0 -309 0 *
Ve
1e-07
-37 -8.99999999999999 0
0 0

0101101
*
Ed
 1e-07 1 1 0
1  18 0 1.5707963267949 3.14159265358979
2  47 21 0 1.5707963267949 3.14159265358979
2  48 19 0 1.5707963267949 3.14159265358979
2  49 1 0 1.5707963267949 3.14159265358979
0

0101000
+305 0 -307 0 *
Ve
1e-07
-37 9.00000000000001 0
0 0

0101101
*
Ed
 1e-07 1 1 0
1  19 0 2 20
2  50 22 0 2 20
2  51 19 0 2 20
2  52 1 0 2 20
0

0101000
+303 0 -305 0 *
Ve
1e-07
-39 11 0
0 0

0101101
*
Ed
 1e-07 1 1 0
1  20 0 4.71238898038469 6.28318530717959
2  53 23 0 4.71238898038469 6.28318530717959
2  54 19 0 4.71238898038469 6.28318530717959
2  55 1 0 4.71238898038469 6.28318530717959
0

0101000
+303 0 -301 0 *
Ve
1.00000939800216e-07
-39.4968353162625 11.0000000000008 0
0 0

0101101
*
Ed
 1e-07 1 1 0
1  21 0 2 2.49683531626254
2  56 19 0 2 2.49683531626254
2  57 24 0 2 2.49683531626254
2  58 1 0 2 2.49683531626254
0

0101000
+301 0 -299 0 *
Ve
1.00000040194367e-07
-30.3706778682188 27.5430921616452 0
0 0

0101101
*
Ed
 1e-07 1 1 0
1  1 0 2.40497981574766 2.8699723545526
2  1 2 0 2.40497981574766 2.8699723545526
2  2 1 0 2.40497981574766 2.8699723545526
0

0101000
+297 0 -299 0 *
Ve
1.00000035170071e-07
-27.5430921616452 30.3706778682188 0
0 0

0101101
*
Ed
 1e-07 1 1 0
1  22 0 1.59518898957255 4.68799631760703
2  59 1 0 1.59518898957255 4.68799631760703
2  60 25 0 1.59518898957255 4.68799631760703
0

0101000
+297 0 -295 0 *
Ve
1.00001342324118e-07
-11.0000000000012 39.4968353162623 0
0 0

0101101
*
Ed
 1e-07 1 1 0
1  1 0 1.8424166258321 2.30740916463703
2  1 2 0 1.8424166258321 2.30740916463703
2  2 1 0 1.8424166258321 2.30740916463703
0

0101000
+293 0 -295 0 *
Ve
1e-07
-11 39 0
0 0

0101101
*
Ed
 1e-07 1 1 0
1  23 0 2 2.49683531626234
2  61 26 0 2 2.49683531626234
2  62 27 0 2 2.49683531626234
2  63 1 0 2 2.49683531626234
0

0101000
+291 0 -293 0 *
Ve
1e-07
-9 37 0
0 0

0101101
*
Ed
 1e-07 1 1 0
1  24 0 1.5707963267949 3.14159265358979
2  64 28 0 1.5707963267949 3.14159265358979
2  65 26 0 1.5707963267949 3.14159265358979
2  66 1 0 1.5707963267949 3.14159265358979
0

0101000
+289 0 -291 0 *
Ve
1e-07
9 37 0
0 0

0101101
*
Ed
 1e-07 1 1 0
1  25 0 2 20
2  67 29 0 2 20
2  68 26 0 2 20
2  69 1 0 2 20
0

0101000
+287 0 -289 0 *
Ve
1e-07
11 39 0
0 0

0101101
*
Ed
 1e-07 1 1 0
1  26 0 4.71238898038469 6.28318530717959
2  70 30 0 4.71238898038469 6.28318530717959
2  71 26 0 4.71238898038469 6.28318530717959
2  72 1 0 4.71238898038469 6.28318530717959
0

0101000
+287 0 -285 0 *
Ve
1.00001316787337e-07
10.9999999999989 39.4968353162636 0
0 0

0101101
*
Ed
 1e-07 1 1 0
1  27 0 2 2.49683531626363
2  73 26 0 2 2.49683531626363
2  74 31 0 2 2.49683531626363
2  75 1 0 2 2.49683531626363
0

0101000
+285 0 -283 0 *
Ve
1.00000128144171e-07
27.5430921616454 30.3706778682187 0
0 0

0101101
*
Ed
 1e-07 1 1 0
1  1 0 0.834183488952756 1.29917602775776
2  1 2 0 0.834183488952756 1.29917602775776
2  2 1 0 0.834183488952756 1.29917602775776
0

0101000
+281 0 -283 0 *
Ve
1.00000125707842e-07
30.3706778682187 27.5430921616453 0
0 0

0101101
*
Ed
 1e-07 1 1 0
1  28 0 1.59518898957255 4.68799631760703
2  76 1 0 1.59518898957255 4.68799631760703
2  77 32 0 1.59518898957255 4.68799631760703
0

0101000
+281 0 -279 0 *
Ed
 1e-07 1 1 0
1  1 0 0.271620299037186 0.736612837842141
2  1 2 0 0.271620299037186 0.736612837842141
2  2 1 0 0.271620299037186 0.736612837842141
0

0101000
+345 0 -279 0 *
Wi

0101100
-350 0 -352 0 +328 0 -326 0 +324 0 +322 0 +320 0 +318 0 -316 0 -314 0 
+312 0 -310 0 +308 0 +306 0 +304 0 +302 0 -300 0 -298 0 +296 0 -294 0 
+292 0 +290 0 +288 0 +286 0 -284 0 -282 0 +280 0 -278 0 +277 0 +344 0 
+346 0 +348 0 *
Ve
1e-07
20 -4.89858719658941e-15 0
0 0

0101101
*
Ed
 1e-07 1 1 0
1  29 0 0 6.28318530717959
2  78 33 0 0 6.28318530717959
2  79 34 0 0 6.28318530717959
2  80 1 0 0 6.28318530717959
0

0101000
+275 0 -275 0 *
Wi

0101100
-274 0 *
Fa
0  1e-07 1 0

0101000
+276 0 +273 0 *
Ve
1e-07
72.98 11 12
0 0

0101101
*
Ed
 1e-07 1 1 0
1  30 0 0 12
2  81 9 0 0 12
4 G1 8 0 9 0
2  82 8 0 0 12
0

0101000
+340 0 -271 0 *
Ve
1.00000629752948e-07
39.4968353162627 11.0000000000006 12
0 0

0101101
*
Ed
 1e-07 1 1 0
1  31 0 2.49683531626269 35.98
2  83 35 0 2.49683531626269 35.98
2  84 8 0 2.49683531626269 35.98
0

0101000
+269 0 -271 0 *
Ed
 1e-07 1 1 0
1  32 0 0 12
2  85 2 0 0 12
2  86 8 0 0 12
0

0101000
+345 0 -269 0 *
Wi

0101100
-339 0 -270 0 +268 0 +267 0 *
Fa
0  1e-07 8 0

0101000
+266 0 *
Ve
1e-07
74.98 9 12
0 0

0101101
*
Ed
 1e-07 1 1 0
1  33 0 0 12
2  87 9 0 0 12
4 G1 9 0 36 0
0

0101000
+338 0 -264 0 *
Ed
 1e-07 1 1 0
1  34 0 1.5707963267949 3.14159265358979
2  88 9 0 1.5707963267949 3.14159265358979
2  89 35 0 1.5707963267949 3.14159265358979
0

0101000
+264 0 -271 0 *
Wi

0101100
+337 0 -263 0 +270 0 -262 0 *
Fa
0  1e-07 9 0

0101000
+261 0 *
Ve
1e-07
74.98 -9 12
0 0

0101101
*
Ed
 1e-07 1 1 0
1  35 0 2 20
2  90 35 0 2 20
0

0101000
+259 0 -264 0 *
Ed
 1e-07 1 1 0
1  36 0 0 12
2  91 10 0 0 12
4 G1 10 0 36 0
0

0101000
+336 0 -259 0 *
Wi

0101100
-258 0 -257 0 +263 0 +335 0 *
Fa
0  1e-07 36 0

0101000
+256 0 *
Ve
1e-07
72.98 -11 12
0 0

0101101
*
Ed
 1e-07 1 1 0
1  37 0 0 12
2  92 10 0 0 12
4 G1 4 0 10 0
2  93 4 0 0 12
0

0101000
+334 0 -254 0 *
Ed
 1e-07 1 1 0
1  38 0 4.71238898038469 6.28318530717959
2  94 10 0 4.71238898038469 6.28318530717959
2  95 35 0 4.71238898038469 6.28318530717959
0

0101000
+259 0 -254 0 *
Wi

0101100
+333 0 -257 0 +253 0 -252 0 *
Fa
0  1e-07 10 0

0101000
+251 0 *
Ve
1.00000604222498e-07
39.4968353162627 -11.0000000000005 12
0 0

0101101
*
Ed
 1e-07 1 1 0
1  39 0 2.4968353162627 35.98
2  96 35 0 2.4968353162627 35.98
2  97 4 0 2.4968353162627 35.98
0

0101000
+249 0 -254 0 *
Ed
 1e-07 1 1 0
1  40 0 0 12
2  98 2 0 0 12
2  99 4 0 0 12
0

0101000
+356 0 -249 0 *
Wi

0101100
-332 0 -253 0 +248 0 +247 0 *
Fa
0  1e-07 4 0

0101000
+246 0 *
Ve
1.00000065508803e-07
30.3706778682188 -27.5430921616453 12
0 0

0101101
*
Ed
 1e-07 1 1 0
1  41 0 5.54657246933745 6.0115650081424
2  100 2 0 5.54657246933745 6.0115650081424
2  101 37 0 5.54657246933745 6.0115650081424
0

0101000
+244 0 -249 0 *
Ed
 1e-07 1 1 0
1  42 0 0 12
2  102 2 0 0 12
2  103 11 0 0 12
0

0101000
+329 0 -244 0 *
Wi

0101100
-243 0 +247 0 +328 0 -242 0 *
Fa
0  1e-07 2 0

0101000
+241 0 *
Ve
1.00000065508803e-07
27.5430921616453 -30.3706778682188 12
0 0

0101101
*
Ed
 1e-07 1 1 0
1  43 0 1.59518898957255 4.68799631760704
2  104 37 0 1.59518898957255 4.68799631760704
2  105 11 0 1.59518898957255 4.68799631760704
0

0101000
+244 0 -239 0 *
Ed
 1e-07 1 1 0
1  44 0 0 12
2  106 2 0 0 12
2  107 11 0 0 12
0

0101000
+327 0 -239 0 *
Wi

0101100
-242 0 -238 0 +237 0 +326 0 *
Fa
0  1e-07 11 0

0101000
+236 0 *
Ve
1.00000077856324e-07
11.0000000000001 -39.496835316263 12
0 0

0101101
*
Ed
 1e-07 1 1 0
1  41 0 4.98400927942186 5.44900181822683
2  100 2 0 4.98400927942186 5.44900181822683
2  101 37 0 4.98400927942186 5.44900181822683
0

0101000
+234 0 -239 0 *
Ed
 1e-07 1 1 0
1  45 0 0 12
2  108 2 0 0 12
2  109 13 0 0 12
0

0101000
+325 0 -234 0 *
Wi

0101100
-233 0 +237 0 +324 0 -232 0 *
Fa
0  1e-07 2 0

0101000
+231 0 *
Ed
 1e-07 1 1 0
1  1 0 4.44076868134752 4.98400927942186
2  1 2 0 4.44076868134752 4.98400927942186
2  2 1 0 4.44076868134752 4.98400927942186
2  110 12 0 4.44076868134752 4.98400927942186
0

0101000
+315 0 -325 0 *
Wi

0101100
+229 0 +314 0 +316 0 -318 0 -320 0 -322 0 *
Fa
0  1e-07 1 0

0101000
+228 0 *
Ve
1.00000032754402e-07
-27.5430921616453 -30.3706778682188 12
0 0

0101101
*
Ve
1.00000074712648e-07
-11.0000000000001 -39.496835316263 12
0 0

0101101
*
Ed
 1e-07 1 1 0
1  41 0 3.97577614254255 4.44076868134752
2  100 2 0 3.97577614254255 4.44076868134752
2  101 37 0 3.97577614254255 4.44076868134752
0

0101000
+226 0 -225 0 *
Ed
 1e-07 1 1 0
1  46 0 0 12
2  111 2 0 0 12
2  112 17 0 0 12
0

0101000
+315 0 -225 0 *
Ed
 1e-07 1 1 0
1  47 0 0 12
2  113 2 0 0 12
2  114 18 0 0 12
0

0101000
+313 0 -226 0 *
Wi

0101100
-224 0 +223 0 +312 0 -222 0 *
Fa
0  1e-07 2 0

0101000
+221 0 *
Ve
1.00000032754402e-07
-30.3706778682188 -27.5430921616453 12
0 0

0101101
*
Ed
 1e-07 1 1 0
1  48 0 1.59518898957255 4.68799631760703
2  115 37 0 1.59518898957255 4.68799631760703
2  116 18 0 1.59518898957255 4.68799631760703
0

0101000
+226 0 -219 0 *
Ed
 1e-07 1 1 0
1  49 0 0 12
2  117 2 0 0 12
2  118 18 0 0 12
0

0101000
+311 0 -219 0 *
Wi

0101100
-222 0 -218 0 +217 0 +310 0 *
Fa
0  1e-07 18 0

0101000
+216 0 *
Ve
1.00000456744835e-07
-39.4968353162632 -10.9999999999996 12
0 0

0101101
*
Ed
 1e-07 1 1 0
1  41 0 3.41321295262695 3.87820549143193
2  100 2 0 3.41321295262695 3.87820549143193
2  101 37 0 3.41321295262695 3.87820549143193
0

0101000
+214 0 -219 0 *
Ed
 1e-07 1 1 0
1  50 0 0 12
2  119 2 0 0 12
2  120 20 0 0 12
0

0101000
+309 0 -214 0 *
Wi

0101100
-213 0 +217 0 +308 0 -212 0 *
Fa
0  1e-07 2 0

0101000
+211 0 *
Ed
 1e-07 1 1 0
1  1 0 2.8699723545526 3.41321295262695
2  1 2 0 2.8699723545526 3.41321295262695
2  2 1 0 2.8699723545526 3.41321295262695
2  121 19 0 2.8699723545526 3.41321295262695
0

0101000
+299 0 -309 0 *
Wi

0101100
+209 0 +298 0 +300 0 -302 0 -304 0 -306 0 *
Fa
0  1e-07 1 0

0101000
+208 0 *
Ve
1.00000040194367e-07
-30.3706778682188 27.5430921616452 12
0 0

0101101
*
Ve
1.00000939800216e-07
-39.4968353162625 11.0000000000008 12
0 0

0101101
*
Ed
 1e-07 1 1 0
1  41 0 2.40497981574766 2.8699723545526
2  100 2 0 2.40497981574766 2.8699723545526
2  101 37 0 2.40497981574766 2.8699723545526
0

0101000
+206 0 -205 0 *
Ed
 1e-07 1 1 0
1  51 0 0 12
2  122 2 0 0 12
2  123 24 0 0 12
0

0101000
+299 0 -205 0 *
Ed
 1e-07 1 1 0
1  52 0 0 12
2  124 2 0 0 12
2  125 25 0 0 12
0

0101000
+297 0 -206 0 *
Wi

0101100
-204 0 +203 0 +296 0 -202 0 *
Fa
0  1e-07 2 0

0101000
+201 0 *
Ve
1.00000035170071e-07
-27.5430921616452 30.3706778682188 12
0 0

0101101
*
Ed
 1e-07 1 1 0
1  53 0 1.59518898957255 4.68799631760703
2  126 37 0 1.59518898957255 4.68799631760703
2  127 25 0 1.59518898957255 4.68799631760703
0

0101000
+206 0 -199 0 *
Ed
 1e-07 1 1 0
1  54 0 0 12
2  128 2 0 0 12
2  129 25 0 0 12
0

0101000
+295 0 -199 0 *
Wi

0101100
-202 0 -198 0 +197 0 +294 0 *
Fa
0  1e-07 25 0

0101000
+196 0 *
Ve
1.00001342324118e-07
-11.0000000000012 39.4968353162623 12
0 0

0101101
*
Ed
 1e-07 1 1 0
1  41 0 1.8424166258321 2.30740916463703
2  100 2 0 1.8424166258321 2.30740916463703
2  101 37 0 1.8424166258321 2.30740916463703
0

0101000
+194 0 -199 0 *
Ed
 1e-07 1 1 0
1  55 0 0 12
2  130 2 0 0 12
2  131 27 0 0 12
0

0101000
+293 0 -194 0 *
Wi

0101100
-193 0 +197 0 +292 0 -192 0 *
Fa
0  1e-07 2 0

0101000
+191 0 *
Ed
 1e-07 1 1 0
1  1 0 1.29917602775776 1.8424166258321
2  1 2 0 1.29917602775776 1.8424166258321
2  2 1 0 1.29917602775776 1.8424166258321
2  132 26 0 1.29917602775776 1.8424166258321
0

0101000
+283 0 -293 0 *
Wi

0101100
+282 0 +284 0 -286 0 -288 0 -290 0 +189 0 *
Fa
0  1e-07 1 0

0101000
+188 0 *
Ve
1.00000128144171e-07
27.5430921616454 30.3706778682187 12
0 0

0101101
*
Ve
1.00001316787337e-07
10.9999999999989 39.4968353162636 12
0 0

0101101
*
Ed
 1e-07 1 1 0
1  41 0 0.834183488952756 1.29917602775776
2  100 2 0 0.834183488952756 1.29917602775776
2  101 37 0 0.834183488952756 1.29917602775776
0

0101000
+186 0 -185 0 *
Ed
 1e-07 1 1 0
1  56 0 0 12
2  133 2 0 0 12
2  134 31 0 0 12
0

0101000
+283 0 -185 0 *
Ed
 1e-07 1 1 0
1  57 0 0 12
2  135 2 0 0 12
2  136 32 0 0 12
0

0101000
+281 0 -186 0 *
Wi

0101100
-184 0 +183 0 +280 0 -182 0 *
Fa
0  1e-07 2 0

0101000
+181 0 *
Ve
1.00000125707842e-07
30.3706778682187 27.5430921616453 12
0 0

0101101
*
Ed
 1e-07 1 1 0
1  58 0 1.59518898957255 4.68799631760703
2  137 37 0 1.59518898957255 4.68799631760703
2  138 32 0 1.59518898957255 4.68799631760703
0

0101000
+186 0 -179 0 *
Ed
 1e-07 1 1 0
1  59 0 0 12
2  139 2 0 0 12
2  140 32 0 0 12
0

0101000
+279 0 -179 0 *
Wi

0101100
-182 0 -178 0 +177 0 +278 0 *
Fa
0  1e-07 32 0

0101000
+176 0 *
Ed
 1e-07 1 1 0
1  41 0 0.271620299037186 0.736612837842141
2  100 2 0 0.271620299037186 0.736612837842141
2  101 37 0 0.271620299037186 0.736612837842141
0

0101000
+269 0 -179 0 *
Wi

0101100
-174 0 +177 0 +277 0 -267 0 *
Fa
0  1e-07 2 0

0101000
+173 0 *
Ve
1e-07
20 -4.89858719658941e-15 12
0 0

0101101
*
Ed
 1e-07 1 1 0
1  60 0 0 6.28318530717959
2  141 33 0 0 6.28318530717959
2  142 38 0 0 6.28318530717959
2  143 37 0 0 6.28318530717959
0

0101000
+171 0 -171 0 *
Ed
 1e-07 1 1 0
1  61 0 0 12
3  144 145CN 33 0 0 12
0

0101000
-171 0 +275 0 *
Wi

0101100
-170 0 +169 0 +274 0 -169 0 *
Fa
0  1e-07 33 0

0101000
+168 0 *
Ve
1e-07
41 -1.00421037530083e-14 12
0 0

0101101
*
Ed
 1e-07 1 1 0
1  41 0 6.0115650081424 6.28318530717959
2  100 2 0 6.0115650081424 6.28318530717959
2  101 37 0 6.0115650081424 6.28318530717959
2  146 35 0 6.0115650081424 6.28318530717959
0

0101000
+249 0 -166 0 *
Ed
 1e-07 1 1 0
1  41 0 0 0.271620299037186
2  100 2 0 0 0.271620299037186
2  101 37 0 0 0.271620299037186
2  147 35 0 0 0.271620299037186
0

0101000
+166 0 -269 0 *
Wi

0101100
-165 0 -164 0 -268 0 +262 0 +258 0 -252 0 +248 0 *
Fa
0  1e-07 35 0

0101000
+163 0 *
Ve
1e-07
37 -9 12
0 0

0101101
*
Ve
1e-07
39 -11 12
0 0

0101101
*
Ed
 1e-07 1 1 0
1  62 0 4.71238898038469 6.28318530717959
2  148 5 0 4.71238898038469 6.28318530717959
2  149 35 0 4.71238898038469 6.28318530717959
2  150 37 0 4.71238898038469 6.28318530717959
0

0101000
+161 0 -160 0 *
Ed
 1e-07 1 1 0
1  39 0 2 2.4968353162627
2  96 35 0 2 2.4968353162627
2  97 4 0 2 2.4968353162627
2  151 37 0 2 2.4968353162627
0

0101000
+160 0 -249 0 *
Ve
1e-07
11 -39 12
0 0

0101101
*
Ed
 1e-07 1 1 0
1  63 0 2 2.49683531626296
2  152 13 0 2 2.49683531626296
2  153 39 0 2 2.49683531626296
2  154 37 0 2 2.49683531626296
0

0101000
+157 0 -234 0 *
Ve
1e-07
8.99999999999999 -37 12
0 0

0101101
*
Ed
 1e-07 1 1 0
1  64 0 1.5707963267949 3.14159265358979
2  155 14 0 1.5707963267949 3.14159265358979
2  156 39 0 1.5707963267949 3.14159265358979
2  157 37 0 1.5707963267949 3.14159265358979
0

0101000
+155 0 -157 0 *
Ve
1e-07
-9.00000000000001 -37 12
0 0

0101101
*
Ed
 1e-07 1 1 0
1  65 0 2 20
2  158 15 0 2 20
2  159 39 0 2 20
2  160 37 0 2 20
0

0101000
+153 0 -155 0 *
Ve
1e-07
-11 -39 12
0 0

0101101
*
Ed
 1e-07 1 1 0
1  66 0 4.71238898038469 6.28318530717959
2  161 16 0 4.71238898038469 6.28318530717959
2  162 39 0 4.71238898038469 6.28318530717959
2  163 37 0 4.71238898038469 6.28318530717959
0

0101000
+153 0 -151 0 *
Ed
 1e-07 1 1 0
1  67 0 2 2.49683531626296
2  164 17 0 2 2.49683531626296
2  165 39 0 2 2.49683531626296
2  166 37 0 2 2.49683531626296
0

0101000
+151 0 -225 0 *
Ve
1e-07
-39 -11 12
0 0

0101101
*
Ed
 1e-07 1 1 0
1  68 0 2 2.49683531626322
2  167 20 0 2 2.49683531626322
2  168 40 0 2 2.49683531626322
2  169 37 0 2 2.49683531626322
0

0101000
+148 0 -214 0 *
Ve
1e-07
-37 -8.99999999999999 12
0 0

0101101
*
Ed
 1e-07 1 1 0
1  69 0 1.5707963267949 3.14159265358979
2  170 21 0 1.5707963267949 3.14159265358979
2  171 40 0 1.5707963267949 3.14159265358979
2  172 37 0 1.5707963267949 3.14159265358979
0

0101000
+146 0 -148 0 *
Ve
1e-07
-37 9.00000000000001 12
0 0

0101101
*
Ed
 1e-07 1 1 0
1  70 0 2 20
2  173 22 0 2 20
2  174 40 0 2 20
2  175 37 0 2 20
0

0101000
+144 0 -146 0 *
Ve
1e-07
-39 11 12
0 0

0101101
*
Ed
 1e-07 1 1 0
1  71 0 4.71238898038469 6.28318530717959
2  176 23 0 4.71238898038469 6.28318530717959
2  177 40 0 4.71238898038469 6.28318530717959
2  178 37 0 4.71238898038469 6.28318530717959
0

0101000
+144 0 -142 0 *
Ed
 1e-07 1 1 0
1  72 0 2 2.49683531626254
2  179 24 0 2 2.49683531626254
2  180 40 0 2 2.49683531626254
2  181 37 0 2 2.49683531626254
0

0101000
+142 0 -205 0 *
Ve
1e-07
-11 39 12
0 0

0101101
*
Ed
 1e-07 1 1 0
1  73 0 2 2.49683531626234
2  182 27 0 2 2.49683531626234
2  183 41 0 2 2.49683531626234
2  184 37 0 2 2.49683531626234
0

0101000
+139 0 -194 0 *
Ve
1e-07
-9 37 12
0 0

0101101
*
Ed
 1e-07 1 1 0
1  74 0 1.5707963267949 3.14159265358979
2  185 28 0 1.5707963267949 3.14159265358979
2  186 41 0 1.5707963267949 3.14159265358979
2  187 37 0 1.5707963267949 3.14159265358979
0

0101000
+137 0 -139 0 *
Ve
1e-07
9 37 12
0 0

0101101
*
Ed
 1e-07 1 1 0
1  75 0 2 20
2  188 29 0 2 20
2  189 41 0 2 20
2  190 37 0 2 20
0

0101000
+135 0 -137 0 *
Ve
1e-07
11 39 12
0 0

0101101
*
Ed
 1e-07 1 1 0
1  76 0 4.71238898038469 6.28318530717959
2  191 30 0 4.71238898038469 6.28318530717959
2  192 41 0 4.71238898038469 6.28318530717959
2  193 37 0 4.71238898038469 6.28318530717959
0

0101000
+135 0 -133 0 *
Ed
 1e-07 1 1 0
1  77 0 2 2.49683531626363
2  194 31 0 2 2.49683531626363
2  195 41 0 2 2.49683531626363
2  196 37 0 2 2.49683531626363
0

0101000
+133 0 -185 0 *
Ve
1e-07
39 11 12
0 0

0101101
*
Ed
 1e-07 1 1 0
1  31 0 2 2.49683531626269
2  83 35 0 2 2.49683531626269
2  84 8 0 2 2.49683531626269
2  197 37 0 2 2.49683531626269
0

0101000
+130 0 -269 0 *
Ve
1e-07
37 9 12
0 0

0101101
*
Ed
 1e-07 1 1 0
1  78 0 1.5707963267949 3.14159265358979
2  198 7 0 1.5707963267949 3.14159265358979
2  199 35 0 1.5707963267949 3.14159265358979
2  200 37 0 1.5707963267949 3.14159265358979
0

0101000
+128 0 -130 0 *
Ed
 1e-07 1 1 0
1  79 0 2 20
2  201 35 0 2 20
2  202 6 0 2 20
2  203 37 0 2 20
0

0101000
+161 0 -128 0 *
Wi

0101100
-159 0 -158 0 +243 0 -238 0 +233 0 +156 0 +154 0 +152 0 -150 0 -149 0 
+224 0 -218 0 +213 0 +147 0 +145 0 +143 0 -141 0 -140 0 +204 0 -198 0 
+193 0 +138 0 +136 0 +134 0 -132 0 -131 0 +184 0 -178 0 +174 0 +129 0 
+127 0 +126 0 *
Wi

0101100
-170 0 *
Fa
0  1e-07 37 0

0101000
+125 0 +124 0 *
Ve
1e-07
11 -72.98 0
0 0

0101101
*
Ed
 1e-07 1 1 0
1  11 0 2.49683531626296 35.98
2  27 12 0 2.49683531626296 35.98
2  28 13 0 2.49683531626296 35.98
0

0101000
+325 0 -122 0 *
Ve
1e-07
11 -72.98 12
0 0

0101101
*
Ed
 1e-07 1 1 0
1  80 0 0 12
2  204 42 0 0 12
4 G1 13 0 42 0
2  205 13 0 0 12
0

0101000
+122 0 -120 0 *
Ed
 1e-07 1 1 0
1  63 0 2.49683531626296 35.98
2  152 13 0 2.49683531626296 35.98
2  153 39 0 2.49683531626296 35.98
0

0101000
+234 0 -120 0 *
Wi

0101100
-121 0 -119 0 +118 0 +232 0 *
Fa
0  1e-07 13 0

0101000
+117 0 *
Ve
1e-07
8.99999999999998 -74.98 0
0 0

0101101
*
Ed
 1e-07 1 1 0
1  81 0 1.5707963267949 3.14159265358979
2  206 42 0 1.5707963267949 3.14159265358979
2  207 12 0 1.5707963267949 3.14159265358979
0

0101000
+115 0 -122 0 *
Ve
1e-07
-9.00000000000002 -74.98 0
0 0

0101101
*
Ed
 1e-07 1 1 0
1  82 0 2 20
2  208 12 0 2 20
0

0101000
+113 0 -115 0 *
Ve
1e-07
-11 -72.98 0
0 0

0101101
*
Ed
 1e-07 1 1 0
1  83 0 4.71238898038469 6.28318530717959
2  209 43 0 4.71238898038469 6.28318530717959
2  210 12 0 4.71238898038469 6.28318530717959
0

0101000
+113 0 -111 0 *
Ed
 1e-07 1 1 0
1  15 0 2.49683531626296 35.98
2  39 12 0 2.49683531626296 35.98
2  40 17 0 2.49683531626296 35.98
0

0101000
+315 0 -111 0 *
Wi

0101100
-229 0 -121 0 +114 0 +112 0 -110 0 +109 0 *
Fa
0  1e-07 12 0

0101000
+108 0 *
Ve
1e-07
-11 -72.98 12
0 0

0101101
*
Ed
 1e-07 1 1 0
1  84 0 0 12
2  211 43 0 0 12
4 G1 17 0 43 0
2  212 17 0 0 12
0

0101000
+111 0 -106 0 *
Ed
 1e-07 1 1 0
1  67 0 2.49683531626296 35.98
2  164 17 0 2.49683531626296 35.98
2  165 39 0 2.49683531626296 35.98
0

0101000
+225 0 -106 0 *
Wi

0101100
-109 0 -105 0 +104 0 +223 0 *
Fa
0  1e-07 17 0

0101000
+103 0 *
Ve
1e-07
-72.98 -11 0
0 0

0101101
*
Ed
 1e-07 1 1 0
1  17 0 2.49683531626322 35.98
2  44 19 0 2.49683531626322 35.98
2  45 20 0 2.49683531626322 35.98
0

0101000
+309 0 -101 0 *
Ve
1e-07
-72.98 -11 12
0 0

0101101
*
Ed
 1e-07 1 1 0
1  85 0 0 12
2  213 44 0 0 12
4 G1 20 0 44 0
2  214 20 0 0 12
0

0101000
+101 0 -99 0 *
Ed
 1e-07 1 1 0
1  68 0 2.49683531626322 35.98
2  167 20 0 2.49683531626322 35.98
2  168 40 0 2.49683531626322 35.98
0

0101000
+214 0 -99 0 *
Wi

0101100
-100 0 -98 0 +97 0 +212 0 *
Fa
0  1e-07 20 0

0101000
+96 0 *
Ve
1e-07
-74.98 -8.99999999999999 0
0 0

0101101
*
Ed
 1e-07 1 1 0
1  86 0 1.5707963267949 3.14159265358979
2  215 44 0 1.5707963267949 3.14159265358979
2  216 19 0 1.5707963267949 3.14159265358979
0

0101000
+94 0 -101 0 *
Ve
1e-07
-74.98 9.00000000000001 0
0 0

0101101
*
Ed
 1e-07 1 1 0
1  87 0 2 20
2  217 19 0 2 20
0

0101000
+92 0 -94 0 *
Ve
1e-07
-72.98 11 0
0 0

0101101
*
Ed
 1e-07 1 1 0
1  88 0 4.71238898038469 6.28318530717959
2  218 45 0 4.71238898038469 6.28318530717959
2  219 19 0 4.71238898038469 6.28318530717959
0

0101000
+92 0 -90 0 *
Ed
 1e-07 1 1 0
1  21 0 2.49683531626254 35.98
2  56 19 0 2.49683531626254 35.98
2  57 24 0 2.49683531626254 35.98
0

0101000
+299 0 -90 0 *
Wi

0101100
-209 0 -100 0 +93 0 +91 0 -89 0 +88 0 *
Fa
0  1e-07 19 0

0101000
+87 0 *
Ve
1e-07
-72.98 11 12
0 0

0101101
*
Ed
 1e-07 1 1 0
1  89 0 0 12
2  220 45 0 0 12
4 G1 24 0 45 0
2  221 24 0 0 12
0

0101000
+90 0 -85 0 *
Ed
 1e-07 1 1 0
1  72 0 2.49683531626254 35.98
2  179 24 0 2.49683531626254 35.98
2  180 40 0 2.49683531626254 35.98
0

0101000
+205 0 -85 0 *
Wi

0101100
-88 0 -84 0 +83 0 +203 0 *
Fa
0  1e-07 24 0

0101000
+82 0 *
Ve
1e-07
-11 72.98 0
0 0

0101101
*
Ed
 1e-07 1 1 0
1  23 0 2.49683531626234 35.98
2  61 26 0 2.49683531626234 35.98
2  62 27 0 2.49683531626234 35.98
0

0101000
+293 0 -80 0 *
Ve
1e-07
-11 72.98 12
0 0

0101101
*
Ed
 1e-07 1 1 0
1  90 0 0 12
2  222 46 0 0 12
4 G1 27 0 46 0
2  223 27 0 0 12
0

0101000
+80 0 -78 0 *
Ed
 1e-07 1 1 0
1  73 0 2.49683531626234 35.98
2  182 27 0 2.49683531626234 35.98
2  183 41 0 2.49683531626234 35.98
0

0101000
+194 0 -78 0 *
Wi

0101100
-79 0 -77 0 +76 0 +192 0 *
Fa
0  1e-07 27 0

0101000
+75 0 *
Ve
1e-07
-8.99999999999999 74.98 0
0 0

0101101
*
Ed
 1e-07 1 1 0
1  91 0 1.5707963267949 3.14159265358979
2  224 46 0 1.5707963267949 3.14159265358979
2  225 26 0 1.5707963267949 3.14159265358979
0

0101000
+73 0 -80 0 *
Ve
1e-07
9.00000000000001 74.98 0
0 0

0101101
*
Ed
 1e-07 1 1 0
1  92 0 2 20
2  226 26 0 2 20
0

0101000
+71 0 -73 0 *
Ve
1e-07
11 72.98 0
0 0

0101101
*
Ed
 1e-07 1 1 0
1  93 0 4.71238898038469 6.28318530717959
2  227 47 0 4.71238898038469 6.28318530717959
2  228 26 0 4.71238898038469 6.28318530717959
0

0101000
+71 0 -69 0 *
Ed
 1e-07 1 1 0
1  27 0 2.49683531626363 35.98
2  73 26 0 2.49683531626363 35.98
2  74 31 0 2.49683531626363 35.98
0

0101000
+283 0 -69 0 *
Wi

0101100
-189 0 -79 0 +72 0 +70 0 -68 0 +67 0 *
Fa
0  1e-07 26 0

0101000
+66 0 *
Ve
1e-07
11 72.98 12
0 0

0101101
*
Ed
 1e-07 1 1 0
1  94 0 0 12
2  229 47 0 0 12
4 G1 31 0 47 0
2  230 31 0 0 12
0

0101000
+69 0 -64 0 *
Ed
 1e-07 1 1 0
1  77 0 2.49683531626363 35.98
2  194 31 0 2.49683531626363 35.98
2  195 41 0 2.49683531626363 35.98
0

0101000
+185 0 -64 0 *
Wi

0101100
-67 0 -63 0 +62 0 +183 0 *
Fa
0  1e-07 31 0

0101000
+61 0 *
Wi

0101100
+165 0 +158 0 +159 0 -126 0 -127 0 -129 0 +164 0 *
Fa
0  1e-07 37 0

0101000
+59 0 *
Ed
 1e-07 1 1 0
1  41 0 4.44076868134752 4.98400927942186
2  100 2 0 4.44076868134752 4.98400927942186
2  101 37 0 4.44076868134752 4.98400927942186
2  231 39 0 4.44076868134752 4.98400927942186
0

0101000
+225 0 -234 0 *
Wi

0101100
+57 0 +149 0 +150 0 -152 0 -154 0 -156 0 *
Fa
0  1e-07 37 0

0101000
+56 0 *
Ed
 1e-07 1 1 0
1  41 0 2.8699723545526 3.41321295262695
2  100 2 0 2.8699723545526 3.41321295262695
2  101 37 0 2.8699723545526 3.41321295262695
2  232 40 0 2.8699723545526 3.41321295262695
0

0101000
+205 0 -214 0 *
Wi

0101100
+54 0 +140 0 +141 0 -143 0 -145 0 -147 0 *
Fa
0  1e-07 37 0

0101000
+53 0 *
Ed
 1e-07 1 1 0
1  41 0 1.29917602775776 1.8424166258321
2  100 2 0 1.29917602775776 1.8424166258321
2  101 37 0 1.29917602775776 1.8424166258321
2  233 41 0 1.29917602775776 1.8424166258321
0

0101000
+185 0 -194 0 *
Wi

0101100
+131 0 +132 0 -134 0 -136 0 -138 0 +51 0 *
Fa
0  1e-07 37 0

0101000
+50 0 *
Ve
1e-07
8.99999999999998 -74.98 12
0 0

0101101
*
Ed
 1e-07 1 1 0
1  95 0 0 12
2  234 42 0 0 12
4 G1 42 0 48 0
0

0101000
+115 0 -48 0 *
Ed
 1e-07 1 1 0
1  96 0 1.5707963267949 3.14159265358979
2  235 42 0 1.5707963267949 3.14159265358979
2  236 39 0 1.5707963267949 3.14159265358979
0

0101000
+48 0 -120 0 *
Wi

0101100
+114 0 -47 0 +119 0 -46 0 *
Fa
0  1e-07 42 0

0101000
+45 0 *
Ve
1e-07
-9.00000000000002 -74.98 12
0 0

0101101
*
Ed
 1e-07 1 1 0
1  97 0 2 20
2  237 39 0 2 20
0

0101000
+43 0 -48 0 *
Ed
 1e-07 1 1 0
1  98 0 4.71238898038469 6.28318530717959
2  238 43 0 4.71238898038469 6.28318530717959
2  239 39 0 4.71238898038469 6.28318530717959
0

0101000
+43 0 -106 0 *
Wi

0101100
-57 0 -118 0 +46 0 +42 0 -41 0 +104 0 *
Fa
0  1e-07 39 0

0101000
+40 0 *
Ed
 1e-07 1 1 0
1  99 0 0 12
2  240 43 0 0 12
4 G1 43 0 48 0
0

0101000
+113 0 -43 0 *
Wi

0101100
-42 0 -38 0 +47 0 +112 0 *
Fa
0  1e-07 48 0

0101000
+37 0 *
Wi

0101100
+110 0 -38 0 +105 0 -41 0 *
Fa
0  1e-07 43 0

0101000
+35 0 *
Ve
1e-07
-74.98 -8.99999999999999 12
0 0

0101101
*
Ed
 1e-07 1 1 0
1  100 0 0 12
2  241 44 0 0 12
4 G1 44 0 49 0
0

0101000
+94 0 -33 0 *
Ed
 1e-07 1 1 0
1  101 0 1.5707963267949 3.14159265358979
2  242 44 0 1.5707963267949 3.14159265358979
2  243 40 0 1.5707963267949 3.14159265358979
0

0101000
+33 0 -99 0 *
Wi

0101100
+93 0 -32 0 +98 0 -31 0 *
Fa
0  1e-07 44 0

0101000
+30 0 *
Ve
1e-07
-74.98 9.00000000000001 12
0 0

0101101
*
Ed
 1e-07 1 1 0
1  102 0 2 20
2  244 40 0 2 20
0

0101000
+28 0 -33 0 *
Ed
 1e-07 1 1 0
1  103 0 4.71238898038469 6.28318530717959
2  245 45 0 4.71238898038469 6.28318530717959
2  246 40 0 4.71238898038469 6.28318530717959
0

0101000
+28 0 -85 0 *
Wi

0101100
-54 0 -97 0 +31 0 +27 0 -26 0 +83 0 *
Fa
0  1e-07 40 0

0101000
+25 0 *
Ed
 1e-07 1 1 0
1  104 0 0 12
2  247 45 0 0 12
4 G1 45 0 49 0
0

0101000
+92 0 -28 0 *
Wi

0101100
-27 0 -23 0 +32 0 +91 0 *
Fa
0  1e-07 49 0

0101000
+22 0 *
Wi

0101100
+89 0 -23 0 +84 0 -26 0 *
Fa
0  1e-07 45 0

0101000
+20 0 *
Ve
1e-07
-8.99999999999999 74.98 12
0 0

0101101
*
Ed
 1e-07 1 1 0
1  105 0 0 12
2  248 46 0 0 12
4 G1 46 0 50 0
0

0101000
+73 0 -18 0 *
Ed
 1e-07 1 1 0
1  106 0 1.5707963267949 3.14159265358979
2  249 46 0 1.5707963267949 3.14159265358979
2  250 41 0 1.5707963267949 3.14159265358979
0

0101000
+18 0 -78 0 *
Wi

0101100
+72 0 -17 0 +77 0 -16 0 *
Fa
0  1e-07 46 0

0101000
+15 0 *
Ve
1e-07
9.00000000000001 74.98 12
0 0

0101101
*
Ed
 1e-07 1 1 0
1  107 0 2 20
2  251 41 0 2 20
0

0101000
+13 0 -18 0 *
Ed
 1e-07 1 1 0
1  108 0 4.71238898038469 6.28318530717959
2  252 47 0 4.71238898038469 6.28318530717959
2  253 41 0 4.71238898038469 6.28318530717959
0

0101000
+13 0 -64 0 *
Wi

0101100
-51 0 -76 0 +16 0 +12 0 -11 0 +62 0 *
Fa
0  1e-07 41 0

0101000
+10 0 *
Ed
 1e-07 1 1 0
1  109 0 0 12
2  254 47 0 0 12
4 G1 47 0 50 0
0

0101000
+71 0 -13 0 *
Wi

0101100
-12 0 -8 0 +17 0 +70 0 *
Fa
0  1e-07 50 0

0101000
+7 0 *
Wi

0101100
+68 0 -8 0 +63 0 -11 0 *
Fa
0  1e-07 47 0

0101000
+5 0 *
Sh

0101100
-341 0 -330 0 -272 0 +265 0 +260 0 +255 0 -250 0 -245 0 +240 0 -235 0 
+230 0 -227 0 +220 0 -215 0 +210 0 -207 0 +200 0 -195 0 +190 0 -187 0 
+180 0 -175 0 +172 0 -167 0 +162 0 +123 0 +116 0 -107 0 -102 0 +95 0 
-86 0 -81 0 +74 0 -65 0 -60 0 +58 0 +55 0 +52 0 +49 0 +44 0 
+39 0 +36 0 -34 0 +29 0 +24 0 +21 0 -19 0 +14 0 +9 0 +6 0 
-4 0 *
So

0100000
+3 0 *
Co

1100000
+2 0 *

+1 0 