<svg xmlns="http://www.w3.org/2000/svg" width="1200" height="800" viewBox="0 0 1200 800">
<style>text{font-family:"Microsoft YaHei";font-size:17px;fill:#183247}.title{font-size:28px;font-weight:700}.small{font-size:14px}.section{font-size:21px;font-weight:700;fill:#176b7b}</style>
<rect x="0" y="0" width="1200" height="800" fill="#ffffff" stroke="#334155"/>
<rect x="25" y="25" width="1150" height="750" fill="#ffffff" stroke="#334155"/>
<text x="50" y="68" class="title">铜环分体、静态密封与独立气水路</text>
<text x="50" y="99" class="small">铜环两半；接料盘朝上；气水互不相通；全部工具在装配进入内腔前清洗清点</text>
<text x="1020" y="65" class="section">HJ-007</text>
<circle cx="300" cy="355" r="230" fill="#d9ad83" stroke="#334155"/>
<circle cx="300" cy="355" r="221" fill="#ffffff" stroke="#334155"/>
<circle cx="300" cy="355" r="225" fill="none" stroke="#2563eb"/>
<line x1="60" y1="355" x2="540" y2="355" stroke="#475569" stroke-width="2"/>
<text x="80" y="155" class="small">俯视：分体缝0.20，两端搭接密封宽5</text>
<text x="100" y="635" class="small">铜环 OD149.60±0.05 / ID143.60±0.05 / 高5.00±0.05</text>
<text x="95" y="666" class="small">外缘可更换石英密封0.30厚；安装压缩0.10；最高100℃</text>
<circle cx="510.0" cy="355.0" r="3" fill="#059669" stroke="#334155"/>
<circle cx="481.8653347947321" cy="460.0" r="3" fill="#059669" stroke="#334155"/>
<circle cx="405.0" cy="536.8653347947321" r="3" fill="#059669" stroke="#334155"/>
<circle cx="300.0" cy="565.0" r="3" fill="#059669" stroke="#334155"/>
<circle cx="195.00000000000006" cy="536.8653347947321" r="3" fill="#059669" stroke="#334155"/>
<circle cx="118.13466520526788" cy="460.0" r="3" fill="#059669" stroke="#334155"/>
<circle cx="90.0" cy="355.0" r="3" fill="#059669" stroke="#334155"/>
<circle cx="118.13466520526785" cy="250.00000000000006" r="3" fill="#059669" stroke="#334155"/>
<circle cx="194.9999999999999" cy="173.1346652052679" r="3" fill="#059669" stroke="#334155"/>
<circle cx="299.99999999999994" cy="145.0" r="3" fill="#059669" stroke="#334155"/>
<circle cx="405.0" cy="173.1346652052679" r="3" fill="#059669" stroke="#334155"/>
<circle cx="481.86533479473206" cy="249.9999999999999" r="3" fill="#059669" stroke="#334155"/>
<line x1="75" y1="395" x2="170" y2="465" stroke="#2563eb" stroke-width="2"/>
<text x="75" y="488" class="small">水入口/出口 M5；Ø2水道</text>
<line x1="450" y1="230" x2="540" y2="190" stroke="#059669" stroke-width="2"/>
<text x="340" y="174" class="small">12×Ø1.0喷孔，等分30°</text>
<text x="640" y="167" class="small">铜环C11000；两半以定位销Ø3、M3螺栓连盘</text>
<text x="640" y="205" class="small">分体缝0.20；上下错层搭接5宽，防直通落屑</text>
<text x="640" y="243" class="small">铜环z94～99；离座底面1.00，禁止顶压翼片</text>
<text x="640" y="281" class="small">气道3×2；出口向上并朝缝下缘偏15°</text>
<text x="640" y="319" class="small">喷孔12×Ø1.0，分配公差±0.05；不吹熔池</text>
<text x="640" y="357" class="small">环水道Ø2.0，轴心R73.3，z96.5；最小壁0.5</text>
<text x="640" y="395" class="small">气/水接口分别标色；0.3 MPa水路保压无泄漏</text>
<text x="640" y="433" class="small">水0.20 L/min；入口20±5℃；出口≤35℃</text>
<text x="640" y="471" class="small">气幕10～15 L/min；保护气8～12 L/min</text>
<text x="640" y="509" class="small">顶罩抽吸22～28 L/min；腔内压差0～+20 Pa</text>
<text x="640" y="547" class="small">取流量、压力、漏水、铜环回缩位信号入PLC</text>
<text x="640" y="585" class="small">停弧冷却→密封径向回缩0.5→盘面朝上下撤</text>
<text x="640" y="623" class="small">盘面与焊缝下方抽吸采样；不得在内腔清洗</text>
<line x1="50" y1="719" x2="1150" y2="719" stroke="#334155" stroke-width="1.5"/>
<text x="50" y="746" class="small">中铁山桥杯 · 焊接固定题 | 单位 mm | 未注公差±0.10；关键配合按标注执行</text>
<text x="50" y="768" class="small">来源：当前设计参数、真实座体BREP与计算；试制按说明书工艺评定计划执行</text>
</svg>